
<svg version="1.1" id="Layer_1" xmlns="http://www.w3.org/2000/svg" xmlns:xlink="http://www.w3.org/1999/xlink" x="0px" y="0px"
	 width="100%" height="100%" viewBox="0 0 48 48" enable-background="new 0 0 48 48" xml:space="preserve">
<circle fill="#2596B4" cx="23.6" cy="23.7" r="22.6"/>
<g>
	<path fill="#FFFFFF" d="M15.7,32.2c-0.1,0-0.2,0-0.3-0.1c-0.1-0.1-0.1-0.2-0.1-0.3V16.5h0c0-0.2,0.2-0.4,0.4-0.4s0.4,0.2,0.4,0.4
		v14.9h16.7c0.2,0,0.4,0.2,0.4,0.4c0,0.2-0.2,0.4-0.4,0.4H15.7z"/>
	<path fill="#FFFFFF" d="M20,29.6c0,0.4-0.3,0.8-0.7,0.8h-1.4c-0.4,0-0.7-0.3-0.7-0.8v-1.6c0-0.4,0.3-0.8,0.7-0.8h1.4
		c0.4,0,0.7,0.3,0.7,0.8V29.6z"/>
	<path fill="#FFFFFF" d="M23.6,29.6c0,0.4-0.3,0.8-0.7,0.8h-1.4c-0.4,0-0.7-0.3-0.7-0.8v-5.1c0-0.4,0.3-0.8,0.7-0.8h1.4
		c0.4,0,0.7,0.3,0.7,0.8V29.6z"/>
	<path fill="#FFFFFF" d="M31,29.5c0,0.4-0.3,0.8-0.8,0.8h-1.3c-0.4,0-0.8-0.4-0.8-0.8v-6.7c0-0.4,0.3-0.8,0.8-0.8h1.3
		c0.4,0,0.8,0.4,0.8,0.8V29.5z"/>
	<path fill="#FFFFFF" d="M27.2,29.6c0,0.4-0.3,0.8-0.7,0.8h-1.4c-0.4,0-0.7-0.3-0.7-0.8V26c0-0.4,0.3-0.8,0.7-0.8h1.4
		c0.4,0,0.7,0.3,0.7,0.8V29.6z"/>
	<path fill="#FFFFFF" d="M30.4,17.3l-2.7,0.3l0.9,1l-3,3.9l-3.1-3c-0.2-0.2-0.5-0.2-0.8,0l-4.5,4.4c-0.2,0.2-0.2,0.6,0,0.8
		c0.1,0.1,0.3,0.2,0.4,0.2c0.1,0,0.3-0.1,0.4-0.2h0l4.2-4l3.1,3.1c0.1,0.1,0.3,0.2,0.4,0.2c0.2,0,0.3-0.1,0.4-0.2l3.3-4.3l0.8,0.8
		L30.4,17.3z"/>
</g>
<path opacity="0.5" fill="#1E697A" d="M32.1,22.6v7.8h1l0.7,1.1v1.3H14.5l13.8,13c4.9-1.1,9.3-3.7,12.4-7.4l1.7-2.3l1.6-2.9
	L32.1,22.6z"/>
</svg>
