
<svg version="1.1" id="Layer_1" xmlns="http://www.w3.org/2000/svg" xmlns:xlink="http://www.w3.org/1999/xlink" x="0px" y="0px"
	  viewBox="-227 104 48 48" enable-background="new -227 104 48 48" xml:space="preserve">
<circle fill="#2596B4" cx="-203.284" cy="128.268" r="22.308"/>
<path opacity="0.5" fill="#1E697A" enable-background="new    " d="M-201.378,138.08h-5.484l11.21,11.155
	c5.6-2.039,10.149-6.26,12.628-11.633l-20.258-20.165l-2.428,1.376v19.266H-201.378z"/>
<g>
	<circle fill="#FFFFFF" cx="-204.12" cy="118.813" r="1.59"/>
</g>
<g>
	<polygon fill="#FFFFFF" points="-204.12,122.841 -202.74,122.841 -202.74,120.651 -201.698,120.651 -201.698,127.218 
		-201.378,128.269 -201.378,138.08 -203.832,138.08 -203.832,129.385 -204.12,129.385 -204.442,129.385 -204.442,138.08 
		-206.862,138.08 -206.862,128.211 -206.542,127.205 -206.542,120.651 -205.524,120.651 -205.524,122.841 	"/>
	<path fill="#FFFFFF" d="M-207.076,125.589l-0.896,3.542l-0.823,0.264l-0.461-0.591c0,0,1.346-6.334,1.738-7.422
		c0.091-0.254,0.241-0.437,0.442-0.568V125.589z"/>
	<path fill="#FFFFFF" d="M-201.2,125.589l0.896,3.542l0.823,0.264l0.461-0.591c0,0-1.346-6.334-1.738-7.422
		c-0.091-0.254-0.241-0.437-0.442-0.568V125.589z"/>
</g>
</svg>
