
<svg version="1.1" id="Layer_1" xmlns="http://www.w3.org/2000/svg" xmlns:xlink="http://www.w3.org/1999/xlink" x="0px" y="0px"
	  viewBox="-227 104 48 48" enable-background="new -227 104 48 48" xml:space="preserve">
<circle fill="#2596B4" cx="-203.057" cy="128.121" r="22.218"/>
<path opacity="0.5" fill="#1E697A" enable-background="new    " d="M-198.11,149.779c8.281-1.884,14.798-8.389,16.7-16.662
	l-12.822-12.861l-2.279,7.429l-15.685,8.008L-198.11,149.779z"/>
<path fill="#FFFFFF" d="M-196.979,120.256v7.518l-3.893-2.079v2.526l-5.482-2.526v2.729l-5.923-2.729v10.078h18.045v-15.517
	H-196.979z M-205.613,119.857l-0.119,0.094l0.12-0.092L-205.613,119.857z M-207.075,119.598l-0.119,0.092l0.002,0.001
	L-207.075,119.598z"/>
<path fill="#FFFFFF" d="M-197.929,118.679c0.566-0.002,1.055,0.241,1.41,0.505c0.178,0.131,0.317,0.263,0.411,0.359
	c0.045,0.05,0.081,0.086,0.104,0.116c0.011,0.011,0.017,0.021,0.023,0.026c0.002,0.001,0.002,0.002,0.002,0.004l0,0l0.002,0.001
	l0.106-0.084l0.719-0.552l0,0c-0.021-0.023-0.28-0.361-0.749-0.708c-0.468-0.344-1.16-0.709-2.029-0.711
	c-0.867-0.002-1.857,0.384-2.835,1.369l0.736,0.735C-199.184,118.902-198.493,118.681-197.929,118.679z"/>
<path fill="#FFFFFF" d="M-205.689,121.202c0.469,0.344,1.161,0.707,2.027,0.709h0.013c0.864,0,1.851-0.389,2.823-1.367l-0.735-0.736
	c-0.846,0.84-1.538,1.06-2.101,1.064c-0.564,0.001-1.053-0.244-1.41-0.507c-0.176-0.129-0.319-0.263-0.411-0.359
	c-0.048-0.05-0.083-0.089-0.104-0.114c-0.011-0.012-0.018-0.022-0.022-0.027c-0.001-0.004-0.003-0.004-0.003-0.005l-0.825,0.634
	C-206.417,120.517-206.156,120.856-205.689,121.202z"/>
<path fill="#FFFFFF" d="M-209.145,118.679c0.564-0.002,1.052,0.241,1.41,0.505c0.178,0.131,0.318,0.263,0.41,0.359
	c0.048,0.05,0.082,0.086,0.104,0.116c0.013,0.011,0.019,0.021,0.023,0.026c0.002,0.002,0.002,0.002,0.004,0.004l0.824-0.632v-0.002
	c-0.021-0.023-0.279-0.361-0.75-0.708c-0.468-0.344-1.159-0.711-2.026-0.711c-0.868-0.002-1.86,0.384-2.837,1.369l0.738,0.735
	C-210.401,118.902-209.709,118.681-209.145,118.679z"/>
</svg>
