
<svg version="1.1" id="Layer_1" xmlns="http://www.w3.org/2000/svg" xmlns:xlink="http://www.w3.org/1999/xlink" x="0px" y="0px"
	 viewBox="-227 104 48 48" enable-background="new -227 104 48 48" xml:space="preserve">
<circle fill="#2596B4" cx="-203.345" cy="127.824" r="22.543"/>
<g>
	<path fill="#FFFFFF" d="M-211.237,136.293c-0.098,0-0.195-0.044-0.264-0.118c-0.071-0.074-0.11-0.177-0.11-0.281v-15.305h0.001
		c0-0.217,0.167-0.399,0.372-0.399c0.205,0,0.371,0.182,0.371,0.399v14.908h16.685c0.206,0,0.373,0.177,0.373,0.397
		c0,0.216-0.167,0.399-0.373,0.399H-211.237z"/>
	<path fill="#FFFFFF" d="M-206.876,133.68c0,0.423-0.325,0.769-0.722,0.769h-1.373c-0.396,0-0.719-0.346-0.719-0.769v-1.628
		c0-0.423,0.323-0.769,0.719-0.769h1.373c0.397,0,0.722,0.345,0.722,0.769V133.68z"/>
	<path fill="#FFFFFF" d="M-203.297,133.68c0,0.423-0.325,0.769-0.721,0.769h-1.373c-0.397,0-0.721-0.346-0.721-0.769v-5.112
		c0-0.423,0.324-0.77,0.721-0.77h1.373c0.397,0,0.721,0.346,0.721,0.77V133.68z"/>
	<path fill="#FFFFFF" d="M-195.956,133.636c0,0.448-0.341,0.813-0.759,0.813h-1.297c-0.418,0-0.76-0.365-0.76-0.813v-6.652
		c0-0.446,0.342-0.813,0.76-0.813h1.297c0.418,0,0.759,0.367,0.759,0.813V133.636z"/>
	<path fill="#FFFFFF" d="M-199.719,133.68c0,0.423-0.325,0.769-0.72,0.769h-1.376c-0.395,0-0.72-0.346-0.72-0.769v-3.528
		c0-0.425,0.325-0.769,0.72-0.769h1.376c0.395,0,0.72,0.344,0.72,0.769V133.68z"/>
	<path fill="#FFFFFF" d="M-196.533,121.403l-2.74,0.321l0.904,0.963l-2.972,3.883l-3.084-3.046c-0.212-0.207-0.537-0.21-0.751-0.006
		l-4.529,4.376c-0.23,0.216-0.246,0.595-0.04,0.84c0.109,0.129,0.261,0.195,0.413,0.195c0.133,0,0.266-0.051,0.373-0.153h-0.001
		l4.155-4.01l3.143,3.105c0.113,0.114,0.265,0.171,0.416,0.159c0.152-0.009,0.296-0.091,0.393-0.216l3.273-4.281l0.75,0.801
		L-196.533,121.403z"/>
</g>
<path opacity="0.5" fill="#1E697A" enable-background="new    " d="M-194.821,126.694v7.755h1.013l0.719,1.082v1.34h-19.289
	l13.822,12.982c4.924-1.066,9.246-3.738,12.394-7.443l1.729-2.317l1.592-2.893L-194.821,126.694z"/>
</svg>
