<?xml version="1.0" encoding="utf-8"?>
<!-- Generator: Adobe Illustrator 18.1.1, SVG Export Plug-In . SVG Version: 6.00 Build 0)  -->
<!DOCTYPE svg PUBLIC "-//W3C//DTD SVG 1.1//EN" "http://www.w3.org/Graphics/SVG/1.1/DTD/svg11.dtd">
<svg version="1.1" id="Layer_1" xmlns="http://www.w3.org/2000/svg" xmlns:xlink="http://www.w3.org/1999/xlink" x="0px" y="0px"
	 width="343.7px" height="71px" viewBox="-80 258 343.7 71" enable-background="new -80 258 343.7 71" xml:space="preserve">
<g>
	<g>
		<path fill="#FFFFFF" d="M5.7,281.7c0.5-0.9,1.7-2.3,2.7-3.3l2.7-2.8c1.7-1.7,2.4-2.8,2.4-4c0-1.3-0.9-1.9-2.1-1.9
			c-1.4,0-2.2,0.7-2.3,1.8H5.8c0-2.8,2.2-4.8,5.6-4.8c3.1,0,5.6,1.7,5.6,4.8c0,2.4-1.3,4.2-4,6.8l-2.8,2.6v0.1H17v3H5.7L5.7,281.7
			L5.7,281.7z"/>
		<path fill="#FFFFFF" d="M18.4,275.4c0-7.1,3.4-8.8,6.6-8.8c3.3,0,6.6,1.6,6.6,8.8c0,7.3-3.4,8.9-6.6,8.9
			C21.5,284.3,18.4,282.7,18.4,275.4z M27.9,275.4c0-3.8-0.6-5.7-2.9-5.7c-2.2,0-2.9,2-2.9,5.7c0,3.9,0.7,5.9,2.9,5.9
			C27.1,281.2,27.9,279.2,27.9,275.4z"/>
		<path fill="#FFFFFF" d="M35.9,270.9l-2.5,1h-0.2v-2.8l3.7-2.2h2.6V284h-3.6V270.9z"/>
		<path fill="#FFFFFF" d="M45.5,274.4c0.7-1,2.2-1.5,3.5-1.5c3.1,0,5.3,2,5.3,5.4c0,3.8-2.7,5.9-5.9,5.9c-2.3,0-3.9-0.8-5-2.2
			c-1.1-1.6-1.4-3.6-1.4-6.3c0-5.4,2-9.1,6.5-9.1c2.9,0,5.1,1.3,5.3,4.1h-3.4c-0.1-0.6-0.8-1.1-1.9-1.1c-2.3,0-3,2.3-3.1,4.5
			L45.5,274.4L45.5,274.4L45.5,274.4z M50.8,278.4c0-1.6-0.8-2.7-2.4-2.7c-1.7,0-2.7,1-2.7,2.7c0,1.6,0.9,2.9,2.6,2.9
			C49.8,281.3,50.8,280.2,50.8,278.4z"/>
	</g>
</g>
<g opacity="0.5">
	<g>
		<path fill="#FFFFFF" d="M-79.1,266.9h5.5c3.7,0,6,1.6,6,4.3c0,1.6-0.6,3-2.5,3.7v0.2c1.9,0.6,2.9,1.8,2.9,4c0,2.9-2,4.9-6,4.9
			h-5.9V266.9z M-73.6,273.7c1.8,0,2.5-0.8,2.5-2.1c0-1.2-0.9-1.9-2.6-1.9h-1.8v4L-73.6,273.7L-73.6,273.7z M-73.4,281.1
			c1.8,0,2.7-0.7,2.7-2.3c0-1.6-0.9-2.3-2.8-2.3h-2v4.6L-73.4,281.1L-73.4,281.1z"/>
		<path fill="#FFFFFF" d="M-65.3,266.9h3.7v11.2c0,2.1,0.8,3.1,2.5,3.1c1.8,0,2.6-1,2.6-3.1v-11.2h3.7v10.8c0,4.2-1.9,6.6-6.4,6.6
			c-4.3,0-6.1-2.2-6.1-6.6L-65.3,266.9L-65.3,266.9z"/>
		<path fill="#FFFFFF" d="M-50.2,266.9h4.5c5.7,0,8.3,2.8,8.3,8.3c0,5.7-2.9,8.8-8.5,8.8h-4.3L-50.2,266.9L-50.2,266.9z M-45.6,281
			c3.1,0,4.5-1.7,4.5-5.7c0-3.9-1.2-5.3-4.4-5.3h-1v11L-45.6,281L-45.6,281z"/>
		<path fill="#FFFFFF" d="M-29.2,274.7h6v2.6c0,4.4-2.3,6.9-6.4,6.9c-4.5,0-6.8-2.7-6.8-8.8c0-5.7,2.5-8.8,7-8.8
			c3.2,0,5.5,1.4,5.9,4.5h-3.5c-0.3-1-1.1-1.5-2.3-1.5c-2.4,0-3.3,1.9-3.3,5.8c0,4.3,1,5.8,3.1,5.8c2,0,3-1.1,3-3.4v-0.5h-2.8V274.7
			z"/>
		<path fill="#FFFFFF" d="M-20.9,266.9h10.6v3h-7v3.8h5.1v3h-5.1v4.1h7.2v3h-10.9V266.9z"/>
		<path fill="#FFFFFF" d="M-4.8,270h-4.5v-3H3.4v3h-4.5v14h-3.7V270z"/>
	</g>
</g>
<g>
	<g>
		<path fill="#FFFFFF" d="M-77.7,292h1.1l2.9,22.1c0.2,1.4,0.4,3.3,0.5,4.7h0.1c0.5-1.5,1.2-3.5,1.8-4.8l5.7-14.7h1.1l4.5,14.7
			c0.4,1.4,1,3.4,1.4,4.8h0.1c0.3-1.4,0.7-3.3,1-4.7l4.8-22.1h1.1l-6.3,28.1h-1.2l-5-16.1c-0.4-1.1-0.7-2.2-1-3.4h-0.1
			c-0.4,1.2-0.9,2.3-1.3,3.4l-6.2,16.1h-1.2L-77.7,292z"/>
		<path fill="#FFFFFF" d="M-48.2,292h0.9v12.4h0.1c1-2.6,3.1-4.3,6.8-4.3c4.2,0,6.7,2.3,6.7,7v13h-0.9v-12.8c0-4.5-2.2-6.3-5.9-6.3
			c-4.3,0-6.8,3-6.8,7.3v11.8h-0.9L-48.2,292L-48.2,292z"/>
		<path fill="#FFFFFF" d="M-29.8,327.1h0.5c2.6,0,3.9-1.6,5.2-4.5l0.9-2.2l-7.2-19.9h1.1l4.2,11.8c0.9,2.6,1.8,5.1,2.4,6.9h0.1
			c0.6-1.6,1.6-4.3,2.6-6.9l4.6-11.8h1l-8.9,22.5c-1.4,3.6-3.2,5.1-5.9,5.1c-0.1,0-0.4,0-0.7,0L-29.8,327.1L-29.8,327.1z"/>
		<path fill="#FFFFFF" d="M-1.1,292h1v28.1h-1V292z"/>
		<path fill="#FFFFFF" d="M8.3,301.4H3.8v-0.9h4.5v-5.7h0.9v5.7h5.9v0.9H9.2v12.7c0,4.3,1.5,5,4.7,5h1.4v0.9c-0.4,0-1.2,0.1-1.6,0.1
			c-3.6,0-5.4-1.1-5.4-5.6L8.3,301.4L8.3,301.4z"/>
		<path fill="#FFFFFF" d="M29.7,292h1.4l5.7,11.7l3.4,7.1h0.1l3.4-7.1l5.7-11.7h1.4v28.1h-1v-26.6h-0.2c-0.8,1.9-1.7,3.7-2.7,5.6
			l-6.4,12.9h-0.9l-6.4-12.9c-0.9-1.9-1.8-3.7-2.7-5.6h-0.1v26.6h-0.9C29.7,320.1,29.7,292,29.7,292z"/>
		<path fill="#FFFFFF" d="M69.4,316L69.4,316c-0.9,2.5-3.2,4.6-7.5,4.6c-3.6,0-6.2-2-6.2-5.6c0-3.5,2.5-5.8,8-5.8h5.6v-2.9
			c0-3.8-2.1-5.4-5.9-5.4c-2.8,0-4.6,1-5.3,2.6h-1.1c0.7-2.1,3.1-3.5,6.6-3.5c4.3,0,6.7,2.1,6.7,6.1v14h-0.9V316z M69.4,310.1h-5.7
			c-4.2,0-6.9,1.5-6.9,4.9c0,2.9,2.1,4.6,5.2,4.6c5,0,7.5-3.2,7.5-7.5V310.1z"/>
		<path fill="#FFFFFF" d="M78.1,301.4h-4.5v-0.9h4.5v-5.7H79v5.7h5.9v0.9H79v12.7c0,4.3,1.5,5,4.7,5h1.4v0.9c-0.4,0-1.2,0.1-1.6,0.1
			c-3.6,0-5.4-1.1-5.4-5.6L78.1,301.4L78.1,301.4z"/>
		<path fill="#FFFFFF" d="M91.3,301.4h-4.5v-0.9h4.5v-5.7h0.9v5.7h5.9v0.9h-5.9v12.7c0,4.3,1.5,5,4.7,5h1.4v0.9
			c-0.4,0-1.2,0.1-1.6,0.1c-3.6,0-5.4-1.1-5.4-5.6L91.3,301.4L91.3,301.4z"/>
		<path fill="#FFFFFF" d="M102,310.2c0,6.2,2.3,9.4,7,9.4c2.3,0,4.8-0.8,6.1-2.8h1c-1.2,2.6-4.1,3.7-7.1,3.7c-6,0-8-4.5-8-10.2
			c0-5.9,2.5-10.4,8.1-10.4c4.5,0,7.3,2.8,7.3,8.1c0,0.5,0,0.9,0,1.6H102L102,310.2L102,310.2z M115.4,308.9v-0.4
			c0-5.1-2.4-7.5-6.4-7.5c-4.4,0-6.7,3.3-7,7.9C102,308.9,115.4,308.9,115.4,308.9z"/>
		<path fill="#FFFFFF" d="M121.1,300.5h0.9v3.4h0.1c1.1-2.7,3.6-3.5,6.2-3.5c0.1,0,0.2,0,0.8,0v0.9h-0.8c-3.1,0-6.3,1.2-6.3,6.5
			v12.2h-0.9L121.1,300.5L121.1,300.5z"/>
		<path fill="#FFFFFF" d="M132.3,316.8c0.7,1.8,3.1,2.8,6.1,2.8c4.1,0,6.2-2,6.2-4.5c0-2.3-1-3.2-5.6-4.5l-0.6-0.2
			c-3.9-1.1-6.3-2-6.3-5.4c0-3.3,3.2-5.2,6.7-5.2c3.8,0,6.1,1.5,6.6,3.5h-1c-0.7-1.6-2.7-2.6-5.6-2.6c-3.3,0-5.7,1.6-5.7,4.2
			c0,2.3,1.4,3.4,5.5,4.5l0.6,0.2c4.2,1.1,6.4,2.1,6.4,5.3c0,3.3-2.7,5.5-7.3,5.5c-3.8,0-6.4-1.4-7.1-3.7L132.3,316.8L132.3,316.8z"
			/>
		<path fill="#FFFFFF" d="M166.2,292.9h-8.8V292h18.5v0.9h-8.8v27.2h-1L166.2,292.9L166.2,292.9z"/>
		<path fill="#FFFFFF" d="M177.6,310.3c0-5.8,2.6-10.3,8.4-10.3c5.9,0,8.4,4.3,8.4,10.2c0,5.8-2.6,10.3-8.4,10.3
			C180.1,320.6,177.6,316.3,177.6,310.3z M193.4,310.3c0-6.1-2.7-9.3-7.3-9.3c-4.6,0-7.3,3.3-7.3,9.4s2.7,9.3,7.3,9.3
			C190.7,319.6,193.4,316.4,193.4,310.3z"/>
		<path fill="#FFFFFF" d="M213.4,308.7l-8.3-16.7h1.2l5.4,11l2.3,4.6h0.1l2.6-4.5l6.3-11.1h1.1l-9.7,16.7v11.4h-1L213.4,308.7
			L213.4,308.7z"/>
		<path fill="#FFFFFF" d="M224.8,310.3c0-5.8,2.6-10.3,8.4-10.3c5.9,0,8.4,4.3,8.4,10.2c0,5.8-2.6,10.3-8.4,10.3
			C227.4,320.6,224.8,316.3,224.8,310.3z M240.6,310.3c0-6.1-2.7-9.3-7.3-9.3s-7.3,3.3-7.3,9.4s2.7,9.3,7.3,9.3
			S240.6,316.4,240.6,310.3z"/>
		<path fill="#FFFFFF" d="M245.9,300.5h0.9v12.8c0,4.5,2.2,6.3,5.9,6.3c4.3,0,6.8-3,6.8-7.3v-11.8h0.9v19.6h-0.9v-3.9h-0.1
			c-1,2.6-3.1,4.3-6.8,4.3c-4.2,0-6.7-2.3-6.7-7L245.9,300.5L245.9,300.5z"/>
	</g>
</g>
</svg>
