<svg version="1.1" id="Layer_1" xmlns="http://www.w3.org/2000/svg" xmlns:xlink="http://www.w3.org/1999/xlink" x="0px" y="0px"
	 width="25.57px" height="25.7px" viewBox="-434 1034.3 25.57 25.7" enable-background="new -434 1034.3 25.57 25.7"
	 xml:space="preserve">
<g>
	<g>
		<path fill="#999999" d="M-412.336,1054.482l-1.643,1.682l-5.631-5.491c-1.096,0.726-2.331,1.083-3.694,1.083
			c-1.86,0-3.465-0.662-4.79-1.974c-1.338-1.312-2-2.93-2-4.854c0-1.885,0.662-3.49,2-4.815c1.325-1.312,2.93-1.975,4.79-1.975
			c1.86,0,3.465,0.662,4.79,1.975c1.325,1.325,2,2.93,2,4.815c0,1.49-0.433,2.854-1.312,4.064L-412.336,1054.482z
			 M-418.298,1044.927c0-1.363-0.497-2.548-1.478-3.529c-0.981-0.981-2.166-1.465-3.529-1.465c-1.363,0-2.548,0.497-3.529,1.478
			s-1.478,2.166-1.478,3.529c0,1.389,0.497,2.586,1.478,3.567c0.981,0.981,2.153,1.478,3.529,1.478c1.376,0,2.548-0.484,3.529-1.478
			C-418.795,1047.513-418.298,1046.328-418.298,1044.927z"/>
	</g>
</g>
</svg>
