
<svg version="1.1" id="Layer_1" xmlns="http://www.w3.org/2000/svg" xmlns:xlink="http://www.w3.org/1999/xlink" x="0px" y="0px"
	 width="267.263px" height="100.225px" viewBox="-117 77.775 267.263 100.225" enable-background="new -117 77.775 267.263 100.225"
	 xml:space="preserve">
<path fill="none" stroke="#EFF3F4" stroke-width="1.225" stroke-miterlimit="10" d="M-105.024,108.388
	c0,0,16.097-16.097,16.748-16.748"/>
<path fill="none" stroke="#EFF3F4" stroke-width="1.225" stroke-miterlimit="10" d="M-109.49,118.809
	c0,0,30.519-30.519,30.985-30.985"/>
<path fill="none" stroke="#EFF3F4" stroke-width="1.225" stroke-miterlimit="10" d="M-110.606,125.322
	c0,0,38.428-38.149,38.894-38.521"/>
<path fill="none" stroke="#EFF3F4" stroke-width="1.225" stroke-miterlimit="10" d="M-110.141,131.184
	c0,0,43.546-43.732,44.383-44.383"/>
<path fill="none" stroke="#EFF3F4" stroke-width="1.225" stroke-miterlimit="10" d="M-110.234,136.581
	c0,0,49.873-49.222,50.338-49.687"/>
<path fill="none" stroke="#EFF3F4" stroke-width="1.225" stroke-miterlimit="10" d="M-109.211,141.326
	c0,0,53.409-52.665,53.781-53.037"/>
<path fill="none" stroke="#EFF3F4" stroke-width="1.225" stroke-miterlimit="10" d="M-107.536,145.607
	c0,0,55.735-55.084,56.293-55.549"/>
<path fill="none" stroke="#EFF3F4" stroke-width="1.225" stroke-miterlimit="10" d="M-105.675,149.515
	c0,0,57.968-57.038,58.434-57.596"/>
<path fill="none" stroke="#EFF3F4" stroke-width="1.225" stroke-miterlimit="10" d="M-103.535,153.329
	c0,0,59.364-58.806,60.108-59.55"/>
<path fill="none" stroke="#EFF3F4" stroke-width="1.225" stroke-miterlimit="10" d="M-101.116,156.772
	c0,0,60.667-59.829,61.039-60.295"/>
<path fill="none" stroke="#EFF3F4" stroke-width="1.225" stroke-miterlimit="10" d="M-98.51,159.657
	c0,0,60.667-59.643,61.132-60.388"/>
<path fill="none" stroke="#EFF3F4" stroke-width="1.225" stroke-miterlimit="10" d="M-95.44,162.634c0,0,60.76-59.736,61.132-60.388
	"/>
<path fill="none" stroke="#EFF3F4" stroke-width="1.225" stroke-miterlimit="10" d="M-91.904,165.146
	c0,0,59.364-58.62,59.922-59.271"/>
<path fill="none" stroke="#EFF3F4" stroke-width="1.225" stroke-miterlimit="10" d="M-88.275,167.38c0,0,58.154-57.038,58.62-57.968
	"/>
<path fill="none" stroke="#EFF3F4" stroke-width="1.225" stroke-miterlimit="10" d="M-84.553,169.147c0,0,56.2-55.084,56.48-55.735"
	/>
<path fill="none" stroke="#EFF3F4" stroke-width="1.225" stroke-miterlimit="10" d="M-80.087,170.915
	c0,0,53.409-52.665,53.781-52.944"/>
<path fill="none" stroke="#EFF3F4" stroke-width="1.225" stroke-miterlimit="10" d="M-75.342,172.032
	c0,0,49.315-48.757,49.966-49.408"/>
<path fill="none" stroke="#EFF3F4" stroke-width="1.225" stroke-miterlimit="10" d="M-70.503,172.962
	c0,0,44.756-44.383,45.407-44.849"/>
<path fill="none" stroke="#EFF3F4" stroke-width="1.225" stroke-miterlimit="10" d="M-64.548,172.962
	c0,0,39.08-38.428,39.731-38.987"/>
<path fill="none" stroke="#EFF3F4" stroke-width="1.225" stroke-miterlimit="10" d="M-57.011,171.194
	c0,0,30.054-29.496,30.706-30.147"/>
<path fill="none" stroke="#EFF3F4" stroke-width="1.225" stroke-miterlimit="10" d="M-47.428,167.659
	c0,0,16.469-16.004,16.842-16.562"/>
<text transform="matrix(1 0 0 1 -15.3008 133.5346)" fill="#333333" font-family="'Curator Bold'" font-size="16">For young children</text>
<g>
	<g>
		<polygon fill="#2490A9" points="-79.775,108.796 -81.475,110.236 -79.775,111.677 -79.643,113.12 -78.073,112.594 
			-79.383,111.285 		"/>
		<path fill="#2490A9" d="M-59.596,111.154l-4.506-4.056c-0.561-2.284-2.605-3.981-5.061-3.981c-2.456,0-4.499,1.699-5.061,3.982
			l-4.504,4.054l4.671-1.025c0.73,2.005,2.636,3.446,4.894,3.446c2.26,0,4.164-1.441,4.896-3.446L-59.596,111.154z"/>
		<polygon fill="#2490A9" points="-58.548,108.796 -58.942,111.285 -60.251,112.594 -58.678,113.12 -58.548,111.677 
			-56.846,110.236 		"/>
	</g>
	<path fill="#2490A9" d="M-68.831,139.966h-2.081l1.026,9.258h-2.323l-3.285-9.258h-1.736l2.015-18.727l-5.298,8.661l-1.953-1.293
		l5.609-12.512c0,0,0.841-2.194,4.528-1.936l2.953,1.581l3.314,0.121"/>
	<path fill="#2490A9" d="M-69.564,139.966h2.081l-1.026,9.258h2.323l3.285-9.258h1.736l-2.015-18.727l5.298,8.661l1.953-1.293
		l-5.609-12.512c0,0-0.841-2.194-4.528-1.936l-2.953,1.581l-3.314,0.121"/>
	<path fill="#2490A9" d="M-64.242,122.048"/>
	<polyline fill="#2490A9" points="-70.911,139.966 -69.885,149.224 -72.208,149.224 -75.494,139.966 	"/>
</g>
</svg>
