
<svg version="1.1" id="Layer_1" xmlns="http://www.w3.org/2000/svg" xmlns:xlink="http://www.w3.org/1999/xlink" x="0px" y="0px"
	 width="267.263px" height="100.225px" viewBox="-117 77.775 267.263 100.225" enable-background="new -117 77.775 267.263 100.225"
	 xml:space="preserve">
<path fill="none" stroke="#EFF3F4" stroke-width="1.225" stroke-miterlimit="10" d="M-105.024,108.388
	c0,0,16.097-16.097,16.748-16.748"/>
<path fill="none" stroke="#EFF3F4" stroke-width="1.225" stroke-miterlimit="10" d="M-109.49,118.809
	c0,0,30.519-30.519,30.985-30.985"/>
<path fill="none" stroke="#EFF3F4" stroke-width="1.225" stroke-miterlimit="10" d="M-110.606,125.322
	c0,0,38.428-38.149,38.894-38.521"/>
<path fill="none" stroke="#EFF3F4" stroke-width="1.225" stroke-miterlimit="10" d="M-110.141,131.184
	c0,0,43.546-43.732,44.383-44.383"/>
<path fill="none" stroke="#EFF3F4" stroke-width="1.225" stroke-miterlimit="10" d="M-110.234,136.581
	c0,0,49.873-49.222,50.338-49.687"/>
<path fill="none" stroke="#EFF3F4" stroke-width="1.225" stroke-miterlimit="10" d="M-109.211,141.326
	c0,0,53.409-52.665,53.781-53.037"/>
<path fill="none" stroke="#EFF3F4" stroke-width="1.225" stroke-miterlimit="10" d="M-107.536,145.607
	c0,0,55.735-55.084,56.293-55.549"/>
<path fill="none" stroke="#EFF3F4" stroke-width="1.225" stroke-miterlimit="10" d="M-105.675,149.515
	c0,0,57.968-57.038,58.434-57.596"/>
<path fill="none" stroke="#EFF3F4" stroke-width="1.225" stroke-miterlimit="10" d="M-103.535,153.329
	c0,0,59.364-58.806,60.108-59.55"/>
<path fill="none" stroke="#EFF3F4" stroke-width="1.225" stroke-miterlimit="10" d="M-101.116,156.772
	c0,0,60.667-59.829,61.039-60.295"/>
<path fill="none" stroke="#EFF3F4" stroke-width="1.225" stroke-miterlimit="10" d="M-98.51,159.657
	c0,0,60.667-59.643,61.132-60.388"/>
<path fill="none" stroke="#EFF3F4" stroke-width="1.225" stroke-miterlimit="10" d="M-95.44,162.634c0,0,60.76-59.736,61.132-60.388
	"/>
<path fill="none" stroke="#EFF3F4" stroke-width="1.225" stroke-miterlimit="10" d="M-91.904,165.146
	c0,0,59.364-58.62,59.922-59.271"/>
<path fill="none" stroke="#EFF3F4" stroke-width="1.225" stroke-miterlimit="10" d="M-88.275,167.38c0,0,58.154-57.038,58.62-57.968
	"/>
<path fill="none" stroke="#EFF3F4" stroke-width="1.225" stroke-miterlimit="10" d="M-84.553,169.147c0,0,56.2-55.084,56.48-55.735"
	/>
<path fill="none" stroke="#EFF3F4" stroke-width="1.225" stroke-miterlimit="10" d="M-80.087,170.915
	c0,0,53.409-52.665,53.781-52.944"/>
<path fill="none" stroke="#EFF3F4" stroke-width="1.225" stroke-miterlimit="10" d="M-75.342,172.032
	c0,0,49.315-48.757,49.966-49.408"/>
<path fill="none" stroke="#EFF3F4" stroke-width="1.225" stroke-miterlimit="10" d="M-70.503,172.962
	c0,0,44.756-44.383,45.407-44.849"/>
<path fill="none" stroke="#EFF3F4" stroke-width="1.225" stroke-miterlimit="10" d="M-64.548,172.962
	c0,0,39.08-38.428,39.731-38.987"/>
<path fill="none" stroke="#EFF3F4" stroke-width="1.225" stroke-miterlimit="10" d="M-57.011,171.194
	c0,0,30.054-29.496,30.706-30.147"/>
<path fill="none" stroke="#EFF3F4" stroke-width="1.225" stroke-miterlimit="10" d="M-47.428,167.659
	c0,0,16.469-16.004,16.842-16.562"/>
<text transform="matrix(1 0 0 1 -15.3008 135.6296)" fill="#333333" font-family="'Curator Bold'" font-size="16">For seniors</text>
<g>
	<g>
		<g>
			<g>
				<g>
					<circle fill="#2D96B2" cx="-77.217" cy="105.477" r="3.786"/>
					<path fill="#2D96B2" d="M-76.676,105.342"/>
				</g>
				<path fill="#2D96B2" d="M-70.726,105.477c0,0-3.11,1.488-4.057,4.192c0,0-0.406,4.192-0.135,5.95
					c0.271,1.893,0.676,4.192,0,4.597c-0.676,0.406-3.516,1.352-3.516,1.352l0.541,3.245c0,0,1.352,0.541,2.975,0
					c1.623-0.541,0.676,1.217,0.135,2.164c-0.676,0.946-3.381,6.085-3.516,7.708c-0.27,1.488,0,16.363,0,16.363
					s-3.786-0.406-3.786,2.164h8.249l0.811-12.441c0,0,0.271-2.434,2.975-4.192c0,0-2.569,5.679,6.896,13.523l-1.217,2.84
					c0,0,0.676,1.082,2.028,0.811c1.352-0.27,2.028-2.299,2.028-3.245c0,0,1.893-0.27,2.164-1.758c0,0-3.381-5.95-3.786-7.843
					c-0.541-1.893-1.352-6.356-0.541-14.875c0,0,2.164-1.623,1.488-3.786c0,0,2.704-4.327,2.84-5.95
					c0.135-1.623-0.811-2.84-3.11-4.598C-63.559,109.94-70.726,105.477-70.726,105.477z"/>
				<path fill="#2D96B2" d="M-78.57,121.569c0,0-3.11,0-3.786,1.082c-0.676,1.082,0,3.11,0,3.11s1.352,0.676,2.164,0.135
					c0.811-0.541,2.028-1.352,2.028-1.352L-78.57,121.569z"/>
				<path fill="#FFFFFF" d="M-66.805,122.786l2.434,2.84c0,0,1.623-0.406,1.352-2.028l-3.245-1.352L-66.805,122.786z"/>
			</g>
		</g>
	</g>
</g>
<rect x="-81.68" y="125.761" fill="#2D96B2" width="1.352" height="27.451"/>
</svg>
