
<svg version="1.1" id="Layer_1" xmlns="http://www.w3.org/2000/svg" xmlns:xlink="http://www.w3.org/1999/xlink" x="0px" y="0px"
	 width="267.263px" height="100.225px" viewBox="-117 77.775 267.263 100.225" enable-background="new -117 77.775 267.263 100.225"
	 xml:space="preserve">
<path fill="none" stroke="#EFF3F4" stroke-width="1.225" stroke-miterlimit="10" d="M-105.024,108.388
	c0,0,16.097-16.097,16.748-16.748"/>
<path fill="none" stroke="#EFF3F4" stroke-width="1.225" stroke-miterlimit="10" d="M-109.49,118.809
	c0,0,30.519-30.519,30.985-30.985"/>
<path fill="none" stroke="#EFF3F4" stroke-width="1.225" stroke-miterlimit="10" d="M-110.606,125.322
	c0,0,38.428-38.149,38.894-38.521"/>
<path fill="none" stroke="#EFF3F4" stroke-width="1.225" stroke-miterlimit="10" d="M-110.141,131.184
	c0,0,43.546-43.732,44.383-44.383"/>
<path fill="none" stroke="#EFF3F4" stroke-width="1.225" stroke-miterlimit="10" d="M-110.234,136.581
	c0,0,49.873-49.222,50.338-49.687"/>
<path fill="none" stroke="#EFF3F4" stroke-width="1.225" stroke-miterlimit="10" d="M-109.211,141.326
	c0,0,53.409-52.665,53.781-53.037"/>
<path fill="none" stroke="#EFF3F4" stroke-width="1.225" stroke-miterlimit="10" d="M-107.536,145.607
	c0,0,55.735-55.084,56.293-55.549"/>
<path fill="none" stroke="#EFF3F4" stroke-width="1.225" stroke-miterlimit="10" d="M-105.675,149.515
	c0,0,57.968-57.038,58.434-57.596"/>
<path fill="none" stroke="#EFF3F4" stroke-width="1.225" stroke-miterlimit="10" d="M-103.535,153.329
	c0,0,59.364-58.806,60.108-59.55"/>
<path fill="none" stroke="#EFF3F4" stroke-width="1.225" stroke-miterlimit="10" d="M-101.116,156.772
	c0,0,60.667-59.829,61.039-60.295"/>
<path fill="none" stroke="#EFF3F4" stroke-width="1.225" stroke-miterlimit="10" d="M-98.51,159.657
	c0,0,60.667-59.643,61.132-60.388"/>
<path fill="none" stroke="#EFF3F4" stroke-width="1.225" stroke-miterlimit="10" d="M-95.44,162.634c0,0,60.76-59.736,61.132-60.388
	"/>
<path fill="none" stroke="#EFF3F4" stroke-width="1.225" stroke-miterlimit="10" d="M-91.904,165.146
	c0,0,59.364-58.62,59.922-59.271"/>
<path fill="none" stroke="#EFF3F4" stroke-width="1.225" stroke-miterlimit="10" d="M-88.275,167.38c0,0,58.154-57.038,58.62-57.968
	"/>
<path fill="none" stroke="#EFF3F4" stroke-width="1.225" stroke-miterlimit="10" d="M-84.553,169.147c0,0,56.2-55.084,56.48-55.735"
	/>
<path fill="none" stroke="#EFF3F4" stroke-width="1.225" stroke-miterlimit="10" d="M-80.087,170.915
	c0,0,53.409-52.665,53.781-52.944"/>
<path fill="none" stroke="#EFF3F4" stroke-width="1.225" stroke-miterlimit="10" d="M-75.342,172.032
	c0,0,49.315-48.757,49.966-49.408"/>
<path fill="none" stroke="#EFF3F4" stroke-width="1.225" stroke-miterlimit="10" d="M-70.503,172.962
	c0,0,44.756-44.383,45.407-44.849"/>
<path fill="none" stroke="#EFF3F4" stroke-width="1.225" stroke-miterlimit="10" d="M-64.548,172.962
	c0,0,39.08-38.428,39.731-38.987"/>
<path fill="none" stroke="#EFF3F4" stroke-width="1.225" stroke-miterlimit="10" d="M-57.011,171.194
	c0,0,30.054-29.496,30.706-30.147"/>
<path fill="none" stroke="#EFF3F4" stroke-width="1.225" stroke-miterlimit="10" d="M-47.428,167.659
	c0,0,16.469-16.004,16.842-16.562"/>
<text transform="matrix(1 0 0 1 -15.3008 135.6296)" fill="#333333" font-family="'Curator Bold'" font-size="16">Workers in Transition</text>
<g>
	<g>
		<g>
			<circle fill="#2490A9" cx="-85.478" cy="111.38" r="3.077"/>
		</g>
	</g>
	<g>
		<g>
			<polygon fill="#2490A9" points="-85.479,119.174 -82.808,119.174 -82.808,114.935 -80.79,114.935 -80.79,127.647 -80.172,129.68 
				-80.172,148.669 -84.922,148.669 -84.922,131.84 -85.479,131.84 -86.101,131.84 -86.101,148.669 -90.785,148.669 
				-90.785,129.568 -90.167,127.621 -90.167,114.935 -88.196,114.935 -88.196,119.174 			"/>
			<path fill="#2490A9" d="M-91.199,124.493l-1.734,6.856l-1.593,0.511l-0.893-1.143c0,0,2.605-12.26,3.364-14.365
				c0.177-0.492,0.466-0.846,0.855-1.1V124.493z"/>
			<path fill="#2490A9" d="M-79.827,124.493l1.734,6.856l1.593,0.511l0.893-1.143c0,0-2.605-12.26-3.364-14.365
				c-0.177-0.492-0.466-0.846-0.855-1.1V124.493z"/>
		</g>
	</g>
</g>
<g>
	<g>
		<g>
			<circle fill="#2490A9" cx="-48.989" cy="111.365" r="3.077"/>
		</g>
	</g>
	<g>
		<g>
			<polygon fill="#2490A9" points="-48.989,119.159 -46.318,119.159 -46.318,114.92 -44.3,114.92 -44.3,127.632 -43.682,129.665 
				-43.682,148.654 -48.432,148.654 -48.432,131.825 -48.989,131.825 -49.611,131.825 -49.611,148.654 -54.295,148.654 
				-54.295,129.553 -53.677,127.606 -53.677,114.92 -51.706,114.92 -51.706,119.159 			"/>
			<path fill="#2490A9" d="M-54.71,124.478l-1.734,6.856l-1.593,0.511l-0.893-1.143c0,0,2.605-12.26,3.364-14.365
				c0.177-0.492,0.466-0.846,0.855-1.1V124.478z"/>
			<path fill="#2490A9" d="M-43.337,124.478l1.734,6.856l1.593,0.511l0.893-1.143c0,0-2.605-12.26-3.364-14.365
				c-0.177-0.492-0.466-0.846-0.855-1.1V124.478z"/>
		</g>
	</g>
</g>
<g>
	<g>
		
			<line fill="none" stroke="#2490A9" stroke-width="2" stroke-miterlimit="10" x1="-73.721" y1="138.947" x2="-62.231" y2="138.947"/>
		<g>
			<polygon fill="#2490A9" points="-66.214,142.338 -62.822,138.947 -66.214,135.556 -63.335,135.556 -59.945,138.947 
				-63.335,142.338 			"/>
		</g>
	</g>
</g>
</svg>
