
<svg version="1.1" id="Layer_1" xmlns="http://www.w3.org/2000/svg" xmlns:xlink="http://www.w3.org/1999/xlink" x="0px" y="0px"
	 width="267.263px" height="100.225px" viewBox="-117 77.775 267.263 100.225" enable-background="new -117 77.775 267.263 100.225"
	 xml:space="preserve">
<path fill="none" stroke="#EFF3F4" stroke-width="1.225" stroke-miterlimit="10" d="M-105.024,108.388
	c0,0,16.097-16.097,16.748-16.748"/>
<path fill="none" stroke="#EFF3F4" stroke-width="1.225" stroke-miterlimit="10" d="M-109.49,118.809
	c0,0,30.519-30.519,30.985-30.985"/>
<path fill="none" stroke="#EFF3F4" stroke-width="1.225" stroke-miterlimit="10" d="M-110.606,125.322
	c0,0,38.428-38.149,38.894-38.521"/>
<path fill="none" stroke="#EFF3F4" stroke-width="1.225" stroke-miterlimit="10" d="M-110.141,131.184
	c0,0,43.546-43.732,44.383-44.383"/>
<path fill="none" stroke="#EFF3F4" stroke-width="1.225" stroke-miterlimit="10" d="M-110.234,136.581
	c0,0,49.873-49.222,50.338-49.687"/>
<path fill="none" stroke="#EFF3F4" stroke-width="1.225" stroke-miterlimit="10" d="M-109.211,141.326
	c0,0,53.409-52.665,53.781-53.037"/>
<path fill="none" stroke="#EFF3F4" stroke-width="1.225" stroke-miterlimit="10" d="M-107.536,145.607
	c0,0,55.735-55.084,56.293-55.549"/>
<path fill="none" stroke="#EFF3F4" stroke-width="1.225" stroke-miterlimit="10" d="M-105.675,149.515
	c0,0,57.968-57.038,58.434-57.596"/>
<path fill="none" stroke="#EFF3F4" stroke-width="1.225" stroke-miterlimit="10" d="M-103.535,153.329
	c0,0,59.364-58.806,60.108-59.55"/>
<path fill="none" stroke="#EFF3F4" stroke-width="1.225" stroke-miterlimit="10" d="M-101.116,156.772
	c0,0,60.667-59.829,61.039-60.295"/>
<path fill="none" stroke="#EFF3F4" stroke-width="1.225" stroke-miterlimit="10" d="M-98.51,159.657
	c0,0,60.667-59.643,61.132-60.388"/>
<path fill="none" stroke="#EFF3F4" stroke-width="1.225" stroke-miterlimit="10" d="M-95.44,162.634c0,0,60.76-59.736,61.132-60.388
	"/>
<path fill="none" stroke="#EFF3F4" stroke-width="1.225" stroke-miterlimit="10" d="M-91.904,165.146
	c0,0,59.364-58.62,59.922-59.271"/>
<path fill="none" stroke="#EFF3F4" stroke-width="1.225" stroke-miterlimit="10" d="M-88.275,167.38c0,0,58.154-57.038,58.62-57.968
	"/>
<path fill="none" stroke="#EFF3F4" stroke-width="1.225" stroke-miterlimit="10" d="M-84.553,169.147c0,0,56.2-55.084,56.48-55.735"
	/>
<path fill="none" stroke="#EFF3F4" stroke-width="1.225" stroke-miterlimit="10" d="M-80.087,170.915
	c0,0,53.409-52.665,53.781-52.944"/>
<path fill="none" stroke="#EFF3F4" stroke-width="1.225" stroke-miterlimit="10" d="M-75.342,172.032
	c0,0,49.315-48.757,49.966-49.408"/>
<path fill="none" stroke="#EFF3F4" stroke-width="1.225" stroke-miterlimit="10" d="M-70.503,172.962
	c0,0,44.756-44.383,45.407-44.849"/>
<path fill="none" stroke="#EFF3F4" stroke-width="1.225" stroke-miterlimit="10" d="M-64.548,172.962
	c0,0,39.08-38.428,39.731-38.987"/>
<path fill="none" stroke="#EFF3F4" stroke-width="1.225" stroke-miterlimit="10" d="M-57.011,171.194
	c0,0,30.054-29.496,30.706-30.147"/>
<path fill="none" stroke="#EFF3F4" stroke-width="1.225" stroke-miterlimit="10" d="M-47.428,167.659
	c0,0,16.469-16.004,16.842-16.562"/>
<text transform="matrix(1 0 0 1 -15.3008 133.5346)" fill="#333333" font-family="'Curator Bold'" font-size="16">For trade</text>
<g>
	<path fill="#2490A9" d="M-89.253,145.307c-0.227,0-0.45-0.102-0.608-0.271c-0.163-0.171-0.253-0.407-0.253-0.648v-35.274h0.002
		c0-0.499,0.385-0.92,0.858-0.92c0.473,0,0.855,0.421,0.855,0.92v34.358h38.453c0.474,0,0.86,0.408,0.86,0.915
		c0,0.498-0.385,0.919-0.86,0.919H-89.253z"/>
	<path fill="#2490A9" d="M-79.203,139.285c0,0.976-0.749,1.773-1.665,1.773h-3.165c-0.912,0-1.656-0.797-1.656-1.773v-3.751
		c0-0.976,0.744-1.772,1.656-1.772h3.165c0.916,0,1.665,0.796,1.665,1.772V139.285z"/>
	<path fill="#2490A9" d="M-70.956,139.285c0,0.976-0.748,1.773-1.662,1.773h-3.165c-0.916,0-1.662-0.797-1.662-1.773v-11.781
		c0-0.976,0.747-1.774,1.662-1.774h3.165c0.914,0,1.662,0.798,1.662,1.774V139.285z"/>
	<path fill="#2490A9" d="M-54.037,139.185c0,1.033-0.786,1.873-1.749,1.873h-2.988c-0.963,0-1.751-0.84-1.751-1.873v-15.331
		c0-1.028,0.788-1.873,1.751-1.873h2.988c0.963,0,1.749,0.845,1.749,1.873V139.185z"/>
	<path fill="#2490A9" d="M-62.709,139.285c0,0.976-0.749,1.773-1.659,1.773h-3.172c-0.911,0-1.66-0.797-1.66-1.773v-8.131
		c0-0.98,0.749-1.773,1.66-1.773h3.172c0.91,0,1.659,0.792,1.659,1.773V139.285z"/>
	<path fill="#2490A9" d="M-55.367,110.991l-6.315,0.74l2.084,2.219l-6.849,8.95l-7.107-7.02c-0.488-0.477-1.237-0.485-1.731-0.014
		l-10.438,10.084c-0.529,0.498-0.567,1.37-0.092,1.935c0.251,0.298,0.601,0.449,0.951,0.449c0.307,0,0.613-0.117,0.859-0.354h-0.002
		l9.577-9.243l7.243,7.155c0.26,0.262,0.611,0.394,0.958,0.367c0.35-0.022,0.682-0.21,0.906-0.498l7.543-9.865l1.729,1.847
		L-55.367,110.991z"/>
</g>
</svg>
