
<svg version="1.1" id="Layer_1" xmlns="http://www.w3.org/2000/svg" xmlns:xlink="http://www.w3.org/1999/xlink" x="0px" y="0px"
	 width="267.263px" height="100.225px" viewBox="-117 77.775 267.263 100.225" enable-background="new -117 77.775 267.263 100.225"
	 xml:space="preserve">
<path fill="none" stroke="#EFF3F4" stroke-width="1.225" stroke-miterlimit="10" d="M-105.024,108.388
	c0,0,16.097-16.097,16.748-16.748"/>
<path fill="none" stroke="#EFF3F4" stroke-width="1.225" stroke-miterlimit="10" d="M-109.49,118.809
	c0,0,30.519-30.519,30.985-30.985"/>
<path fill="none" stroke="#EFF3F4" stroke-width="1.225" stroke-miterlimit="10" d="M-110.606,125.322
	c0,0,38.428-38.149,38.894-38.521"/>
<path fill="none" stroke="#EFF3F4" stroke-width="1.225" stroke-miterlimit="10" d="M-110.141,131.184
	c0,0,43.546-43.732,44.383-44.383"/>
<path fill="none" stroke="#EFF3F4" stroke-width="1.225" stroke-miterlimit="10" d="M-110.234,136.581
	c0,0,49.873-49.222,50.338-49.687"/>
<path fill="none" stroke="#EFF3F4" stroke-width="1.225" stroke-miterlimit="10" d="M-109.211,141.326
	c0,0,53.409-52.665,53.781-53.037"/>
<path fill="none" stroke="#EFF3F4" stroke-width="1.225" stroke-miterlimit="10" d="M-107.536,145.607
	c0,0,55.735-55.084,56.293-55.549"/>
<path fill="none" stroke="#EFF3F4" stroke-width="1.225" stroke-miterlimit="10" d="M-105.675,149.515
	c0,0,57.968-57.038,58.434-57.596"/>
<path fill="none" stroke="#EFF3F4" stroke-width="1.225" stroke-miterlimit="10" d="M-103.535,153.329
	c0,0,59.364-58.806,60.108-59.55"/>
<path fill="none" stroke="#EFF3F4" stroke-width="1.225" stroke-miterlimit="10" d="M-101.116,156.772
	c0,0,60.667-59.829,61.039-60.295"/>
<path fill="none" stroke="#EFF3F4" stroke-width="1.225" stroke-miterlimit="10" d="M-98.51,159.657
	c0,0,60.667-59.643,61.132-60.388"/>
<path fill="none" stroke="#EFF3F4" stroke-width="1.225" stroke-miterlimit="10" d="M-95.44,162.634c0,0,60.76-59.736,61.132-60.388
	"/>
<path fill="none" stroke="#EFF3F4" stroke-width="1.225" stroke-miterlimit="10" d="M-91.904,165.146
	c0,0,59.364-58.62,59.922-59.271"/>
<path fill="none" stroke="#EFF3F4" stroke-width="1.225" stroke-miterlimit="10" d="M-88.275,167.38c0,0,58.154-57.038,58.62-57.968
	"/>
<path fill="none" stroke="#EFF3F4" stroke-width="1.225" stroke-miterlimit="10" d="M-84.553,169.147c0,0,56.2-55.084,56.48-55.735"
	/>
<path fill="none" stroke="#EFF3F4" stroke-width="1.225" stroke-miterlimit="10" d="M-80.087,170.915
	c0,0,53.409-52.665,53.781-52.944"/>
<path fill="none" stroke="#EFF3F4" stroke-width="1.225" stroke-miterlimit="10" d="M-75.342,172.032
	c0,0,49.315-48.757,49.966-49.408"/>
<path fill="none" stroke="#EFF3F4" stroke-width="1.225" stroke-miterlimit="10" d="M-70.503,172.962
	c0,0,44.756-44.383,45.407-44.849"/>
<path fill="none" stroke="#EFF3F4" stroke-width="1.225" stroke-miterlimit="10" d="M-64.548,172.962
	c0,0,39.08-38.428,39.731-38.987"/>
<path fill="none" stroke="#EFF3F4" stroke-width="1.225" stroke-miterlimit="10" d="M-57.011,171.194
	c0,0,30.054-29.496,30.706-30.147"/>
<path fill="none" stroke="#EFF3F4" stroke-width="1.225" stroke-miterlimit="10" d="M-47.428,167.659
	c0,0,16.469-16.004,16.842-16.562"/>
<text transform="matrix(1 0 0 1 -15.3008 135.6296)" fill="#333333" font-family="'Curator Bold'" font-size="16">SME Loan Assistance</text>
<g>
	<path fill="#2490A9" d="M-37.54,121.734c-1.339,0-2.424,1.085-2.424,2.427c0,1.342,1.085,2.426,2.424,2.426
		c1.34,0,2.429-1.085,2.429-2.426C-35.117,122.819-36.199,121.734-37.54,121.734z M-63.561,121.734
		c-1.339,0-2.424,1.085-2.424,2.427c0,1.342,1.085,2.426,2.424,2.426c1.341,0,2.429-1.085,2.429-2.426
		C-61.138,122.819-62.22,121.734-63.561,121.734z M-50.548,115.158c-4.407,0-7.987,4.031-7.987,9.002s3.58,9.002,7.987,9.002
		s7.983-4.031,7.983-9.002C-42.569,119.19-46.142,115.158-50.548,115.158z"/>
	<path fill="#2490A9" d="M-40.999,136.9c0-0.57,0.176-1.097,0.461-1.544h-24.618c-0.415-2.034-2.01-3.635-4.037-4.051v-13.918
		c2.056-0.418,3.66-2.063,4.043-4.132h29.14c0.386,2.088,2.02,3.737,4.105,4.137v9.315h2.621V112.09
		c0-0.802-0.659-1.457-1.456-1.457h-39.616c-0.802,0-1.459,0.654-1.459,1.457v24.428c0,0.8,0.657,1.459,1.459,1.459h29.572
		C-40.923,137.643-40.999,137.282-40.999,136.9z"/>
	<path fill="#2490A9" d="M-60.087,136.9c0-0.57-0.176-1.097-0.461-1.544h24.618c0.415-2.034,2.01-3.635,4.037-4.051v-13.918
		c-2.056-0.418-3.66-2.063-4.043-4.132h-29.14c-0.386,2.088-2.02,3.737-4.105,4.137v9.315h-2.621V112.09
		c0-0.802,0.659-1.457,1.456-1.457h39.616c0.802,0,1.459,0.654,1.459,1.457v24.428c0,0.8-0.657,1.459-1.459,1.459h-29.572
		C-60.164,137.643-60.087,137.282-60.087,136.9z"/>
</g>
<g>
	<path fill="#FFFFFF" d="M-48.537,129.035c-0.317,0.317-0.77,0.544-1.374,0.619v1.646h-1.163v-1.631
		c-0.619-0.076-1.103-0.286-1.45-0.634c-0.499-0.498-0.665-1.118-0.665-2.265h1.299c0,0.71,0.076,1.103,0.363,1.405
		c0.105,0.12,0.257,0.211,0.453,0.271v-3.956l-0.574-0.242c-1.102-0.468-1.465-1.057-1.465-2.688c0-0.936,0.272-1.706,0.815-2.204
		c0.333-0.302,0.725-0.498,1.223-0.589v-1.359h1.163v1.359c0.559,0.076,0.996,0.271,1.313,0.589c0.544,0.529,0.71,1.223,0.71,2.204
		h-1.299c0-0.574-0.061-0.966-0.332-1.299c-0.105-0.12-0.226-0.211-0.392-0.286v3.549l0.543,0.227
		c1.223,0.513,1.51,1.253,1.51,2.944C-47.857,127.812-48.024,128.522-48.537,129.035z M-51.073,119.976
		c-0.151,0.06-0.272,0.151-0.362,0.257c-0.257,0.286-0.378,0.725-0.378,1.284c0,0.921,0.121,1.284,0.74,1.601V119.976z
		 M-49.911,124.898v3.533c0.166-0.061,0.302-0.151,0.408-0.272c0.287-0.317,0.347-0.725,0.347-1.434
		C-49.156,125.653-49.307,125.23-49.911,124.898z"/>
</g>
<g>
	<g>
		<path fill="#2490A9" d="M-78.446,144.98l4.734,3.282c0.252,0.126,0.442,0.252,0.694,0.379c0.316,0.126,0.631,0.126,0.884,0.126
			c0.947,0,1.83-0.442,2.398-1.262c0.884-1.325,0.568-3.093-0.757-4.039l-12.876-8.962c-0.505-0.316-1.073-0.505-1.641-0.505h-15.4
			h-2.083h-2.903v2.525v0.316v0.063v0.063v6.69h4.986h11.55l13.002,9.089c0.505,0.316,1.073,0.505,1.641,0.505h14.958
			c1.578,0,2.903-1.325,2.903-2.903s-1.325-2.903-2.903-2.903h-9.026c-0.126,0.252-0.252,0.442-0.379,0.694
			c-0.757,1.136-2.02,1.83-3.408,1.83c-0.82,0-1.641-0.252-2.335-0.694l-5.175-3.724l0,0l-1.893-1.325l-0.189-0.126
			c-0.252-0.126-0.316-0.442-0.126-0.694c0.126-0.252,0.442-0.316,0.694-0.126"/>
	</g>
</g>
</svg>
