
<svg version="1.1" id="Layer_1" xmlns="http://www.w3.org/2000/svg" xmlns:xlink="http://www.w3.org/1999/xlink" x="0px" y="0px"
	 width="267.263px" height="100.225px" viewBox="-117 77.775 267.263 100.225" enable-background="new -117 77.775 267.263 100.225"
	 xml:space="preserve">
<path fill="none" stroke="#EFF3F4" stroke-width="1.225" stroke-miterlimit="10" d="M-105.024,108.388
	c0,0,16.097-16.097,16.748-16.748"/>
<path fill="none" stroke="#EFF3F4" stroke-width="1.225" stroke-miterlimit="10" d="M-109.49,118.809
	c0,0,30.519-30.519,30.985-30.985"/>
<path fill="none" stroke="#EFF3F4" stroke-width="1.225" stroke-miterlimit="10" d="M-110.606,125.322
	c0,0,38.428-38.149,38.894-38.521"/>
<path fill="none" stroke="#EFF3F4" stroke-width="1.225" stroke-miterlimit="10" d="M-110.141,131.184
	c0,0,43.546-43.732,44.383-44.383"/>
<path fill="none" stroke="#EFF3F4" stroke-width="1.225" stroke-miterlimit="10" d="M-110.234,136.581
	c0,0,49.873-49.222,50.338-49.687"/>
<path fill="none" stroke="#EFF3F4" stroke-width="1.225" stroke-miterlimit="10" d="M-109.211,141.326
	c0,0,53.409-52.665,53.781-53.037"/>
<path fill="none" stroke="#EFF3F4" stroke-width="1.225" stroke-miterlimit="10" d="M-107.536,145.607
	c0,0,55.735-55.084,56.293-55.549"/>
<path fill="none" stroke="#EFF3F4" stroke-width="1.225" stroke-miterlimit="10" d="M-105.675,149.515
	c0,0,57.968-57.038,58.434-57.596"/>
<path fill="none" stroke="#EFF3F4" stroke-width="1.225" stroke-miterlimit="10" d="M-103.535,153.329
	c0,0,59.364-58.806,60.108-59.55"/>
<path fill="none" stroke="#EFF3F4" stroke-width="1.225" stroke-miterlimit="10" d="M-101.116,156.772
	c0,0,60.667-59.829,61.039-60.295"/>
<path fill="none" stroke="#EFF3F4" stroke-width="1.225" stroke-miterlimit="10" d="M-98.51,159.657
	c0,0,60.667-59.643,61.132-60.388"/>
<path fill="none" stroke="#EFF3F4" stroke-width="1.225" stroke-miterlimit="10" d="M-95.44,162.634c0,0,60.76-59.736,61.132-60.388
	"/>
<path fill="none" stroke="#EFF3F4" stroke-width="1.225" stroke-miterlimit="10" d="M-91.904,165.146
	c0,0,59.364-58.62,59.922-59.271"/>
<path fill="none" stroke="#EFF3F4" stroke-width="1.225" stroke-miterlimit="10" d="M-88.275,167.38c0,0,58.154-57.038,58.62-57.968
	"/>
<path fill="none" stroke="#EFF3F4" stroke-width="1.225" stroke-miterlimit="10" d="M-84.553,169.147c0,0,56.2-55.084,56.48-55.735"
	/>
<path fill="none" stroke="#EFF3F4" stroke-width="1.225" stroke-miterlimit="10" d="M-80.087,170.915
	c0,0,53.409-52.665,53.781-52.944"/>
<path fill="none" stroke="#EFF3F4" stroke-width="1.225" stroke-miterlimit="10" d="M-75.342,172.032
	c0,0,49.315-48.757,49.966-49.408"/>
<path fill="none" stroke="#EFF3F4" stroke-width="1.225" stroke-miterlimit="10" d="M-70.503,172.962
	c0,0,44.756-44.383,45.407-44.849"/>
<path fill="none" stroke="#EFF3F4" stroke-width="1.225" stroke-miterlimit="10" d="M-64.548,172.962
	c0,0,39.08-38.428,39.731-38.987"/>
<path fill="none" stroke="#EFF3F4" stroke-width="1.225" stroke-miterlimit="10" d="M-57.011,171.194
	c0,0,30.054-29.496,30.706-30.147"/>
<path fill="none" stroke="#EFF3F4" stroke-width="1.225" stroke-miterlimit="10" d="M-47.428,167.659
	c0,0,16.469-16.004,16.842-16.562"/>
<text transform="matrix(1 0 0 1 -15.3008 115.868)" enable-background="new    "><tspan x="0" y="0" fill="#333333" font-family="'Curator Bold'" font-size="16">Defer foreign worker  </tspan><tspan x="0" y="19.2" fill="#333333" font-family="'Curator Bold'" font-size="16">levy raise for marine  </tspan><tspan x="0" y="38.4" fill="#333333" font-family="'Curator Bold'" font-size="16">and process sectors</tspan></text>
<g>
	<g>
		<circle fill="#2490A9" cx="-49.592" cy="114.752" r="3.239"/>
	</g>
</g>
<g>
	<g>
		<polygon fill="#2490A9" points="-49.592,122.959 -46.78,122.959 -46.78,118.496 -44.656,118.496 -44.656,131.88 -44.005,134.02 
			-44.005,154.014 -49.006,154.014 -49.006,136.294 -49.592,136.294 -50.248,136.294 -50.248,154.014 -55.18,154.014 
			-55.18,133.903 -54.529,131.852 -54.529,118.496 -52.453,118.496 -52.453,122.959 		"/>
		<path fill="#2490A9" d="M-55.616,128.559l-1.826,7.219l-1.677,0.538l-0.94-1.204c0,0,2.743-12.908,3.542-15.125
			c0.186-0.518,0.491-0.89,0.901-1.158V128.559z"/>
		<path fill="#2490A9" d="M-43.641,128.559l1.826,7.219l1.677,0.538l0.94-1.204c0,0-2.743-12.908-3.542-15.125
			c-0.186-0.518-0.491-0.89-0.901-1.158V128.559z"/>
	</g>
</g>
<path fill-rule="evenodd" clip-rule="evenodd" fill="#2490A9" d="M-80.315,100.7c-9.727,0-17.616,7.889-17.616,17.615
	c0,9.728,7.889,17.617,17.616,17.617c9.727,0,17.616-7.889,17.616-17.617C-62.699,108.588-70.588,100.7-80.315,100.7z
	 M-88.082,118.461c0-1.655,0.149-3.379,0.469-5.07h6.254v9.854l-6.304,0C-87.946,121.646-88.082,120.023-88.082,118.461z
	 M-74.768,108.04c0.432,0.853,0.787,1.758,1.085,2.691h-5.586v-7.184l0.481,0.194C-76.987,104.465-75.618,106.36-74.768,108.04z
	 M-81.84,103.741l0.481-0.194v7.184h-5.586c0.297-0.932,0.653-1.838,1.085-2.691C-85.011,106.36-83.641,104.465-81.84,103.741z
	 M-81.359,125.891v7.485l-0.481-0.194c-1.801-0.725-3.171-2.619-4.02-4.299c-0.478-0.944-0.86-1.954-1.174-2.993L-81.359,125.891z
	 M-78.789,133.182l-0.481,0.194v-7.485l5.676,0c-0.314,1.039-0.696,2.048-1.174,2.992
	C-75.618,130.563-76.987,132.457-78.789,133.182z M-79.27,123.245v-9.854h6.255c0.32,1.691,0.469,3.415,0.469,5.07
	c0,1.562-0.137,3.186-0.42,4.785L-79.27,123.245z M-70.898,113.391h5.717c0.505,1.551,0.786,3.204,0.786,4.923
	c0,1.723-0.282,3.378-0.788,4.932l-5.664,0c0.261-1.599,0.389-3.216,0.389-4.785C-70.459,116.799-70.604,115.083-70.898,113.391z
	 M-66.316,110.731h-5.191c-0.363-1.262-0.818-2.487-1.398-3.633c-0.755-1.493-1.801-3.004-3.133-4.104
	C-71.849,104.163-68.35,106.986-66.316,110.731z M-84.585,102.993c-1.335,1.1-2.384,2.612-3.139,4.105
	c-0.579,1.146-1.035,2.371-1.398,3.633h-5.192C-92.279,106.984-88.777,104.16-84.585,102.993z M-95.448,113.391h5.717
	c-0.295,1.692-0.44,3.408-0.44,5.07c0,1.569,0.128,3.185,0.389,4.784l-5.664,0c-0.506-1.554-0.788-3.208-0.788-4.931
	C-96.234,116.595-95.953,114.943-95.448,113.391z M-94.318,125.89l5.105,0c0.374,1.37,0.862,2.697,1.488,3.935
	c0.665,1.314,1.558,2.642,2.673,3.692C-89.041,132.275-92.358,129.504-94.318,125.89z M-75.577,133.517
	c1.115-1.05,2.007-2.378,2.672-3.691c0.626-1.237,1.114-2.565,1.488-3.934l5.104,0C-68.272,129.504-71.588,132.274-75.577,133.517z"
	/>
</svg>
