
<svg version="1.1" id="Layer_1" xmlns="http://www.w3.org/2000/svg" xmlns:xlink="http://www.w3.org/1999/xlink" x="0px" y="0px"
	 width="267.263px" height="100.225px" viewBox="-117 77.775 267.263 100.225" enable-background="new -117 77.775 267.263 100.225"
	 xml:space="preserve">
<path fill="none" stroke="#EFF3F4" stroke-width="1.225" stroke-miterlimit="10" d="M-105.024,108.388
	c0,0,16.097-16.097,16.748-16.748"/>
<path fill="none" stroke="#EFF3F4" stroke-width="1.225" stroke-miterlimit="10" d="M-109.49,118.809
	c0,0,30.519-30.519,30.985-30.985"/>
<path fill="none" stroke="#EFF3F4" stroke-width="1.225" stroke-miterlimit="10" d="M-110.606,125.322
	c0,0,38.428-38.149,38.894-38.521"/>
<path fill="none" stroke="#EFF3F4" stroke-width="1.225" stroke-miterlimit="10" d="M-110.141,131.184
	c0,0,43.546-43.732,44.383-44.383"/>
<path fill="none" stroke="#EFF3F4" stroke-width="1.225" stroke-miterlimit="10" d="M-110.234,136.581
	c0,0,49.873-49.222,50.338-49.687"/>
<path fill="none" stroke="#EFF3F4" stroke-width="1.225" stroke-miterlimit="10" d="M-109.211,141.326
	c0,0,53.409-52.665,53.781-53.037"/>
<path fill="none" stroke="#EFF3F4" stroke-width="1.225" stroke-miterlimit="10" d="M-107.536,145.607
	c0,0,55.735-55.084,56.293-55.549"/>
<path fill="none" stroke="#EFF3F4" stroke-width="1.225" stroke-miterlimit="10" d="M-105.675,149.515
	c0,0,57.968-57.038,58.434-57.596"/>
<path fill="none" stroke="#EFF3F4" stroke-width="1.225" stroke-miterlimit="10" d="M-103.535,153.329
	c0,0,59.364-58.806,60.108-59.55"/>
<path fill="none" stroke="#EFF3F4" stroke-width="1.225" stroke-miterlimit="10" d="M-101.116,156.772
	c0,0,60.667-59.829,61.039-60.295"/>
<path fill="none" stroke="#EFF3F4" stroke-width="1.225" stroke-miterlimit="10" d="M-98.51,159.657
	c0,0,60.667-59.643,61.132-60.388"/>
<path fill="none" stroke="#EFF3F4" stroke-width="1.225" stroke-miterlimit="10" d="M-95.44,162.634c0,0,60.76-59.736,61.132-60.388
	"/>
<path fill="none" stroke="#EFF3F4" stroke-width="1.225" stroke-miterlimit="10" d="M-91.904,165.146
	c0,0,59.364-58.62,59.922-59.271"/>
<path fill="none" stroke="#EFF3F4" stroke-width="1.225" stroke-miterlimit="10" d="M-88.275,167.38c0,0,58.154-57.038,58.62-57.968
	"/>
<path fill="none" stroke="#EFF3F4" stroke-width="1.225" stroke-miterlimit="10" d="M-84.553,169.147c0,0,56.2-55.084,56.48-55.735"
	/>
<path fill="none" stroke="#EFF3F4" stroke-width="1.225" stroke-miterlimit="10" d="M-80.087,170.915
	c0,0,53.409-52.665,53.781-52.944"/>
<path fill="none" stroke="#EFF3F4" stroke-width="1.225" stroke-miterlimit="10" d="M-75.342,172.032
	c0,0,49.315-48.757,49.966-49.408"/>
<path fill="none" stroke="#EFF3F4" stroke-width="1.225" stroke-miterlimit="10" d="M-70.503,172.962
	c0,0,44.756-44.383,45.407-44.849"/>
<path fill="none" stroke="#EFF3F4" stroke-width="1.225" stroke-miterlimit="10" d="M-64.548,172.962
	c0,0,39.08-38.428,39.731-38.987"/>
<path fill="none" stroke="#EFF3F4" stroke-width="1.225" stroke-miterlimit="10" d="M-57.011,171.194
	c0,0,30.054-29.496,30.706-30.147"/>
<path fill="none" stroke="#EFF3F4" stroke-width="1.225" stroke-miterlimit="10" d="M-47.428,167.659
	c0,0,16.469-16.004,16.842-16.562"/>
<text transform="matrix(1 0 0 1 -15.3008 135.6296)" fill="#333333" font-family="'Curator Bold'" font-size="16">For households</text>
<rect x="-92.615" y="110.5" fill="#2D96B2" width="33.231" height="43.319"/>
<polygon fill="#2D96B2" points="-38.578,153.819 -57.128,153.819 -57.128,142.399 -47.853,136.708 -38.578,142.399 "/>
<rect x="-93.697" y="118.278" fill="#2D96B2" width="35.583" height="1.833"/>
<rect x="-90.863" y="113.695" fill="#FFFFFF" width="3.333" height="2.5"/>
<rect x="-69.53" y="113.695" fill="#FFFFFF" width="3.333" height="2.5"/>
<rect x="-93.697" y="126.522" fill="#2D96B2" width="35.583" height="1.833"/>
<rect x="-90.863" y="121.939" fill="#FFFFFF" width="3.333" height="2.5"/>
<rect x="-69.53" y="121.939" fill="#FFFFFF" width="3.333" height="2.5"/>
<rect x="-93.697" y="134.767" fill="#2D96B2" width="35.583" height="1.833"/>
<rect x="-90.863" y="130.184" fill="#FFFFFF" width="3.333" height="2.5"/>
<rect x="-69.53" y="130.184" fill="#FFFFFF" width="3.333" height="2.5"/>
<rect x="-93.697" y="143.012" fill="#2D96B2" width="35.583" height="1.833"/>
<rect x="-90.863" y="138.428" fill="#FFFFFF" width="3.333" height="2.5"/>
<rect x="-86.363" y="113.695" fill="#FFFFFF" width="3.333" height="2.5"/>
<rect x="-86.363" y="121.939" fill="#FFFFFF" width="3.333" height="2.5"/>
<rect x="-86.363" y="130.184" fill="#FFFFFF" width="3.333" height="2.5"/>
<rect x="-86.363" y="138.428" fill="#FFFFFF" width="3.333" height="2.5"/>
<rect x="-69.53" y="138.428" fill="#FFFFFF" width="3.333" height="2.5"/>
<rect x="-65.238" y="113.695" fill="#FFFFFF" width="3.333" height="2.5"/>
<rect x="-65.238" y="121.939" fill="#FFFFFF" width="3.333" height="2.5"/>
<rect x="-65.238" y="130.184" fill="#FFFFFF" width="3.333" height="2.5"/>
<rect x="-65.238" y="138.428" fill="#FFFFFF" width="3.333" height="2.5"/>
<rect x="-80.405" y="109.278" fill="#2D96B2" width="7.802" height="45.763"/>
<rect x="-74.854" y="110.53" fill="#2D96B2" width="1.333" height="43.833"/>
</svg>
