
<svg version="1.1" id="Layer_1" xmlns="http://www.w3.org/2000/svg" xmlns:xlink="http://www.w3.org/1999/xlink" x="0px" y="0px"
	 width="267.263px" height="100.225px" viewBox="-117 77.775 267.263 100.225" enable-background="new -117 77.775 267.263 100.225"
	 xml:space="preserve">
<path fill="none" stroke="#EFF3F4" stroke-width="1.225" stroke-miterlimit="10" d="M-105.024,108.388
	c0,0,16.097-16.097,16.748-16.748"/>
<path fill="none" stroke="#EFF3F4" stroke-width="1.225" stroke-miterlimit="10" d="M-109.49,118.809
	c0,0,30.519-30.519,30.985-30.985"/>
<path fill="none" stroke="#EFF3F4" stroke-width="1.225" stroke-miterlimit="10" d="M-110.606,125.322
	c0,0,38.428-38.149,38.894-38.521"/>
<path fill="none" stroke="#EFF3F4" stroke-width="1.225" stroke-miterlimit="10" d="M-110.141,131.184
	c0,0,43.546-43.732,44.383-44.383"/>
<path fill="none" stroke="#EFF3F4" stroke-width="1.225" stroke-miterlimit="10" d="M-110.234,136.581
	c0,0,49.873-49.222,50.338-49.687"/>
<path fill="none" stroke="#EFF3F4" stroke-width="1.225" stroke-miterlimit="10" d="M-109.211,141.326
	c0,0,53.409-52.665,53.781-53.037"/>
<path fill="none" stroke="#EFF3F4" stroke-width="1.225" stroke-miterlimit="10" d="M-107.536,145.607
	c0,0,55.735-55.084,56.293-55.549"/>
<path fill="none" stroke="#EFF3F4" stroke-width="1.225" stroke-miterlimit="10" d="M-105.675,149.515
	c0,0,57.968-57.038,58.434-57.596"/>
<path fill="none" stroke="#EFF3F4" stroke-width="1.225" stroke-miterlimit="10" d="M-103.535,153.329
	c0,0,59.364-58.806,60.108-59.55"/>
<path fill="none" stroke="#EFF3F4" stroke-width="1.225" stroke-miterlimit="10" d="M-101.116,156.772
	c0,0,60.667-59.829,61.039-60.295"/>
<path fill="none" stroke="#EFF3F4" stroke-width="1.225" stroke-miterlimit="10" d="M-98.51,159.657
	c0,0,60.667-59.643,61.132-60.388"/>
<path fill="none" stroke="#EFF3F4" stroke-width="1.225" stroke-miterlimit="10" d="M-95.44,162.634c0,0,60.76-59.736,61.132-60.388
	"/>
<path fill="none" stroke="#EFF3F4" stroke-width="1.225" stroke-miterlimit="10" d="M-91.904,165.146
	c0,0,59.364-58.62,59.922-59.271"/>
<path fill="none" stroke="#EFF3F4" stroke-width="1.225" stroke-miterlimit="10" d="M-88.275,167.38c0,0,58.154-57.038,58.62-57.968
	"/>
<path fill="none" stroke="#EFF3F4" stroke-width="1.225" stroke-miterlimit="10" d="M-84.553,169.147c0,0,56.2-55.084,56.48-55.735"
	/>
<path fill="none" stroke="#EFF3F4" stroke-width="1.225" stroke-miterlimit="10" d="M-80.087,170.915
	c0,0,53.409-52.665,53.781-52.944"/>
<path fill="none" stroke="#EFF3F4" stroke-width="1.225" stroke-miterlimit="10" d="M-75.342,172.032
	c0,0,49.315-48.757,49.966-49.408"/>
<path fill="none" stroke="#EFF3F4" stroke-width="1.225" stroke-miterlimit="10" d="M-70.503,172.962
	c0,0,44.756-44.383,45.407-44.849"/>
<path fill="none" stroke="#EFF3F4" stroke-width="1.225" stroke-miterlimit="10" d="M-64.548,172.962
	c0,0,39.08-38.428,39.731-38.987"/>
<path fill="none" stroke="#EFF3F4" stroke-width="1.225" stroke-miterlimit="10" d="M-57.011,171.194
	c0,0,30.054-29.496,30.706-30.147"/>
<path fill="none" stroke="#EFF3F4" stroke-width="1.225" stroke-miterlimit="10" d="M-47.428,167.659
	c0,0,16.469-16.004,16.842-16.562"/>
<text transform="matrix(1 0 0 1 -15.3008 136.5346)" fill="#333333" font-family="'Curator Bold'" font-size="16">For innovators</text>
<path fill="#2490A9" d="M-65.587,122.07v-3.264l-0.466-0.117l-3.497-1.166l-0.932-2.331l1.865-3.847l-2.331-2.331l-0.466,0.233
	l-3.264,1.632l-2.331-0.933l-1.399-3.963h-3.264l-0.117,0.466l-1.166,3.497l-2.215,0.933l-3.847-1.865l-2.331,2.331l0.233,0.466
	l1.632,3.264l-0.933,2.215l-3.963,1.399v3.264l0.466,0.117l3.497,1.166l0.933,2.331l-1.865,3.847l2.331,2.331l0.466-0.233
	l3.264-1.632l2.331,0.933l1.399,3.963h3.264l0.117-0.466l1.166-3.497l2.215-0.933l3.846,1.865l2.331-2.331l-0.233-0.466
	l-1.632-3.264l0.932-2.331L-65.587,122.07z M-80.157,125.101c-2.564,0-4.662-2.098-4.662-4.662c0-2.564,2.098-4.662,4.662-4.662
	c2.564,0,4.662,2.098,4.662,4.662C-75.495,123.002-77.593,125.101-80.157,125.101z"/>
<g>
	<g>
		<g>
			<polygon fill="#2490A9" points="-60.342,128.947 -58.244,137.223 -56.029,137.223 -53.931,128.947 			"/>
		</g>
	</g>
	<g>
		<rect x="-59.293" y="147.714" fill="#2490A9" width="3.613" height="2.797"/>
	</g>
	<g>
		<path fill="#2490A9" d="M-51.6,140.02h-11.773v6.761l2.564,2.564h6.644l0.466-0.466l2.098-2.098V140.02L-51.6,140.02z
			 M-54.398,145.499l-0.932,0.933h-4.313l-0.933-0.933v-2.681h6.178V145.499z"/>
	</g>
	<g>
		<path fill="#2490A9" d="M-63.839,143.051l2.797-0.583l-1.282-5.478l-0.35-0.35c-1.865-1.515-3.031-3.847-3.031-6.294
			c0-4.546,3.73-8.159,8.159-8.159c4.546,0,8.159,3.73,8.159,8.159c0,2.448-1.049,4.779-2.914,6.294l-0.35,0.35l-1.282,5.478
			l2.798,0.583l1.049-4.546l0,0c2.331-2.098,3.613-5.012,3.613-8.159c0-6.061-4.896-11.073-11.073-11.073
			c-6.061,0-11.073,4.896-11.073,11.073c0,3.147,1.282,6.061,3.613,8.159l0,0L-63.839,143.051z"/>
	</g>
</g>
</svg>
