
<svg version="1.1" id="Layer_1" xmlns="http://www.w3.org/2000/svg" xmlns:xlink="http://www.w3.org/1999/xlink" x="0px" y="0px"
	 width="267.263px" height="100.225px" viewBox="-117 77.775 267.263 100.225" enable-background="new -117 77.775 267.263 100.225"
	 xml:space="preserve">
<path fill="none" stroke="#EFF3F4" stroke-width="1.225" stroke-miterlimit="10" d="M-105.024,108.388
	c0,0,16.097-16.097,16.748-16.748"/>
<path fill="none" stroke="#EFF3F4" stroke-width="1.225" stroke-miterlimit="10" d="M-109.49,118.809
	c0,0,30.519-30.519,30.985-30.985"/>
<path fill="none" stroke="#EFF3F4" stroke-width="1.225" stroke-miterlimit="10" d="M-110.606,125.322
	c0,0,38.428-38.149,38.894-38.521"/>
<path fill="none" stroke="#EFF3F4" stroke-width="1.225" stroke-miterlimit="10" d="M-110.141,131.184
	c0,0,43.546-43.732,44.383-44.383"/>
<path fill="none" stroke="#EFF3F4" stroke-width="1.225" stroke-miterlimit="10" d="M-110.234,136.581
	c0,0,49.873-49.222,50.338-49.687"/>
<path fill="none" stroke="#EFF3F4" stroke-width="1.225" stroke-miterlimit="10" d="M-109.211,141.326
	c0,0,53.409-52.665,53.781-53.037"/>
<path fill="none" stroke="#EFF3F4" stroke-width="1.225" stroke-miterlimit="10" d="M-107.536,145.607
	c0,0,55.735-55.084,56.293-55.549"/>
<path fill="none" stroke="#EFF3F4" stroke-width="1.225" stroke-miterlimit="10" d="M-105.675,149.515
	c0,0,57.968-57.038,58.434-57.596"/>
<path fill="none" stroke="#EFF3F4" stroke-width="1.225" stroke-miterlimit="10" d="M-103.535,153.329
	c0,0,59.364-58.806,60.108-59.55"/>
<path fill="none" stroke="#EFF3F4" stroke-width="1.225" stroke-miterlimit="10" d="M-101.116,156.772
	c0,0,60.667-59.829,61.039-60.295"/>
<path fill="none" stroke="#EFF3F4" stroke-width="1.225" stroke-miterlimit="10" d="M-98.51,159.657
	c0,0,60.667-59.643,61.132-60.388"/>
<path fill="none" stroke="#EFF3F4" stroke-width="1.225" stroke-miterlimit="10" d="M-95.44,162.634c0,0,60.76-59.736,61.132-60.388
	"/>
<path fill="none" stroke="#EFF3F4" stroke-width="1.225" stroke-miterlimit="10" d="M-91.904,165.146
	c0,0,59.364-58.62,59.922-59.271"/>
<path fill="none" stroke="#EFF3F4" stroke-width="1.225" stroke-miterlimit="10" d="M-88.275,167.38c0,0,58.154-57.038,58.62-57.968
	"/>
<path fill="none" stroke="#EFF3F4" stroke-width="1.225" stroke-miterlimit="10" d="M-84.553,169.147c0,0,56.2-55.084,56.48-55.735"
	/>
<path fill="none" stroke="#EFF3F4" stroke-width="1.225" stroke-miterlimit="10" d="M-80.087,170.915
	c0,0,53.409-52.665,53.781-52.944"/>
<path fill="none" stroke="#EFF3F4" stroke-width="1.225" stroke-miterlimit="10" d="M-75.342,172.032
	c0,0,49.315-48.757,49.966-49.408"/>
<path fill="none" stroke="#EFF3F4" stroke-width="1.225" stroke-miterlimit="10" d="M-70.503,172.962
	c0,0,44.756-44.383,45.407-44.849"/>
<path fill="none" stroke="#EFF3F4" stroke-width="1.225" stroke-miterlimit="10" d="M-64.548,172.962
	c0,0,39.08-38.428,39.731-38.987"/>
<path fill="none" stroke="#EFF3F4" stroke-width="1.225" stroke-miterlimit="10" d="M-57.011,171.194
	c0,0,30.054-29.496,30.706-30.147"/>
<path fill="none" stroke="#EFF3F4" stroke-width="1.225" stroke-miterlimit="10" d="M-47.428,167.659
	c0,0,16.469-16.004,16.842-16.562"/>
<text transform="matrix(1 0 0 1 -15.3008 135.6296)" enable-background="new    "><tspan x="0" y="0" fill="#333333" font-family="'Curator Bold'" font-size="16">Revitalisation of  </tspan><tspan x="0" y="19.2" fill="#333333" font-family="'Curator Bold'" font-size="16">shops scheme</tspan></text>
<g>
	<path fill="#2490A9" d="M-42.478,124.375c0,2.246-1.82,4.067-4.067,4.067l0,0c-2.244,0-4.065-1.822-4.065-4.067H-42.478z"/>
	<g>
		<rect x="-91.584" y="109.283" fill="#2490A9" width="44.007" height="1.507"/>
		<polygon fill="#2490A9" points="-90.754,112.598 -96.582,122.845 -88.444,122.845 -84.324,112.598 		"/>
		<polygon fill="#2490A9" points="-78.497,112.598 -81.411,122.845 -73.372,122.845 -72.167,112.598 		"/>
		<polygon fill="#2490A9" points="-48.204,112.598 -42.377,122.845 -50.515,122.845 -54.634,112.598 		"/>
		<polygon fill="#2490A9" points="-60.463,112.598 -57.55,122.845 -65.586,122.845 -66.791,112.598 		"/>
		<path fill="#2490A9" d="M-88.548,124.375c0,2.246-1.82,4.067-4.067,4.067l0,0c-2.246,0-4.066-1.822-4.066-4.067H-88.548z"/>
		<path fill="#2490A9" d="M-73.377,124.375c0,2.246-1.82,4.067-4.067,4.067l0,0c-2.245,0-4.067-1.822-4.067-4.067H-73.377z"/>
		<path fill="#2490A9" d="M-57.649,124.375c0,2.246-1.822,4.067-4.067,4.067l0,0c-2.246,0-4.067-1.822-4.067-4.067H-57.649z"/>
		<path fill="#2490A9" d="M-46.545,129.352c-2.247,0-4.149-1.496-4.766-3.546h-5.638c-0.617,2.049-2.52,3.546-4.766,3.546
			c-2.248,0-4.15-1.496-4.766-3.546h-6.196c-0.616,2.049-2.519,3.546-4.767,3.546c-2.248,0-4.149-1.496-4.766-3.546h-5.638
			c-0.617,2.049-2.519,3.546-4.767,3.546c-0.59,0-1.155-0.109-1.681-0.297v20.478c0,0.628,0.51,1.139,1.139,1.139h47.154
			c0.629,0,1.139-0.511,1.139-1.139v-20.48C-45.39,129.243-45.954,129.352-46.545,129.352z"/>
		<rect x="-75.78" y="133.249" fill="#FFFFFF" width="12.514" height="17.317"/>
	</g>
</g>
</svg>
