<svg version="1.1" id="Layer_1" xmlns="http://www.w3.org/2000/svg" xmlns:xlink="http://www.w3.org/1999/xlink" x="0px" y="0px"	 width="267.263px" height="100.225px" viewBox="-117 77.775 267.263 100.225" enable-background="new -117 77.775 267.263 100.225"	 xml:space="preserve"><path fill="none" stroke="#EFF3F4" stroke-width="1.225" stroke-miterlimit="10" d="M-105.024,108.388	c0,0,16.097-16.097,16.748-16.748"/><path fill="none" stroke="#EFF3F4" stroke-width="1.225" stroke-miterlimit="10" d="M-109.49,118.809	c0,0,30.519-30.519,30.985-30.985"/><path fill="none" stroke="#EFF3F4" stroke-width="1.225" stroke-miterlimit="10" d="M-110.606,125.322	c0,0,38.428-38.149,38.894-38.521"/><path fill="none" stroke="#EFF3F4" stroke-width="1.225" stroke-miterlimit="10" d="M-110.141,131.184	c0,0,43.546-43.732,44.383-44.383"/><path fill="none" stroke="#EFF3F4" stroke-width="1.225" stroke-miterlimit="10" d="M-110.234,136.581	c0,0,49.873-49.222,50.338-49.687"/><path fill="none" stroke="#EFF3F4" stroke-width="1.225" stroke-miterlimit="10" d="M-109.211,141.326	c0,0,53.409-52.665,53.781-53.037"/><path fill="none" stroke="#EFF3F4" stroke-width="1.225" stroke-miterlimit="10" d="M-107.536,145.607	c0,0,55.735-55.084,56.293-55.549"/><path fill="none" stroke="#EFF3F4" stroke-width="1.225" stroke-miterlimit="10" d="M-105.675,149.515	c0,0,57.968-57.038,58.434-57.596"/><path fill="none" stroke="#EFF3F4" stroke-width="1.225" stroke-miterlimit="10" d="M-103.535,153.329	c0,0,59.364-58.806,60.108-59.55"/><path fill="none" stroke="#EFF3F4" stroke-width="1.225" stroke-miterlimit="10" d="M-101.116,156.772	c0,0,60.667-59.829,61.039-60.295"/><path fill="none" stroke="#EFF3F4" stroke-width="1.225" stroke-miterlimit="10" d="M-98.51,159.657	c0,0,60.667-59.643,61.132-60.388"/><path fill="none" stroke="#EFF3F4" stroke-width="1.225" stroke-miterlimit="10" d="M-95.44,162.634c0,0,60.76-59.736,61.132-60.388	"/><path fill="none" stroke="#EFF3F4" stroke-width="1.225" stroke-miterlimit="10" d="M-91.904,165.146	c0,0,59.364-58.62,59.922-59.271"/><path fill="none" stroke="#EFF3F4" stroke-width="1.225" stroke-miterlimit="10" d="M-88.275,167.38c0,0,58.154-57.038,58.62-57.968	"/><path fill="none" stroke="#EFF3F4" stroke-width="1.225" stroke-miterlimit="10" d="M-84.553,169.147c0,0,56.2-55.084,56.48-55.735"	/><path fill="none" stroke="#EFF3F4" stroke-width="1.225" stroke-miterlimit="10" d="M-80.087,170.915	c0,0,53.409-52.665,53.781-52.944"/><path fill="none" stroke="#EFF3F4" stroke-width="1.225" stroke-miterlimit="10" d="M-75.342,172.032	c0,0,49.315-48.757,49.966-49.408"/><path fill="none" stroke="#EFF3F4" stroke-width="1.225" stroke-miterlimit="10" d="M-70.503,172.962	c0,0,44.756-44.383,45.407-44.849"/><path fill="none" stroke="#EFF3F4" stroke-width="1.225" stroke-miterlimit="10" d="M-64.548,172.962	c0,0,39.08-38.428,39.731-38.987"/><path fill="none" stroke="#EFF3F4" stroke-width="1.225" stroke-miterlimit="10" d="M-57.011,171.194	c0,0,30.054-29.496,30.706-30.147"/><path fill="none" stroke="#EFF3F4" stroke-width="1.225" stroke-miterlimit="10" d="M-47.428,167.659	c0,0,16.469-16.004,16.842-16.562"/><text transform="matrix(1 0 0 1 -15.3008 128.2963)" fill="#333333" font-family="'Curator Bold'" font-size="16">For families </text><text transform="matrix(1 0 0 1 -15.3008 147.4963)" fill="#333333" font-family="'Curator Bold'" font-size="16">with children</text><g>	<g>		<g>			<g>				<g>					<circle fill="#2D96B2" cx="-54.465" cy="111.062" r="4.384"/>					<circle fill="#2D96B2" cx="-71.777" cy="111.593" r="3.852"/>					<path fill="#2D96B2" d="M-45.8,134.643l-1.594,1.196l-1.86-1.196v-17.137c0,0,3.188,1.063,3.454,4.384V134.643z"/>					<path fill="#2D96B2" d="M-63.258,121.889c0.266-3.321,3.454-4.384,3.454-4.384v17.137l-1.86,1.196l-1.594-1.196V121.889z"/>					<path fill="#2D96B2" d="M-59.115,117.505v35.172h4.251v-16.175h0.664v16.175h4.118v-35.172H-59.115z"/>					<path fill="#2D96B2" d="M-78.564,126.844v-4.888c0,0,0-3.056,2.391-4.384v9.937l-4.384,7.44l-1.328-0.133l-0.266-1.594						L-78.564,126.844z"/>					<path fill="#2D96B2" d="M-61.404,133.221l-0.266,1.594l-1.328,0.133l-4.384-7.44v-9.937c2.391,1.328,2.391,4.384,2.391,4.384						v4.888L-61.404,133.221z"/>					<path fill="#2D96B2" d="M-75.508,117.372v10.296l-6.31,10.53v4.836h6.842v9.642h2.923v-9.642h0.554v9.642h2.923v-9.642h6.842						v-4.836l-6.31-10.53v-10.296H-75.508z"/>				</g>			</g>		</g>	</g></g><g>	<path fill="#2D96B2" d="M-89.023,128.788"/></g><g>	<g>		<polygon fill="#2D96B2" points="-95.534,130.103 -96.454,130.883 -95.534,131.663 -95.462,132.444 -94.612,132.159 			-95.322,131.451 		"/>		<path fill="#2D96B2" d="M-84.609,131.38l-2.44-2.196c-0.304-1.237-1.41-2.155-2.74-2.155c-1.33,0-2.436,0.92-2.74,2.156			l-2.439,2.195l2.529-0.555c0.395,1.085,1.427,1.866,2.649,1.866c1.224,0,2.254-0.78,2.651-1.866L-84.609,131.38z"/>		<polygon fill="#2D96B2" points="-84.041,130.103 -84.255,131.451 -84.963,132.159 -84.112,132.444 -84.041,131.663 			-83.12,130.883 		"/>	</g>	<polyline fill="#2D96B2" points="-86.742,136.84 -85.651,146.979 -86.591,146.979 -88.369,151.991 -89.628,151.991 		-89.072,146.979 -90.198,146.979 	"/>	<path fill="#2D96B2" d="M-89.609,146.979h-1.126l0.555,5.012h-1.258l-1.779-5.012h-0.94l1.091-10.139l-2.868,4.689l-1.058-0.7		l3.037-6.774c0,0,0.455-1.188,2.451-1.048l1.599,0.856l1.794,0.065l2.257,0.127"/>	<polyline fill="#2D96B2" points="-87.124,137.278 -80.556,134.948 -80.788,133.37 -85.853,134.054 	"/>	<polyline fill="#2D96B2" points="-86.591,146.979 -88.369,151.991 -89.628,151.991 -89.072,146.979 	"/>	<polyline fill="#2D96B2" points="-90.735,146.979 -90.18,151.991 -91.437,151.991 -93.216,146.979 	"/></g></svg>