
<svg version="1.1" id="Layer_1" xmlns="http://www.w3.org/2000/svg" xmlns:xlink="http://www.w3.org/1999/xlink" x="0px" y="0px"
	 width="267.263px" height="100.225px" viewBox="-117 77.775 267.263 100.225" enable-background="new -117 77.775 267.263 100.225"
	 xml:space="preserve">
<path fill="none" stroke="#EFF3F4" stroke-width="1.225" stroke-miterlimit="10" d="M-105.024,108.388
	c0,0,16.097-16.097,16.748-16.748"/>
<path fill="none" stroke="#EFF3F4" stroke-width="1.225" stroke-miterlimit="10" d="M-109.49,118.809
	c0,0,30.519-30.519,30.985-30.985"/>
<path fill="none" stroke="#EFF3F4" stroke-width="1.225" stroke-miterlimit="10" d="M-110.606,125.322
	c0,0,38.428-38.149,38.894-38.521"/>
<path fill="none" stroke="#EFF3F4" stroke-width="1.225" stroke-miterlimit="10" d="M-110.141,131.184
	c0,0,43.546-43.732,44.383-44.383"/>
<path fill="none" stroke="#EFF3F4" stroke-width="1.225" stroke-miterlimit="10" d="M-110.234,136.581
	c0,0,49.873-49.222,50.338-49.687"/>
<path fill="none" stroke="#EFF3F4" stroke-width="1.225" stroke-miterlimit="10" d="M-109.211,141.326
	c0,0,53.409-52.665,53.781-53.037"/>
<path fill="none" stroke="#EFF3F4" stroke-width="1.225" stroke-miterlimit="10" d="M-107.536,145.607
	c0,0,55.735-55.084,56.293-55.549"/>
<path fill="none" stroke="#EFF3F4" stroke-width="1.225" stroke-miterlimit="10" d="M-105.675,149.515
	c0,0,57.968-57.038,58.434-57.596"/>
<path fill="none" stroke="#EFF3F4" stroke-width="1.225" stroke-miterlimit="10" d="M-103.535,153.329
	c0,0,59.364-58.806,60.108-59.55"/>
<path fill="none" stroke="#EFF3F4" stroke-width="1.225" stroke-miterlimit="10" d="M-101.116,156.772
	c0,0,60.667-59.829,61.039-60.295"/>
<path fill="none" stroke="#EFF3F4" stroke-width="1.225" stroke-miterlimit="10" d="M-98.51,159.657
	c0,0,60.667-59.643,61.132-60.388"/>
<path fill="none" stroke="#EFF3F4" stroke-width="1.225" stroke-miterlimit="10" d="M-95.44,162.634c0,0,60.76-59.736,61.132-60.388
	"/>
<path fill="none" stroke="#EFF3F4" stroke-width="1.225" stroke-miterlimit="10" d="M-91.904,165.146
	c0,0,59.364-58.62,59.922-59.271"/>
<path fill="none" stroke="#EFF3F4" stroke-width="1.225" stroke-miterlimit="10" d="M-88.275,167.38c0,0,58.154-57.038,58.62-57.968
	"/>
<path fill="none" stroke="#EFF3F4" stroke-width="1.225" stroke-miterlimit="10" d="M-84.553,169.147c0,0,56.2-55.084,56.48-55.735"
	/>
<path fill="none" stroke="#EFF3F4" stroke-width="1.225" stroke-miterlimit="10" d="M-80.087,170.915
	c0,0,53.409-52.665,53.781-52.944"/>
<path fill="none" stroke="#EFF3F4" stroke-width="1.225" stroke-miterlimit="10" d="M-75.342,172.032
	c0,0,49.315-48.757,49.966-49.408"/>
<path fill="none" stroke="#EFF3F4" stroke-width="1.225" stroke-miterlimit="10" d="M-70.503,172.962
	c0,0,44.756-44.383,45.407-44.849"/>
<path fill="none" stroke="#EFF3F4" stroke-width="1.225" stroke-miterlimit="10" d="M-64.548,172.962
	c0,0,39.08-38.428,39.731-38.987"/>
<path fill="none" stroke="#EFF3F4" stroke-width="1.225" stroke-miterlimit="10" d="M-57.011,171.194
	c0,0,30.054-29.496,30.706-30.147"/>
<path fill="none" stroke="#EFF3F4" stroke-width="1.225" stroke-miterlimit="10" d="M-47.428,167.659
	c0,0,16.469-16.004,16.842-16.562"/>
<text transform="matrix(1 0 0 1 -15.3008 135.6296)" enable-background="new    "><tspan x="0" y="0" fill="#333333" font-family="'Curator Bold'" font-size="16">Workers with  </tspan><tspan x="0" y="19.2" fill="#333333" font-family="'Curator Bold'" font-size="16">disabilities</tspan></text>
<g>
	<path fill="#2D96B2" d="M-69.279,109.387c-2.677,0-4.838-2.166-4.838-4.839c0-2.665,2.161-4.834,4.838-4.834
		c2.665,0,4.838,2.17,4.838,4.834C-64.441,107.221-66.615,109.387-69.279,109.387z M-52.159,134.307h-15.677
		c-2.557,0.013-4.715-1.822-4.936-4.398l-0.838-14.682c-0.119-2.583,1.822-4.793,4.406-4.941c2.572-0.143,4.763,1.85,4.93,4.406
		l0.308,5.054h9.038c1.243,0.049,2.2,0.987,2.2,2.201c0,1.213-0.984,2.122-2.2,2.195h-8.79l0.13,2.749h12.093
		c0.93,0.026,1.839,0.521,2.346,1.383l8.796,14.807c0.75,1.394,0.351,3.076-0.99,3.873c-1.346,0.799-3.098,0.282-3.871-0.987
		L-52.159,134.307z M-51.95,138.661l2.698,4.549c-2.654,6.752-9.234,11.537-16.926,11.537c-10.044,0-18.18-8.139-18.18-18.18
		c0-6.695,3.622-12.549,9.012-15.704l0.237,4.437c-3.319,2.632-5.448,6.7-5.448,11.268c0,7.938,6.438,14.376,14.379,14.376
		C-58.944,150.943-52.965,145.607-51.95,138.661z"/>
</g>
</svg>
