
<svg version="1.1" id="Layer_1" xmlns="http://www.w3.org/2000/svg" xmlns:xlink="http://www.w3.org/1999/xlink" x="0px" y="0px"
	 width="267.263px" height="100.225px" viewBox="-117 77.775 267.263 100.225" enable-background="new -117 77.775 267.263 100.225"
	 xml:space="preserve">
<path fill="none" stroke="#EFF3F4" stroke-width="1.225" stroke-miterlimit="10" d="M-105.024,108.388
	c0,0,16.097-16.097,16.748-16.748"/>
<path fill="none" stroke="#EFF3F4" stroke-width="1.225" stroke-miterlimit="10" d="M-109.49,118.809
	c0,0,30.519-30.519,30.985-30.985"/>
<path fill="none" stroke="#EFF3F4" stroke-width="1.225" stroke-miterlimit="10" d="M-110.606,125.322
	c0,0,38.428-38.149,38.894-38.521"/>
<path fill="none" stroke="#EFF3F4" stroke-width="1.225" stroke-miterlimit="10" d="M-110.141,131.184
	c0,0,43.546-43.732,44.383-44.383"/>
<path fill="none" stroke="#EFF3F4" stroke-width="1.225" stroke-miterlimit="10" d="M-110.234,136.581
	c0,0,49.873-49.222,50.338-49.687"/>
<path fill="none" stroke="#EFF3F4" stroke-width="1.225" stroke-miterlimit="10" d="M-109.211,141.326
	c0,0,53.409-52.665,53.781-53.037"/>
<path fill="none" stroke="#EFF3F4" stroke-width="1.225" stroke-miterlimit="10" d="M-107.536,145.607
	c0,0,55.735-55.084,56.293-55.549"/>
<path fill="none" stroke="#EFF3F4" stroke-width="1.225" stroke-miterlimit="10" d="M-105.675,149.515
	c0,0,57.968-57.038,58.434-57.596"/>
<path fill="none" stroke="#EFF3F4" stroke-width="1.225" stroke-miterlimit="10" d="M-103.535,153.329
	c0,0,59.364-58.806,60.108-59.55"/>
<path fill="none" stroke="#EFF3F4" stroke-width="1.225" stroke-miterlimit="10" d="M-101.116,156.772
	c0,0,60.667-59.829,61.039-60.295"/>
<path fill="none" stroke="#EFF3F4" stroke-width="1.225" stroke-miterlimit="10" d="M-98.51,159.657
	c0,0,60.667-59.643,61.132-60.388"/>
<path fill="none" stroke="#EFF3F4" stroke-width="1.225" stroke-miterlimit="10" d="M-95.44,162.634c0,0,60.76-59.736,61.132-60.388
	"/>
<path fill="none" stroke="#EFF3F4" stroke-width="1.225" stroke-miterlimit="10" d="M-91.904,165.146
	c0,0,59.364-58.62,59.922-59.271"/>
<path fill="none" stroke="#EFF3F4" stroke-width="1.225" stroke-miterlimit="10" d="M-88.275,167.38c0,0,58.154-57.038,58.62-57.968
	"/>
<path fill="none" stroke="#EFF3F4" stroke-width="1.225" stroke-miterlimit="10" d="M-84.553,169.147c0,0,56.2-55.084,56.48-55.735"
	/>
<path fill="none" stroke="#EFF3F4" stroke-width="1.225" stroke-miterlimit="10" d="M-80.087,170.915
	c0,0,53.409-52.665,53.781-52.944"/>
<path fill="none" stroke="#EFF3F4" stroke-width="1.225" stroke-miterlimit="10" d="M-75.342,172.032
	c0,0,49.315-48.757,49.966-49.408"/>
<path fill="none" stroke="#EFF3F4" stroke-width="1.225" stroke-miterlimit="10" d="M-70.503,172.962
	c0,0,44.756-44.383,45.407-44.849"/>
<path fill="none" stroke="#EFF3F4" stroke-width="1.225" stroke-miterlimit="10" d="M-64.548,172.962
	c0,0,39.08-38.428,39.731-38.987"/>
<path fill="none" stroke="#EFF3F4" stroke-width="1.225" stroke-miterlimit="10" d="M-57.011,171.194
	c0,0,30.054-29.496,30.706-30.147"/>
<path fill="none" stroke="#EFF3F4" stroke-width="1.225" stroke-miterlimit="10" d="M-47.428,167.659
	c0,0,16.469-16.004,16.842-16.562"/>
<text transform="matrix(1 0 0 1 -15.3008 133.5346)" enable-background="new    "><tspan x="0" y="0" fill="#333333" font-family="'Curator Bold'" font-size="16">For all school-aged  </tspan><tspan x="0" y="19.2" fill="#333333" font-family="'Curator Bold'" font-size="16">children</tspan></text>
<g>
	<g>
		<polygon fill="#2490A9" points="-55.892,111.838 -57.203,112.948 -55.892,114.06 -55.79,115.172 -54.579,114.766 -55.589,113.757 
					"/>
		<path fill="#2490A9" d="M-40.329,113.656l-3.475-3.128c-0.433-1.762-2.009-3.07-3.903-3.07c-1.894,0-3.47,1.31-3.903,3.071
			l-3.474,3.127l3.603-0.79c0.563,1.546,2.033,2.658,3.774,2.658c1.743,0,3.211-1.111,3.776-2.658L-40.329,113.656z"/>
		<polygon fill="#2490A9" points="-39.521,111.838 -39.825,113.757 -40.835,114.766 -39.622,115.172 -39.521,114.06 
			-38.209,112.948 		"/>
	</g>
	<path fill="#2490A9" d="M-47.451,135.877h-1.605l0.791,7.14h-1.791l-2.534-7.14h-1.339l1.554-14.443l-4.086,6.679l-1.507-0.997
		l4.325-9.65c0,0,0.649-1.692,3.492-1.493l2.278,1.219l2.556,0.093"/>
	<path fill="#2490A9" d="M-48.017,135.877h1.605l-0.791,7.14h1.791l2.534-7.14h1.339l-1.554-14.443l4.086,6.679l1.507-0.997
		l-4.325-9.65c0,0-0.649-1.692-3.492-1.493l-2.278,1.219l-2.556,0.093"/>
	<path fill="#2490A9" d="M-43.913,122.058"/>
	<polyline fill="#2490A9" points="-49.056,135.877 -48.265,143.017 -50.056,143.017 -52.59,135.877 	"/>
</g>
<g>
	<g>
		<g>
			<g>
				<g>
					<circle fill="#2490A9" cx="-87.046" cy="109.52" r="4.41"/>
					<path fill="#2490A9" d="M-81.274,126.95l-1.09,0.817l-1.272-0.817v-11.717c0,0,2.18,0.727,2.362,2.997V126.95z"/>
					<path fill="#2490A9" d="M-93.209,118.231c0.182-2.271,2.362-2.997,2.362-2.997v11.717l-1.272,0.817l-1.09-0.817V118.231z"/>
					<path fill="#2490A9" d="M-90.377,115.233v24.047h2.907v-11.059h0.454v11.059h2.816v-24.047H-90.377z"/>
				</g>
			</g>
		</g>
	</g>
</g>
<g>
	<path fill="#2490A9" d="M-68.745,153.67h1.226l7.23,3.357l2.647-7.036c0,0-2.711-7.357-3.55-9.552
		c-0.84-2.196-2.454-2.323-2.454-2.323h-5.099h-5.098c0,0-1.614,0.127-2.454,2.323c-0.839,2.195-3.55,9.552-3.55,9.552l2.647,7.036
		l7.229-3.357H-68.745z"/>
	<g>
		<circle fill="#2490A9" cx="-68.745" cy="131.4" r="4.929"/>
		<path fill="#2490A9" d="M-68.745,131.401"/>
	</g>
	<line fill="#2490A9" x1="-74.102" y1="148.507" x2="-78.814" y2="152.896"/>
	<line fill="none" stroke="#FFFFFF" stroke-miterlimit="10" x1="-74.555" y1="146.763" x2="-73.586" y2="142.826"/>
	<g>
		
			<ellipse transform="matrix(0.4406 0.8977 -0.8977 0.4406 93.1371 157.8382)" fill="#2490A9" stroke="#FFFFFF" stroke-miterlimit="10" cx="-80.082" cy="153.653" rx="4.564" ry="2.739"/>
		<path fill="#2490A9" d="M-80.082,153.652"/>
	</g>
	<line fill="#2490A9" x1="-63.387" y1="148.507" x2="-58.675" y2="152.896"/>
	<line fill="none" stroke="#FFFFFF" stroke-miterlimit="10" x1="-62.934" y1="146.763" x2="-63.903" y2="142.826"/>
	<g>
		
			<ellipse transform="matrix(-0.4406 0.8977 -0.8977 -0.4406 55.2302 272.8901)" fill="#2490A9" stroke="#FFFFFF" stroke-miterlimit="10" cx="-57.407" cy="153.653" rx="4.564" ry="2.739"/>
		<path fill="#2490A9" d="M-57.407,153.652"/>
	</g>
	<polygon fill="#FFFFFF" points="-68.745,153.67 -67.519,153.67 -61.967,146.699 -68.745,146.699 -75.522,146.699 -69.971,153.67 	
		"/>
</g>
</svg>
