
<svg version="1.1" id="Layer_1" xmlns="http://www.w3.org/2000/svg" xmlns:xlink="http://www.w3.org/1999/xlink" x="0px" y="0px"
	 width="267.263px" height="100.225px" viewBox="-117 77.775 267.263 100.225" enable-background="new -117 77.775 267.263 100.225"
	 xml:space="preserve">
<path fill="none" stroke="#EFF3F4" stroke-width="1.225" stroke-miterlimit="10" d="M-105.024,108.388
	c0,0,16.097-16.097,16.748-16.748"/>
<path fill="none" stroke="#EFF3F4" stroke-width="1.225" stroke-miterlimit="10" d="M-109.49,118.809
	c0,0,30.519-30.519,30.985-30.985"/>
<path fill="none" stroke="#EFF3F4" stroke-width="1.225" stroke-miterlimit="10" d="M-110.606,125.322
	c0,0,38.428-38.149,38.894-38.521"/>
<path fill="none" stroke="#EFF3F4" stroke-width="1.225" stroke-miterlimit="10" d="M-110.141,131.184
	c0,0,43.546-43.732,44.383-44.383"/>
<path fill="none" stroke="#EFF3F4" stroke-width="1.225" stroke-miterlimit="10" d="M-110.234,136.581
	c0,0,49.873-49.222,50.338-49.687"/>
<path fill="none" stroke="#EFF3F4" stroke-width="1.225" stroke-miterlimit="10" d="M-109.211,141.326
	c0,0,53.409-52.665,53.781-53.037"/>
<path fill="none" stroke="#EFF3F4" stroke-width="1.225" stroke-miterlimit="10" d="M-107.536,145.607
	c0,0,55.735-55.084,56.293-55.549"/>
<path fill="none" stroke="#EFF3F4" stroke-width="1.225" stroke-miterlimit="10" d="M-105.675,149.515
	c0,0,57.968-57.038,58.434-57.596"/>
<path fill="none" stroke="#EFF3F4" stroke-width="1.225" stroke-miterlimit="10" d="M-103.535,153.329
	c0,0,59.364-58.806,60.108-59.55"/>
<path fill="none" stroke="#EFF3F4" stroke-width="1.225" stroke-miterlimit="10" d="M-101.116,156.772
	c0,0,60.667-59.829,61.039-60.295"/>
<path fill="none" stroke="#EFF3F4" stroke-width="1.225" stroke-miterlimit="10" d="M-98.51,159.657
	c0,0,60.667-59.643,61.132-60.388"/>
<path fill="none" stroke="#EFF3F4" stroke-width="1.225" stroke-miterlimit="10" d="M-95.44,162.634c0,0,60.76-59.736,61.132-60.388
	"/>
<path fill="none" stroke="#EFF3F4" stroke-width="1.225" stroke-miterlimit="10" d="M-91.904,165.146
	c0,0,59.364-58.62,59.922-59.271"/>
<path fill="none" stroke="#EFF3F4" stroke-width="1.225" stroke-miterlimit="10" d="M-88.275,167.38c0,0,58.154-57.038,58.62-57.968
	"/>
<path fill="none" stroke="#EFF3F4" stroke-width="1.225" stroke-miterlimit="10" d="M-84.553,169.147c0,0,56.2-55.084,56.48-55.735"
	/>
<path fill="none" stroke="#EFF3F4" stroke-width="1.225" stroke-miterlimit="10" d="M-80.087,170.915
	c0,0,53.409-52.665,53.781-52.944"/>
<path fill="none" stroke="#EFF3F4" stroke-width="1.225" stroke-miterlimit="10" d="M-75.342,172.032
	c0,0,49.315-48.757,49.966-49.408"/>
<path fill="none" stroke="#EFF3F4" stroke-width="1.225" stroke-miterlimit="10" d="M-70.503,172.962
	c0,0,44.756-44.383,45.407-44.849"/>
<path fill="none" stroke="#EFF3F4" stroke-width="1.225" stroke-miterlimit="10" d="M-64.548,172.962
	c0,0,39.08-38.428,39.731-38.987"/>
<path fill="none" stroke="#EFF3F4" stroke-width="1.225" stroke-miterlimit="10" d="M-57.011,171.194
	c0,0,30.054-29.496,30.706-30.147"/>
<path fill="none" stroke="#EFF3F4" stroke-width="1.225" stroke-miterlimit="10" d="M-47.428,167.659
	c0,0,16.469-16.004,16.842-16.562"/>
<text transform="matrix(1 0 0 1 -15.3008 133.5346)" enable-background="new    "><tspan x="0" y="0" fill="#333333" font-family="'Curator Bold'" font-size="16">For workers who  </tspan><tspan x="0" y="19.2" fill="#333333" font-family="'Curator Bold'" font-size="16">want to reskill</tspan></text>
<path fill="#2490A9" d="M-81.952,111.606c-0.011,0.012-0.023,0.023-0.034,0.036c-0.789-0.93-1.966-1.522-3.278-1.522h-10.751v19.603
	h10.682l3.381-0.011V111.606z"/>
<line fill="none" stroke="#FFFFFF" stroke-width="1.5" stroke-miterlimit="10" x1="-92.758" y1="114.551" x2="-85.487" y2="114.551"/>
<line fill="none" stroke="#FFFFFF" stroke-width="1.5" stroke-miterlimit="10" x1="-92.758" y1="117.677" x2="-85.487" y2="117.677"/>
<line fill="none" stroke="#FFFFFF" stroke-width="1.5" stroke-miterlimit="10" x1="-92.758" y1="120.803" x2="-85.487" y2="120.803"/>
<line fill="none" stroke="#FFFFFF" stroke-width="1.5" stroke-miterlimit="10" x1="-92.758" y1="123.929" x2="-85.487" y2="123.929"/>
<path fill="#2490A9" d="M-82.019,111.606c0.011,0.012,0.023,0.023,0.034,0.036c0.789-0.93,1.966-1.522,3.278-1.522h10.75v19.603
	h-10.682l-3.381-0.011V111.606z"/>
<line fill="none" stroke="#FFFFFF" stroke-width="1.5" stroke-miterlimit="10" x1="-71.213" y1="114.551" x2="-78.484" y2="114.551"/>
<line fill="none" stroke="#FFFFFF" stroke-width="1.5" stroke-miterlimit="10" x1="-71.213" y1="117.677" x2="-78.484" y2="117.677"/>
<line fill="none" stroke="#FFFFFF" stroke-width="1.5" stroke-miterlimit="10" x1="-71.213" y1="120.803" x2="-78.484" y2="120.803"/>
<line fill="none" stroke="#FFFFFF" stroke-width="1.5" stroke-miterlimit="10" x1="-71.213" y1="123.929" x2="-78.484" y2="123.929"/>
<line fill="none" stroke="#FFFFFF" stroke-miterlimit="10" x1="-81.985" y1="111.642" x2="-81.985" y2="129.712"/>
<polygon fill="#FFFFFF" stroke="#2490A9" stroke-miterlimit="10" points="-87.261,110.12 -87.261,117.168 -88.983,115.446 
	-90.704,117.168 -90.704,110.12 "/>
<g>
	<circle fill="#2490A9" cx="-48.991" cy="114.115" r="3.103"/>
</g>
<g>
	<polygon fill="#2490A9" points="-48.992,121.977 -46.298,121.977 -46.298,117.701 -44.262,117.701 -44.262,130.524 
		-43.639,132.574 -43.639,151.729 -48.43,151.729 -48.43,134.754 -48.992,134.754 -49.62,134.754 -49.62,151.729 -54.345,151.729 
		-54.345,132.462 -53.721,130.498 -53.721,117.701 -51.733,117.701 -51.733,121.977 	"/>
	<path fill="#2490A9" d="M-54.762,127.343l-1.749,6.916l-1.607,0.515l-0.9-1.153c0,0,2.628-12.367,3.393-14.49
		c0.178-0.496,0.47-0.853,0.863-1.109V127.343z"/>
	<path fill="#2490A9" d="M-43.29,127.343l1.749,6.916l1.607,0.515l0.9-1.153c0,0-2.628-12.367-3.393-14.49
		c-0.178-0.496-0.47-0.853-0.863-1.109V127.343z"/>
</g>
</svg>
