<svg version="1.1" id="Layer_1" xmlns="http://www.w3.org/2000/svg" xmlns:xlink="http://www.w3.org/1999/xlink" x="0px" y="0px"
	 width="980px" height="1000px" viewBox="330 -260 980 1000" enable-background="new 330 -260 980 1000" xml:space="preserve">
<circle fill="#FFFFFF" cx="837" cy="239" r="347.1"/>
<path fill-rule="evenodd" clip-rule="evenodd" fill="#0C2B57" d="M763.893,211.973v43.264h71.566
	c-2.884,18.568-21.632,54.441-71.566,54.441c-43.084,0-78.236-35.693-78.236-79.679c0-43.985,35.152-79.678,78.236-79.678
	c24.516,0,40.921,10.455,50.295,19.469l34.251-32.989c-21.993-20.55-50.475-32.989-84.546-32.989
	c-69.764,0-126.188,56.423-126.188,126.187c0,69.764,56.424,126.188,126.188,126.188c72.828,0,121.14-51.195,121.14-123.303
	c0-8.292-0.902-14.602-1.983-20.911H763.893L763.893,211.973L763.893,211.973z"/>
<polygon fill-rule="evenodd" clip-rule="evenodd" fill="#0C2B57" points="1034.295,211.973 998.241,211.973 998.241,175.919 
	962.187,175.919 962.187,211.973 926.134,211.973 926.134,248.027 962.187,248.027 962.187,284.08 998.241,284.08 998.241,248.027 
	1034.295,248.027 "/>
</svg>
