<?xml version="1.0" standalone="no"?>
<!DOCTYPE svg PUBLIC "-//W3C//DTD SVG 1.1//EN" "http://www.w3.org/Graphics/SVG/1.1/DTD/svg11.dtd" >
<svg xmlns="http://www.w3.org/2000/svg" xmlns:xlink="http://www.w3.org/1999/xlink" version="1.1">
<metadata></metadata>
<defs>
<font id="curator_head_st_boldregular" horiz-adv-x="1112" >
<font-face units-per-em="2048" ascent="1507" descent="-541" />
<missing-glyph horiz-adv-x="550" />
<glyph unicode="&#xfb01;" horiz-adv-x="1339" d="M20 825v250h175v23q0 186 105 288.5t290 102.5q79 0 174 -14v-236h-123q-76 0 -110.5 -33t-34.5 -110v-21h247v-250h-247v-825h-301v825h-175zM905 0v1075h301v-1075h-301zM905 1212v263h301v-263h-301z" />
<glyph unicode="&#xfb02;" horiz-adv-x="1351" d="M20 825v250h175v23q0 186 105 288.5t290 102.5q79 0 174 -14v-236h-123q-76 0 -110.5 -33t-34.5 -110v-21h247v-250h-247v-825h-301v825h-175zM918 0v1475h301v-1475h-301z" />
<glyph horiz-adv-x="0" />
<glyph horiz-adv-x="682" />
<glyph unicode=" "  horiz-adv-x="550" />
<glyph unicode="&#x09;" horiz-adv-x="550" />
<glyph unicode="&#xa0;" horiz-adv-x="550" />
<glyph unicode="!" horiz-adv-x="655" d="M164 1208v267h328v-267l-39 -745h-252zM170 0v295h317v-295h-317z" />
<glyph unicode="&#x22;" horiz-adv-x="741" d="M25 1475h276l-29 -416h-227zM440 1475h277l-31 -416h-227z" />
<glyph unicode="#" horiz-adv-x="1394" d="M55 377l51 250h205l51 247h-217l50 248h219l75 353h240l-74 -353h246l72 353h244l-76 -353h200l-45 -248h-206l-50 -247h215l-43 -250h-225l-78 -377h-243l82 377h-244l-78 -377h-242l76 377h-205zM553 627h246l49 247h-242z" />
<glyph unicode="$" horiz-adv-x="1136" d="M57 389h279q15 -63 60 -97.5t114 -39.5v379q-220 75 -322 180.5t-102 278.5q0 163 107 271.5t301 129.5v199h165v-197q182 -15 288.5 -105.5t109.5 -246.5h-277q-7 49 -44 77.5t-93 34.5v-362q87 -29 149.5 -57t119 -67t91 -85t54.5 -109t20 -141q0 -173 -114 -285.5 t-304 -134.5v-225h-165v223q-69 4 -129 18t-116.5 43t-97.5 71t-66.5 105t-27.5 142zM375 1104q0 -61 30.5 -101.5t104.5 -70.5v319q-65 -9 -100 -48t-35 -99zM643 254q65 10 100 56.5t35 109.5q0 122 -135 176v-342z" />
<glyph unicode="%" horiz-adv-x="1785" d="M39 1098q0 182 88.5 292.5t267.5 110.5t266 -105t87 -296q0 -88 -20.5 -160t-62.5 -127.5t-110.5 -86t-159.5 -30.5q-181 0 -268.5 105.5t-87.5 296.5zM279 1100q0 -105 25.5 -154t90.5 -49q64 0 89.5 49.5t25.5 153.5q0 103 -25 150.5t-90 47.5q-64 0 -90 -48t-26 -150z M350 -2l850 1485h240l-850 -1485h-240zM1038 379q0 118 35.5 205.5t117 141.5t202.5 54q179 0 266.5 -105t87.5 -296q0 -183 -88 -293.5t-268 -110.5q-179 0 -266 106t-87 298zM1276 379q0 -104 25.5 -152.5t89.5 -48.5q65 0 90.5 49t25.5 152t-25.5 152t-88.5 49 q-65 0 -91 -49t-26 -152z" />
<glyph unicode="&#x26;" horiz-adv-x="1314" d="M39 397q0 139 62.5 239.5t193.5 172.5q-102 142 -102 283q0 173 120 282t322 109q208 0 330 -92.5t125 -262.5h-275q-25 117 -168 117q-77 0 -122.5 -42t-45.5 -109q0 -52 25 -104.5t84 -123.5l342 -424q33 82 33 197v4h258q4 -20 4 -51q0 -75 -29 -167.5t-80 -166.5 l213 -258h-340l-76 80q-169 -105 -370 -105q-146 0 -258 46t-179 142.5t-67 233.5zM332 430q0 -96 59 -152.5t164 -56.5q119 0 190 51l-301 357q-112 -75 -112 -199z" />
<glyph unicode="'" horiz-adv-x="325" d="M25 1475h276l-29 -416h-227z" />
<glyph unicode="(" horiz-adv-x="622" d="M90 582q0 282 59 519t189 453h295q-240 -416 -240 -972q0 -564 240 -975h-299q-244 369 -244 975z" />
<glyph unicode=")" horiz-adv-x="622" d="M-10 -393q239 415 239 973q0 565 -239 974h299q243 -371 243 -974q0 -281 -59 -519t-188 -454h-295z" />
<glyph unicode="*" horiz-adv-x="712" d="M6 1180l51 145l219 -76v226h162v-226l215 76l52 -143l-224 -74l146 -188l-135 -84l-138 182l-133 -182l-135 84l143 188z" />
<glyph unicode="+" horiz-adv-x="1157" d="M74 543v262h364v385h283v-385h362v-262h-362v-385h-283v385h-364z" />
<glyph unicode="," horiz-adv-x="489" d="M63 -223l50 534h301l-115 -534h-236z" />
<glyph unicode="-" horiz-adv-x="804" d="M72 401v271h661v-271h-661z" />
<glyph unicode="." horiz-adv-x="524" d="M104 0v311h316v-311h-316z" />
<glyph unicode="/" horiz-adv-x="829" d="M-43 -184l596 1743h287l-600 -1743h-283z" />
<glyph unicode="0" horiz-adv-x="1296" d="M82 743q0 149 23 269t64.5 200.5t94 138t119 89t130.5 45.5t136 14q65 0 122.5 -9t116 -32.5t106.5 -60.5t90.5 -96t71 -136.5t45 -184.5t16.5 -237q0 -131 -17 -240t-47 -187.5t-73 -138.5t-91.5 -98t-106.5 -61.5t-114 -33t-119 -9.5q-97 0 -175 18.5t-153.5 70 t-126 135t-81.5 222t-31 322.5zM399 743q0 -264 55 -384.5t195 -120.5q135 0 192.5 124t57.5 381q0 258 -54.5 376t-195.5 118q-136 0 -193 -121.5t-57 -372.5z" />
<glyph unicode="1" horiz-adv-x="772" d="M82 1038v246l324 191h223v-1475h-310v1128l-217 -90h-20z" />
<glyph unicode="2" horiz-adv-x="1095" d="M57 0v201q41 82 232 282l231 240q114 120 160.5 194t46.5 152q0 81 -51 124.5t-129 43.5q-87 0 -140 -41t-61 -111h-280q2 185 133.5 299.5t351.5 114.5q134 0 241.5 -47t173.5 -143.5t66 -227.5q0 -149 -80.5 -278.5t-265.5 -306.5l-237 -226v-8h581v-262h-973z" />
<glyph unicode="3" horiz-adv-x="1189" d="M74 373h286q18 -70 76.5 -105t145.5 -35q98 0 162.5 49.5t64.5 149.5q0 197 -291 197h-92v250h90q127 0 196.5 44t69.5 150q0 86 -53.5 127t-136.5 41q-86 0 -142.5 -41t-62.5 -113h-281q0 183 135.5 297.5t362.5 114.5q87 0 167.5 -22.5t150 -68t111.5 -126.5t42 -188 q0 -110 -53 -190.5t-154 -123.5v-8q240 -80 240 -348q0 -107 -41 -193t-113.5 -141.5t-169.5 -85t-211 -29.5q-236 0 -366 104.5t-133 293.5z" />
<glyph unicode="4" horiz-adv-x="1239" d="M63 346v240l599 891h358v-875h158v-256h-158v-346h-301v346h-656zM360 602h367l4 199q15 311 19 366h-11q-25 -44 -87 -138t-97 -144z" />
<glyph unicode="5" horiz-adv-x="1171" d="M66 373h288q41 -140 213 -140q102 0 165 65.5t63 186.5q0 111 -57.5 169.5t-170.5 58.5q-126 0 -198 -64h-252l37 826h864v-263h-604l-19 -301l6 -2q81 52 226 52q211 0 339 -125t128 -351q0 -129 -42.5 -229t-117 -160t-168 -90.5t-201.5 -30.5q-226 0 -361 106.5 t-138 291.5z" />
<glyph unicode="6" horiz-adv-x="1243" d="M98 715q0 178 34 320t102 246.5t176.5 161t251.5 56.5q198 0 322 -88.5t136 -261.5h-291q-10 41 -51 66.5t-110 25.5q-59 0 -105 -22t-75.5 -58.5t-49.5 -88t-29 -105.5t-12 -117l-2 -25h8q45 64 126.5 95.5t172.5 31.5q203 0 330 -124t127 -341q0 -158 -70 -276 t-184 -177t-254 -59q-291 0 -430 193q-68 97 -95.5 227.5t-27.5 319.5zM416 483q0 -111 58.5 -180.5t166.5 -69.5q100 0 159.5 67t59.5 181q0 108 -54 172t-155 64q-110 0 -172.5 -62.5t-62.5 -171.5z" />
<glyph unicode="7" horiz-adv-x="1046" d="M39 1212v263h1005v-195q-63 -128 -154 -326.5t-142 -318.5l-275 -635h-332l342 735q144 312 226 469v8h-670z" />
<glyph unicode="8" horiz-adv-x="1247" d="M82 412q0 127 67 224t181 140v8q-193 94 -193 310q0 81 27.5 149t74.5 114.5t110 79t133.5 47.5t146.5 15q120 0 215.5 -31.5t155.5 -85.5t92 -124.5t32 -151.5q0 -228 -196 -313v-9q235 -100 235 -350q0 -92 -29.5 -169t-80 -130t-118.5 -89.5t-144.5 -53.5t-159.5 -17 q-91 0 -170.5 15t-150 48.5t-120.5 83.5t-79 124t-29 166zM389 434q0 -101 66.5 -154t173.5 -53q101 0 165 55.5t64 157.5t-62.5 156.5t-162.5 54.5q-108 0 -176 -56.5t-68 -160.5zM426 1071q0 -83 57 -132.5t148 -49.5q89 0 147 49t58 133q0 80 -55 128t-150 48 q-98 0 -151.5 -48t-53.5 -128z" />
<glyph unicode="9" horiz-adv-x="1220" d="M82 991q0 155 67.5 272t179.5 176.5t251 59.5q287 0 421 -194q66 -94 93.5 -223t27.5 -310q0 -178 -35 -322.5t-104 -251.5t-180 -165t-256 -58q-197 0 -322 90.5t-137 266.5h289q11 -45 54 -72t114 -27q70 0 124.5 33.5t86.5 91.5t49.5 126t21.5 147l2 22h-8 q-92 -125 -293 -125q-199 0 -322.5 122.5t-123.5 340.5zM375 1001q0 -110 54 -174.5t153 -64.5q109 0 170 62.5t61 170.5q0 111 -57.5 181.5t-161.5 70.5q-102 0 -160.5 -66.5t-58.5 -179.5z" />
<glyph unicode=":" horiz-adv-x="532" d="M109 0v311h315v-311h-315zM109 629v309h315v-309h-315z" />
<glyph unicode=";" horiz-adv-x="532" d="M51 -223l53 534h314l-127 -534h-240zM109 629v309h315v-309h-315z" />
<glyph unicode="&#x3c;" horiz-adv-x="970" d="M72 522v236l796 393v-287l-223 -100q-199 -92 -262 -119v-8q162 -72 262 -121l223 -108v-285z" />
<glyph unicode="=" horiz-adv-x="1159" d="M100 299v262h959v-262h-959zM100 737v262h959v-262h-959z" />
<glyph unicode="&#x3e;" horiz-adv-x="970" d="M104 123v287l222 102q142 65 264 117v8q-144 63 -264 121l-222 108v285l799 -399v-236z" />
<glyph unicode="?" horiz-adv-x="1015" d="M23 1110q6 167 141 278t358 111q209 0 338 -102t129 -277q0 -112 -46 -197.5t-146 -183.5q-107 -101 -143 -156.5t-42 -119.5h-286v12q0 65 13 116.5t46 102t70.5 92.5t105.5 107q55 52 83 98.5t28 98.5q0 67 -42.5 103t-119.5 36t-130.5 -30t-66.5 -89h-290zM309 0v295 h316v-295h-316z" />
<glyph unicode="@" horiz-adv-x="1806" d="M57 532q0 205 75 378t200.5 287t288.5 177.5t340 63.5q229 0 408 -86.5t279.5 -246t100.5 -366.5q0 -277 -138.5 -441.5t-348.5 -164.5q-75 0 -147 33t-103 100h-8q-95 -133 -259 -133q-60 0 -108 19t-80 52.5t-53.5 80.5t-31 100.5t-9.5 116.5q0 94 28 184t78 162 t128 116t171 44q69 0 119 -27t68 -78h10l20 78l234 -4l-115 -518q-8 -36 -8 -56q0 -42 27 -70t73 -28q122 0 197.5 123.5t75.5 304.5q0 130 -48.5 233.5t-132.5 169t-194 100t-238 34.5q-146 0 -275.5 -52t-226.5 -145t-153.5 -232.5t-56.5 -305.5q0 -137 34.5 -247 t94.5 -185t144 -125.5t180.5 -73.5t205.5 -23q111 0 233.5 23.5t209.5 68.5l84 -127q-209 -131 -535 -131q-175 0 -323.5 48.5t-265 145.5t-183 256.5t-66.5 366.5zM715 487q0 -57 24 -103t78 -46q122 0 172 231l17 80q6 24 6 47q0 46 -26.5 74.5t-78.5 28.5 q-61 0 -106.5 -50.5t-65.5 -119.5t-20 -142z" />
<glyph unicode="A" horiz-adv-x="1292" d="M8 0l481 1475h359l436 -1475h-323l-93 334h-454l-105 -334h-301zM483 578h326l-61 233q-62 228 -86 360h-15q-9 -40 -98 -360z" />
<glyph unicode="B" horiz-adv-x="1247" d="M141 0v1475h477q240 0 377.5 -98.5t137.5 -272.5q0 -237 -215 -316v-14q253 -80 253 -348q0 -193 -133.5 -309.5t-386.5 -116.5h-510zM449 246h188q117 0 174 49t57 154q0 102 -59 150t-184 48h-176v-401zM449 887h167q218 0 218 182q0 79 -57.5 120.5t-170.5 41.5h-157 v-344z" />
<glyph unicode="C" horiz-adv-x="1193" d="M59 737q0 370 152 566t438 196q219 0 351 -103.5t153 -303.5h-305q-38 145 -195 145q-145 0 -207.5 -119.5t-62.5 -380.5q0 -277 59.5 -388t196.5 -111q171 0 207 151h301q-24 -184 -162 -299t-358 -115q-303 0 -435.5 187.5t-132.5 574.5z" />
<glyph unicode="D" horiz-adv-x="1304" d="M141 0v1475h389q365 0 541 -180t176 -537q0 -372 -185.5 -565t-549.5 -193h-371zM459 262h80q200 0 292.5 116.5t92.5 375.5q0 252 -86.5 355t-294.5 103h-84v-950z" />
<glyph unicode="E" horiz-adv-x="1138" d="M141 0v1475h920v-263h-602v-331h438v-263h-438v-356h620v-262h-938z" />
<glyph unicode="F" horiz-adv-x="1107" d="M141 0v1475h932v-263h-614v-340h450v-262h-450v-610h-318z" />
<glyph unicode="G" horiz-adv-x="1273" d="M59 737q0 369 157 565.5t452 196.5q216 0 348.5 -97.5t159.5 -291.5h-306q-38 127 -202 127q-154 0 -219.5 -120.5t-65.5 -379.5q0 -273 65 -386t205 -113q262 0 262 294v41h-239v230h522v-228q0 -284 -144 -442t-409 -158q-297 0 -441.5 183.5t-144.5 578.5z" />
<glyph unicode="H" horiz-adv-x="1366" d="M141 0v1475h318v-582h448v582h318v-1475h-318v614h-448v-614h-318z" />
<glyph unicode="I" horiz-adv-x="602" d="M141 0v1475h318v-1475h-318z" />
<glyph unicode="J" horiz-adv-x="1075" d="M25 395h280q5 -74 45.5 -115.5t116.5 -41.5q102 0 142 55t40 184v998h318v-986q0 -514 -490 -514q-452 0 -452 420z" />
<glyph unicode="K" horiz-adv-x="1245" d="M141 0v1475h318v-369q0 -146 -4 -268h10q6 10 121 190l305 447h352l-516 -695l518 -780h-373l-301 465q-6 11 -30.5 55t-46 83t-29.5 56h-10q4 -144 4 -276v-383h-318z" />
<glyph unicode="L" horiz-adv-x="1044" d="M141 0v1475h318v-1213h553v-262h-871z" />
<glyph unicode="M" horiz-adv-x="1576" d="M141 0v1475h400l135 -394q34 -91 119 -364h10q83 279 113 364l129 394h389v-1475h-289v543q0 233 10 506h-12q-29 -109 -96 -316l-140 -422h-250l-135 422l-92 316h-12q10 -278 10 -508v-541h-289z" />
<glyph unicode="N" horiz-adv-x="1345" d="M141 0v1475h318l268 -512q50 -94 111.5 -231t83.5 -202h12q-19 165 -19 482v463h289v-1475h-311l-268 508q-50 97 -112 236t-85 204h-12q14 -146 14 -499v-449h-289z" />
<glyph unicode="O" horiz-adv-x="1300" d="M59 737q0 373 151 567.5t439 194.5q302 0 448 -183.5t146 -578.5q0 -373 -151 -567.5t-439 -194.5q-149 0 -257.5 41t-185 131t-114 236.5t-37.5 353.5zM383 737q0 -194 25.5 -301t82.5 -152.5t160 -45.5q144 0 207.5 118.5t63.5 380.5q0 266 -60.5 383t-212.5 117 q-145 0 -205.5 -126t-60.5 -374z" />
<glyph unicode="P" horiz-adv-x="1187" d="M141 0v1475h432q129 0 231 -24.5t181.5 -78t122.5 -145.5t43 -219q0 -484 -594 -484h-108v-524h-308zM449 774h124q125 0 193 58t68 172q0 116 -63.5 166.5t-190.5 50.5h-131v-447z" />
<glyph unicode="Q" horiz-adv-x="1296" d="M59 737q0 373 150.5 567.5t437.5 194.5q303 0 449.5 -183.5t146.5 -578.5q0 -358 -162 -553l189 -213h-303l-64 70q-126 -66 -272 -66q-139 0 -242.5 41t-178.5 130.5t-113 237t-38 353.5zM383 737q0 -195 25 -304.5t82 -158.5t159 -49q59 0 105 15l-215 243l241 2 l103 -112q37 100 37 364q0 266 -60.5 383t-210.5 117q-75 0 -127.5 -33.5t-82.5 -100.5t-43 -155.5t-13 -210.5z" />
<glyph unicode="R" horiz-adv-x="1234" d="M141 0v1475h428q103 0 189 -14.5t160.5 -47t125.5 -83t80 -125.5t29 -171q0 -317 -287 -416l353 -618h-349l-290 569h-131v-569h-308zM449 809h145q131 0 193.5 51.5t62.5 165.5q0 96 -64.5 145.5t-191.5 49.5h-145v-412z" />
<glyph unicode="S" horiz-adv-x="1095" d="M41 369h276q10 -73 68.5 -108.5t151.5 -35.5q107 0 161 45t54 123q0 72 -45.5 117t-180.5 96l-69 25q-95 35 -162.5 74t-120 92.5t-78.5 124t-26 159.5q0 185 131.5 301.5t359.5 116.5q140 0 244 -38.5t165 -119t64 -196.5h-276q-24 104 -199 104q-89 0 -145 -41 t-56 -112q0 -70 44 -113.5t153 -85.5l70 -27q61 -23 105 -41.5t91 -44t79.5 -51t63 -59.5t48.5 -73t28.5 -89t10.5 -109q0 -198 -145.5 -313t-379.5 -115q-96 0 -180 21.5t-153.5 66.5t-110 123.5t-41.5 182.5z" />
<glyph unicode="T" horiz-adv-x="1157" d="M33 1212v263h1091v-263h-385v-1212h-317v1212h-389z" />
<glyph unicode="U" horiz-adv-x="1298" d="M109 547v928h317v-971q0 -135 52.5 -200.5t166.5 -65.5q117 0 172 66t55 200v971h318v-930q0 -280 -134 -425t-417 -145q-277 0 -403.5 141t-126.5 431z" />
<glyph unicode="V" horiz-adv-x="1241" d="M0 1475h346l182 -820q11 -45 62 -301h10q35 154 76 297l242 824h323l-498 -1475h-340z" />
<glyph unicode="W" horiz-adv-x="1622" d="M68 1475h323l66 -861q3 -48 10 -217h14q14 86 39 166l174 606h252l150 -608q31 -116 37 -164h12q4 111 16 213l111 865h315l-252 -1475h-346l-112 428q-46 183 -62 262h-8q-9 -34 -40.5 -137t-37.5 -125l-137 -428h-346z" />
<glyph unicode="X" horiz-adv-x="1249" d="M0 0l461 754l-432 721h354l149 -283q64 -114 103 -203h6q47 96 109 203l163 283h322l-436 -719l450 -756h-352l-168 309q-92 179 -100 203h-8q-9 -19 -30 -58.5t-46.5 -85.5t-32.5 -59l-182 -309h-330z" />
<glyph unicode="Y" horiz-adv-x="1183" d="M-20 1475h354l166 -363q19 -38 56 -126.5t48 -119.5h8q49 119 111 246l170 363h326l-465 -877v-598h-318v598z" />
<glyph unicode="Z" horiz-adv-x="1136" d="M68 0v199l464 764l154 243v8q-33 -2 -221 -2h-369v263h963v-199l-463 -764q-119 -198 -152 -244v-8q2 0 91.5 1t123.5 1h426v-262h-1017z" />
<glyph unicode="[" horiz-adv-x="702" d="M123 -393v1949h555v-223h-266v-1503h266v-223h-555z" />
<glyph unicode="\" horiz-adv-x="806" d="M-10 1559h293l573 -1743h-293z" />
<glyph unicode="]" horiz-adv-x="702" d="M23 -170h268v1503h-268v223h557v-1949h-557v223z" />
<glyph unicode="^" horiz-adv-x="1038" d="M6 791l408 684h217l401 -684h-291l-223 403l-231 -403h-281z" />
<glyph unicode="_" horiz-adv-x="931" d="M-8 -109h948v-192h-948v192z" />
<glyph unicode="`" horiz-adv-x="802" d="M164 1475h338l145 -271h-237z" />
<glyph unicode="a" horiz-adv-x="1085" d="M59 289q0 165 110 256.5t337 91.5h164v84q0 75 -36.5 106t-111.5 31q-122 0 -141 -84h-270q10 160 125 243t290 83q210 0 322.5 -91.5t112.5 -279.5v-729h-263v94h-10q-100 -114 -297 -114q-155 0 -243.5 82t-88.5 227zM348 317q0 -52 32.5 -80t96.5 -28q89 0 141 49.5 t52 138.5v52h-129q-193 0 -193 -132z" />
<glyph unicode="b" horiz-adv-x="1198" d="M133 0v1475h301v-531h8q34 69 106 112.5t165 43.5q91 0 163 -29t119.5 -79t79 -122t45 -154t13.5 -179q0 -119 -29.5 -221t-85 -178t-142 -119.5t-194.5 -43.5q-93 0 -160.5 38t-101.5 102h-8v-115h-279zM434 489q0 -127 49 -188t138 -61q202 0 202 297q0 157 -48 228 t-144 71q-91 0 -144 -69.5t-53 -201.5v-76z" />
<glyph unicode="c" horiz-adv-x="1048" d="M59 537q0 90 16.5 170.5t54 153t93 125t139 83.5t187.5 31q188 0 306.5 -95.5t125.5 -275.5h-289q-27 107 -139 107q-97 0 -140.5 -72t-43.5 -227q0 -161 40 -229t132 -68q128 0 159 104h281q-17 -169 -135 -269t-309 -100q-105 0 -187.5 28.5t-136.5 78t-89 121.5 t-50 154t-15 180z" />
<glyph unicode="d" horiz-adv-x="1198" d="M68 541q0 161 49 285.5t150 199t241 74.5q167 0 248 -123h8v498h301v-1475h-277v131h-10q-83 -156 -299 -156q-88 0 -158 29t-117 80t-78 123t-44.5 154.5t-13.5 179.5zM377 543q0 -160 47 -231.5t145 -71.5q91 0 143 68.5t52 199.5v84q0 124 -47.5 185t-134.5 61 q-205 0 -205 -295z" />
<glyph unicode="e" horiz-adv-x="1081" d="M59 537q0 114 28 211.5t85.5 178t156.5 127t230 46.5q95 0 171 -25.5t129 -72.5t88.5 -114t52 -148t16.5 -177q0 -61 -2 -94h-658v-2q0 -123 52.5 -182.5t142.5 -59.5q138 0 168 90h282q-22 -154 -150 -247t-312 -93q-128 0 -222 41t-149.5 117t-82 176t-26.5 228z M360 666h361v4q-2 94 -39.5 144t-128.5 50q-87 0 -136 -51t-57 -147z" />
<glyph unicode="f" horiz-adv-x="772" d="M20 825v250h175v23q0 186 105 288.5t290 102.5q79 0 174 -14v-236h-123q-76 0 -110.5 -33t-34.5 -110v-21h247v-250h-247v-825h-301v825h-175z" />
<glyph unicode="g" horiz-adv-x="1187" d="M72 553q0 244 116 395.5t328 151.5q86 0 152 -39.5t100 -102.5h10v117h277v-997q0 -105 -27 -191.5t-84 -156.5t-157 -109t-236 -39q-207 0 -326 91t-123 257h293q23 -104 164 -104q102 0 148.5 51t46.5 150v127h-9q-36 -60 -103 -94.5t-157 -34.5q-413 0 -413 528z M381 555q0 -157 46 -221t142 -64q90 0 138.5 68t48.5 201v51q0 248 -176 248q-106 0 -152.5 -71.5t-46.5 -211.5z" />
<glyph unicode="h" horiz-adv-x="1185" d="M133 0v1475h301v-512h8q42 67 115 102t164 35q344 0 344 -379v-721h-301v688q0 76 -36 111t-107 35q-84 0 -135.5 -55t-51.5 -150v-629h-301z" />
<glyph unicode="i" horiz-adv-x="567" d="M133 0v1075h301v-1075h-301zM133 1212v263h301v-263h-301z" />
<glyph unicode="j" horiz-adv-x="567" d="M-37 -154h8q91 0 126.5 34t35.5 106v1089h301v-1065q0 -97 -18 -169t-59 -128t-115.5 -85t-180.5 -29q-59 0 -98 8v239zM133 1212v263h301v-263h-301z" />
<glyph unicode="k" horiz-adv-x="1122" d="M133 0v1475h301v-818h12q87 121 99 136l221 282h348l-422 -491l438 -584h-366l-229 326q-66 102 -89 141h-12v-467h-301z" />
<glyph unicode="l" horiz-adv-x="567" d="M133 0v1475h301v-1475h-301z" />
<glyph unicode="m" horiz-adv-x="1708" d="M133 0v1075h281v-131h8q80 156 276 156q98 0 166 -40.5t94 -115.5h9q89 156 290 156q330 0 330 -361v-739h-301v682q0 77 -28 114.5t-91 37.5q-76 0 -115.5 -52.5t-39.5 -144.5v-637h-301v682q0 76 -27 114t-92 38q-77 0 -117.5 -53t-40.5 -144v-637h-301z" />
<glyph unicode="n" horiz-adv-x="1185" d="M133 0v1075h281v-133h8q83 158 297 158q346 0 346 -379v-721h-301v692q0 142 -143 142q-84 0 -135.5 -55t-51.5 -150v-629h-301z" />
<glyph unicode="o" d="M59 537q0 90 16 170t53.5 153t93 125.5t141 83.5t192.5 31q130 0 226.5 -39t155.5 -114t87.5 -176.5t28.5 -233.5q0 -90 -17 -170.5t-55.5 -153t-95 -125t-141.5 -83t-189 -30.5q-130 0 -226.5 39.5t-155 114.5t-86.5 176.5t-28 231.5zM369 537q0 -166 42.5 -235 t143.5 -69q99 0 143.5 73.5t44.5 230.5q0 165 -44 235t-144 70t-143 -73.5t-43 -231.5z" />
<glyph unicode="p" horiz-adv-x="1196" d="M133 -393v1468h279v-139h8q90 164 301 164q110 0 190.5 -43t127.5 -121t69 -176.5t22 -220.5q0 -160 -49 -286t-150.5 -202t-240.5 -76q-174 0 -248 121h-8v-489h-301zM434 483q0 -243 187 -243q200 0 200 297q0 159 -47 229t-145 70q-91 0 -143 -69.5t-52 -201.5v-82z " />
<glyph unicode="q" horiz-adv-x="1198" d="M68 539q0 161 49.5 286t152.5 200t246 75q92 0 160 -41t102 -107h10v123h277v-1468h-301v518h-8q-37 -68 -107 -109t-162 -41q-113 0 -196 43.5t-130.5 122t-70 177.5t-22.5 221zM377 541q0 -160 46.5 -230.5t143.5 -70.5q93 0 145 68.5t52 199.5v84q0 248 -182 248 q-205 0 -205 -299z" />
<glyph unicode="r" horiz-adv-x="792" d="M133 0v1075h275v-131h8q32 69 99 108.5t153 39.5q38 0 94 -9v-272h-80q-119 0 -183.5 -45t-64.5 -158v-608h-301z" />
<glyph unicode="s" horiz-adv-x="966" d="M59 299h267q8 -43 47.5 -67.5t107.5 -24.5q73 0 109.5 24.5t36.5 65.5t-30.5 65.5t-135.5 53.5l-45 12q-64 18 -111.5 36.5t-91.5 47t-72 62.5t-44.5 82t-16.5 108q0 105 57.5 182.5t148 115.5t199.5 38q193 0 306 -77t114 -237h-276q-13 86 -133 86q-61 0 -98.5 -24 t-37.5 -64q0 -43 31.5 -66t122.5 -50l41 -13q95 -28 154.5 -53.5t108.5 -65t70 -94t21 -131.5q0 -106 -60 -183.5t-156.5 -115t-215.5 -37.5q-189 0 -299 79.5t-119 244.5z" />
<glyph unicode="t" horiz-adv-x="802" d="M16 825v250h181l4 287h291v-287h235v-250h-235v-432q0 -92 33 -120.5t120 -28.5h98v-242q-92 -14 -186 -14q-184 0 -275.5 79t-91.5 269v489h-174z" />
<glyph unicode="u" horiz-adv-x="1173" d="M121 354v721h301v-694q0 -73 33 -107t102 -34q83 0 132.5 52t49.5 146v637h301v-1075h-280v131h-8q-75 -156 -285 -156q-346 0 -346 379z" />
<glyph unicode="v" horiz-adv-x="1040" d="M-16 1075h329l115 -469q62 -255 68 -289h12q27 113 86 291l147 467h316l-420 -1075h-295z" />
<glyph unicode="w" horiz-adv-x="1398" d="M33 1075h315l55 -489q14 -117 17 -183h12q9 32 62 189l104 307h227l84 -307q35 -144 41 -189h17q13 106 28 183l82 489h305l-268 -1075h-287l-67 246q-60 221 -66 260h-12q-72 -230 -82 -258l-84 -248h-285z" />
<glyph unicode="x" horiz-adv-x="1056" d="M0 0l371 547l-346 528h331l97 -164q44 -68 86 -155h8q16 37 86 153l98 166h311l-348 -524l363 -551h-336l-111 184q-43 70 -80 150h-8q-23 -45 -88 -150l-123 -184h-311z" />
<glyph unicode="y" horiz-adv-x="1058" d="M-8 1075h330l153 -551q34 -134 45 -196h12q11 57 56 198l166 549h321l-407 -1065q-32 -83 -63.5 -144t-73.5 -113.5t-92 -85t-115 -50.5t-146 -18q-52 0 -104 8v239h49q88 0 141.5 34t85.5 114l10 29z" />
<glyph unicode="z" horiz-adv-x="997" d="M68 0v180l335 461l138 182v8q-55 -4 -193 -4h-268v248h844v-182l-338 -463q-96 -128 -140 -176v-8q55 2 191 2h293v-248h-862z" />
<glyph unicode="{" horiz-adv-x="651" d="M23 467v217q81 6 117 43.5t36 93.5v412q0 323 359 323h94v-223h-51q-125 0 -125 -133v-389q0 -188 -144 -236v-8q144 -53 144 -235v-369q0 -133 125 -133h51v-223h-94q-359 0 -359 323v400q0 56 -36 93.5t-117 43.5z" />
<glyph unicode="|" horiz-adv-x="550" d="M154 -393v1949h243v-1949h-243z" />
<glyph unicode="}" horiz-adv-x="651" d="M23 -170h53q123 0 123 133v369q0 184 143 233v8q-143 50 -143 238v389q0 133 -123 133h-53v223h96q358 0 358 -323v-412q0 -57 35.5 -94t116.5 -43v-217q-81 -6 -116.5 -43t-35.5 -94v-400q0 -323 -358 -323h-96v223z" />
<glyph unicode="~" horiz-adv-x="1216" d="M63 412q1 98 28 171t74 115t104.5 62t125.5 20q136 0 283 -90q56 -34 83 -44.5t60 -10.5q87 0 92 127h238q0 -98 -26.5 -171t-74 -115t-105 -62.5t-126.5 -20.5q-79 0 -139 22t-129 66q-54 34 -82 46t-59 12q-44 0 -74 -29.5t-33 -97.5h-240z" />
<glyph unicode="&#xa1;" horiz-adv-x="655" d="M164 -135l37 747h252l39 -747v-264h-328v264zM170 780v295h317v-295h-317z" />
<glyph unicode="&#xa2;" horiz-adv-x="1034" d="M57 537q0 102 22 192t67.5 167t123.5 128.5t181 67.5v196h159v-192q161 -14 259.5 -106t105.5 -255h-281q-11 88 -100 105v-604q92 14 108 104h275q-15 -151 -112 -245t-255 -113v-195h-159v193q-394 43 -394 557zM352 537q0 -145 25 -213.5t92 -85.5v598 q-65 -21 -91 -93t-26 -206z" />
<glyph unicode="&#xa3;" horiz-adv-x="1181" d="M78 0v262h160q32 94 32 227q0 59 -6 105h-186v237h155q-22 154 -22 220q0 143 65.5 246t173 152.5t244.5 49.5q199 0 320.5 -92t130.5 -262h-281q-30 96 -172 96q-81 0 -131.5 -51.5t-50.5 -140.5q0 -37 4 -72t12.5 -83t10.5 -63h294v-237h-270q0 -16 1 -37.5t1 -24.5 q0 -142 -35 -270h611v-262h-1061z" />
<glyph unicode="&#xa5;" horiz-adv-x="1171" d="M0 1475h330l155 -363q31 -69 101 -248h8q12 32 51 123.5t57 124.5l158 363h311l-376 -746h233v-180h-301v-131h301v-180h-301v-238h-297v238h-303v180h303v131h-303v180h238z" />
<glyph unicode="&#xa6;" horiz-adv-x="550" d="M154 377h243v-770h-243v770zM154 786v770h243v-770h-243z" />
<glyph unicode="&#xa7;" horiz-adv-x="1091" d="M23 614q0 97 53.5 172.5t150.5 120.5q-96 89 -96 230q0 157 123 249.5t313 92.5q186 0 299 -80.5t117 -229.5h-274q-10 42 -50 62t-98 20q-68 0 -106.5 -29t-38.5 -73q0 -49 35 -77.5t122 -61.5l117 -43q76 -29 129 -54t103.5 -58.5t80.5 -70t48 -86.5t18 -110 q0 -96 -53.5 -172t-147.5 -121q103 -90 103 -232q0 -108 -61.5 -189t-165 -122t-232.5 -41q-195 0 -317 85t-125 235h274q9 -45 57 -69.5t123 -24.5q79 0 121.5 32.5t42.5 81.5q0 47 -39 75.5t-131 63.5l-112 43q-76 29 -130 54t-105 59t-81.5 71t-48.5 87t-18 110zM319 643 q0 -49 38 -90t137 -78l127 -49l16 -6q69 10 102 49.5t33 89.5t-37 89.5t-135 76.5l-127 49l-18 6q-71 -11 -103.5 -49.5t-32.5 -87.5z" />
<glyph unicode="&#xa8;" horiz-adv-x="802" d="M72 1212v263h260v-263h-260zM465 1212v263h266v-263h-266z" />
<glyph unicode="&#xa9;" horiz-adv-x="1658" d="M78 737q0 160 54.5 300t151.5 242t238 161t307 59q173 0 315 -56.5t237.5 -157t147.5 -241t52 -307.5q0 -214 -93.5 -387.5t-266 -274t-392.5 -100.5q-231 0 -402.5 97t-260 268.5t-88.5 396.5zM209 737q0 -188 71.5 -333t213.5 -229.5t335 -84.5q186 0 328 85 t217.5 231.5t75.5 330.5q0 187 -72.5 332.5t-214.5 230t-334 84.5q-186 0 -328.5 -85t-217 -231.5t-74.5 -330.5zM430 733q0 210 113.5 333.5t304.5 123.5q88 0 162.5 -31t124.5 -95.5t55 -152.5h-203q-27 86 -147 86q-93 0 -141 -67t-48 -197q0 -138 47.5 -199t135.5 -61 q114 0 153 86h203q-17 -128 -122.5 -203t-238.5 -75q-196 0 -297.5 116.5t-101.5 335.5z" />
<glyph unicode="&#xaa;" horiz-adv-x="841" d="M55 850q0 134 89.5 208.5t271.5 74.5h129v67q0 57 -28 80t-87 23q-103 0 -115 -68h-219q1 88 48.5 150t122 90t167.5 28q170 0 263.5 -75t93.5 -224v-590h-230v84h-8q-74 -100 -227 -100q-125 0 -198 67t-73 185zM291 872q0 -90 102 -90q68 0 110 40t42 110v41h-99 q-77 0 -116 -23t-39 -78z" />
<glyph unicode="&#xab;" horiz-adv-x="847" d="M8 539l193 325h243l-184 -317l178 -318h-252zM406 547l190 317h244l-187 -309l181 -326h-252z" />
<glyph unicode="&#xad;" horiz-adv-x="776" d="M59 401v271h662v-271h-662z" />
<glyph unicode="&#xae;" horiz-adv-x="1130" d="M55 995q0 217 143 360.5t367 143.5q151 0 268 -66t180.5 -180.5t63.5 -257.5q0 -217 -142.5 -360t-369.5 -143q-226 0 -368 142.5t-142 360.5zM152 995q0 -177 114.5 -296t298.5 -119q185 0 299.5 119t114.5 296t-114.5 296.5t-299.5 119.5q-184 0 -298.5 -119.5 t-114.5 -296.5zM356 731v541h234q95 0 148 -48.5t53 -123.5q0 -114 -103 -156l123 -213h-149l-103 193h-70v-193h-133zM489 1026h80q86 0 86 70q0 63 -75 63h-91v-133z" />
<glyph unicode="&#xaf;" horiz-adv-x="802" d="M82 1235v197h639v-197h-639z" />
<glyph unicode="&#xb0;" horiz-adv-x="696" d="M23 1167q0 138 94 229t229 91q136 0 231 -90.5t95 -229.5q0 -142 -94 -229.5t-232 -87.5t-230.5 85.5t-92.5 231.5zM186 1167q0 -75 44.5 -120.5t115.5 -45.5q72 0 119 46t47 120q0 73 -47.5 120.5t-118.5 47.5q-70 0 -115 -47t-45 -121z" />
<glyph unicode="&#xb1;" horiz-adv-x="1159" d="M100 0v262h959v-262h-959zM100 668v262h338v284h283v-284h338v-262h-338v-287h-283v287h-338z" />
<glyph unicode="&#xb2;" horiz-adv-x="757" d="M31 526v150q52 80 157 182l146 148q65 65 94 112t29 92q0 41 -25 62.5t-67 21.5q-41 0 -68 -21.5t-33 -60.5h-229q0 130 92.5 208.5t243.5 78.5q142 0 236.5 -73.5t94.5 -206.5q0 -97 -57.5 -184.5t-187.5 -200.5l-111 -101v-8h350v-199h-665z" />
<glyph unicode="&#xb3;" horiz-adv-x="833" d="M47 788h236q21 -79 118 -79q52 0 87.5 25t35.5 73q0 108 -170 108h-69v191h67q156 0 156 108q0 84 -98 84q-102 0 -107 -86h-229q-6 127 90.5 207t251.5 80q47 0 91.5 -8.5t87.5 -28t75 -49.5t51.5 -76t19.5 -104q0 -68 -34 -120t-101 -79v-8q156 -57 156 -223 q0 -140 -102 -216.5t-263 -76.5q-164 0 -255.5 72.5t-94.5 205.5z" />
<glyph unicode="&#xb4;" horiz-adv-x="802" d="M152 1204l153 271h336l-256 -271h-233z" />
<glyph unicode="&#xb5;" horiz-adv-x="1179" d="M131 -393v1468h301v-694q0 -73 33.5 -107t101.5 -34q84 0 133.5 52t49.5 146v637h301v-1075h-263v133h-10q-64 -145 -223 -145q-105 0 -158 65h-8l17 -413v-33h-275z" />
<glyph unicode="&#xb6;" horiz-adv-x="1251" d="M49 1055q0 109 41 192t114 131.5t165.5 72.5t203.5 24h639v-164h-145v-1475h-184v1475h-170v-1475h-185v807q-101 0 -185 22.5t-151.5 70t-105 129t-37.5 190.5z" />
<glyph unicode="&#xb7;" horiz-adv-x="532" d="M111 436v312h315v-312h-315z" />
<glyph unicode="&#xb8;" horiz-adv-x="802" d="M170 -319h70q88 0 124.5 11t36.5 48q0 28 -32 42.5t-115 14.5h-16v8l86 250h135l-39 -139q211 -21 211 -172q0 -201 -316 -201q-65 0 -145 13v125z" />
<glyph unicode="&#xb9;" horiz-adv-x="616" d="M66 1163v199l227 121h170v-957h-248v695l-133 -58h-16z" />
<glyph unicode="&#xba;" horiz-adv-x="884" d="M37 1044q0 93 22 172t68 144t126.5 102t188.5 37q209 0 307.5 -119.5t98.5 -335.5q0 -92 -23 -171t-69.5 -143t-127 -101t-186.5 -37q-209 0 -307 118.5t-98 333.5zM299 1044q0 -126 33 -179.5t110 -53.5q76 0 111 56t35 177q0 125 -34.5 179.5t-111.5 54.5 q-76 0 -109.5 -56.5t-33.5 -177.5z" />
<glyph unicode="&#xbb;" horiz-adv-x="847" d="M8 229l189 310l-181 325h252l176 -317l-190 -318h-246zM406 229l184 318l-178 317h252l176 -309l-193 -326h-241z" />
<glyph unicode="&#xbc;" horiz-adv-x="1839" d="M78 1163v199l227 121h170v-957h-248v695l-133 -58h-16zM299 -25l891 1516h244l-889 -1516h-246zM991 215v178l346 563h318v-546h108v-195h-108v-215h-234v215h-430zM1235 410h199v32q0 2 5 156.5t5 157.5h-14q-16 -32 -138 -248z" />
<glyph unicode="&#xbd;" horiz-adv-x="1916" d="M78 1163v199l227 121h170v-957h-248v695l-133 -58h-16zM299 -25l891 1516h244l-889 -1516h-246zM1165 0v147q52 80 158 183l145 149q64 64 93.5 112t29.5 93q0 41 -25 62.5t-67 21.5q-41 0 -67.5 -22t-32.5 -62h-230q0 130 92.5 209.5t243.5 79.5q142 0 237 -74.5 t95 -208.5q0 -96 -58 -182.5t-188 -200.5l-110 -100v-8h350v-199h-666z" />
<glyph unicode="&#xbe;" horiz-adv-x="2054" d="M74 788h235q21 -79 119 -79q52 0 87.5 25t35.5 73q0 108 -170 108h-70v191h68q156 0 156 108q0 84 -99 84q-101 0 -106 -86h-230q-6 127 90.5 207t251.5 80q47 0 91.5 -8.5t88 -28t75.5 -49.5t51.5 -76t19.5 -104q0 -68 -34 -120t-101 -79v-8q155 -57 155 -223 q0 -140 -101.5 -216.5t-262.5 -76.5q-164 0 -255.5 72.5t-94.5 205.5zM516 -25l891 1516h244l-889 -1516h-246zM1208 215v178l346 563h318v-546h108v-195h-108v-215h-234v215h-430zM1452 410h199v32q0 2 5 156.5t5 157.5h-14q-16 -32 -138 -248z" />
<glyph unicode="&#xbf;" horiz-adv-x="1005" d="M23 -47q0 112 47.5 198t148.5 183q107 102 142.5 158t41.5 120h287v-14q0 -64 -13 -115t-46 -101.5t-71.5 -92.5t-106.5 -107q-55 -52 -83 -98.5t-28 -99.5q0 -65 43 -101.5t119 -36.5q79 0 132 29t66 88h287q-5 -166 -138.5 -276.5t-356.5 -110.5q-209 0 -340 102.5 t-131 274.5zM391 780v295h316v-295h-316z" />
<glyph unicode="&#xc0;" horiz-adv-x="1292" d="M8 0l481 1475h359l436 -1475h-323l-93 334h-454l-105 -334h-301zM348 1819h336l123 -242h-238zM483 578h326l-61 233q-62 228 -86 360h-15q-9 -40 -98 -360z" />
<glyph unicode="&#xc1;" horiz-adv-x="1292" d="M8 0l481 1475h359l436 -1475h-323l-93 334h-454l-105 -334h-301zM483 578h326l-61 233q-62 228 -86 360h-15q-9 -40 -98 -360zM524 1577l127 242h336l-229 -242h-234z" />
<glyph unicode="&#xc2;" horiz-adv-x="1292" d="M8 0l481 1475h359l436 -1475h-323l-93 334h-454l-105 -334h-301zM301 1577l246 242h258l227 -242h-244l-120 94l-121 -94h-246zM483 578h326l-61 233q-62 228 -86 360h-15q-9 -40 -98 -360z" />
<glyph unicode="&#xc3;" horiz-adv-x="1292" d="M8 0l481 1475h359l436 -1475h-323l-93 334h-454l-105 -334h-301zM295 1577q0 74 20.5 128.5t55.5 85t75 44.5t86 14q81 0 185 -53q64 -31 84 -31q57 0 65 76h183q-1 -74 -21.5 -129t-55.5 -85t-75 -44t-86 -14q-36 0 -70.5 8.5t-55 17t-58.5 27.5q-60 31 -82 31 q-58 0 -66 -76h-184zM483 578h326l-61 233q-62 228 -86 360h-15q-9 -40 -98 -360z" />
<glyph unicode="&#xc4;" horiz-adv-x="1292" d="M8 0l481 1475h359l436 -1475h-323l-93 334h-454l-105 -334h-301zM340 1577v242h260v-242h-260zM483 578h326l-61 233q-62 228 -86 360h-15q-9 -40 -98 -360zM733 1577v242h266v-242h-266z" />
<glyph unicode="&#xc5;" horiz-adv-x="1292" d="M8 0l481 1475h359l436 -1475h-323l-93 334h-454l-105 -334h-301zM459 1782q0 88 59.5 144t151.5 56q94 0 152.5 -55.5t58.5 -144.5q0 -87 -60.5 -144t-150.5 -57q-93 0 -152 56.5t-59 144.5zM483 578h326l-61 233q-62 228 -86 360h-15q-9 -40 -98 -360zM569 1782 q0 -43 28.5 -73t72.5 -30q42 0 71 30t29 73q0 44 -28.5 73t-71.5 29q-44 0 -72.5 -29t-28.5 -73z" />
<glyph unicode="&#xc6;" horiz-adv-x="1888" d="M-33 0l742 1475h1101v-263h-600v-331h437v-263h-437v-356h621v-262h-938v356h-424l-174 -356h-328zM584 612h309v602h-35q-34 -91 -172 -385z" />
<glyph unicode="&#xc7;" horiz-adv-x="1193" d="M59 737q0 370 152 566t438 196q219 0 351 -103.5t153 -303.5h-305q-38 145 -195 145q-145 0 -207.5 -119.5t-62.5 -380.5q0 -277 59.5 -388t196.5 -111q171 0 207 151h301q-24 -175 -150.5 -288.5t-330.5 -123.5l-17 -61q211 -21 211 -172q0 -201 -315 -201 q-66 0 -146 13v125h70q90 0 126 11t36 48q0 28 -32 42.5t-114 14.5h-18v8l59 177q-248 29 -357.5 214.5t-109.5 540.5z" />
<glyph unicode="&#xc8;" horiz-adv-x="1138" d="M141 0v1475h920v-263h-602v-331h438v-263h-438v-356h620v-262h-938zM309 1819h336l123 -242h-238z" />
<glyph unicode="&#xc9;" horiz-adv-x="1138" d="M141 0v1475h920v-263h-602v-331h438v-263h-438v-356h620v-262h-938zM453 1577l127 242h335l-229 -242h-233z" />
<glyph unicode="&#xca;" horiz-adv-x="1138" d="M141 0v1475h920v-263h-602v-331h438v-263h-438v-356h620v-262h-938zM242 1577l245 242h258l228 -242h-244l-121 94l-121 -94h-245z" />
<glyph unicode="&#xcb;" horiz-adv-x="1138" d="M141 0v1475h920v-263h-602v-331h438v-263h-438v-356h620v-262h-938zM276 1577v242h261v-242h-261zM670 1577v242h266v-242h-266z" />
<glyph unicode="&#xcc;" horiz-adv-x="602" d="M-2 1819h336l123 -242h-238zM141 0v1475h318v-1475h-318z" />
<glyph unicode="&#xcd;" horiz-adv-x="602" d="M141 0v1475h318v-1475h-318zM147 1577l127 242h336l-229 -242h-234z" />
<glyph unicode="&#xce;" horiz-adv-x="602" d="M-66 1577l246 242h258l228 -242h-244l-121 94l-121 -94h-246zM141 0v1475h318v-1475h-318z" />
<glyph unicode="&#xcf;" horiz-adv-x="602" d="M-29 1577v242h260v-242h-260zM141 0v1475h318v-1475h-318zM365 1577v242h266v-242h-266z" />
<glyph unicode="&#xd0;" horiz-adv-x="1304" d="M20 668v204h121v603h389q365 0 541 -180t176 -537q0 -372 -185.5 -565t-549.5 -193h-371v668h-121zM459 262h80q200 0 292.5 116.5t92.5 375.5q0 252 -86.5 355t-294.5 103h-84v-340h235v-204h-235v-406z" />
<glyph unicode="&#xd1;" horiz-adv-x="1345" d="M141 0v1475h318l268 -512q50 -94 111.5 -231t83.5 -202h12q-19 165 -19 482v463h289v-1475h-311l-268 508q-50 97 -112 236t-85 204h-12q14 -146 14 -499v-449h-289zM315 1577q0 74 20.5 128.5t55.5 85t75.5 44.5t86.5 14q80 0 184 -53q64 -31 84 -31q58 0 66 76h182 q-1 -74 -21.5 -129t-55.5 -85t-75 -44t-86 -14q-36 0 -70.5 8.5t-55 17t-58.5 27.5q-60 31 -82 31q-57 0 -65 -76h-185z" />
<glyph unicode="&#xd2;" horiz-adv-x="1300" d="M59 737q0 373 151 567.5t439 194.5q302 0 448 -183.5t146 -578.5q0 -373 -151 -567.5t-439 -194.5q-149 0 -257.5 41t-185 131t-114 236.5t-37.5 353.5zM377 1819h336l123 -242h-238zM383 737q0 -194 25.5 -301t82.5 -152.5t160 -45.5q144 0 207.5 118.5t63.5 380.5 q0 266 -60.5 383t-212.5 117q-145 0 -205.5 -126t-60.5 -374z" />
<glyph unicode="&#xd3;" horiz-adv-x="1300" d="M59 737q0 373 151 567.5t439 194.5q302 0 448 -183.5t146 -578.5q0 -373 -151 -567.5t-439 -194.5q-149 0 -257.5 41t-185 131t-114 236.5t-37.5 353.5zM383 737q0 -194 25.5 -301t82.5 -152.5t160 -45.5q144 0 207.5 118.5t63.5 380.5q0 266 -60.5 383t-212.5 117 q-145 0 -205.5 -126t-60.5 -374zM528 1577l127 242h336l-229 -242h-234z" />
<glyph unicode="&#xd4;" horiz-adv-x="1300" d="M59 737q0 373 151 567.5t439 194.5q302 0 448 -183.5t146 -578.5q0 -373 -151 -567.5t-439 -194.5q-149 0 -257.5 41t-185 131t-114 236.5t-37.5 353.5zM303 1577l246 242h258l227 -242h-243l-121 94l-121 -94h-246zM383 737q0 -194 25.5 -301t82.5 -152.5t160 -45.5 q144 0 207.5 118.5t63.5 380.5q0 266 -60.5 383t-212.5 117q-145 0 -205.5 -126t-60.5 -374z" />
<glyph unicode="&#xd5;" horiz-adv-x="1300" d="M59 737q0 373 151 567.5t439 194.5q302 0 448 -183.5t146 -578.5q0 -373 -151 -567.5t-439 -194.5q-149 0 -257.5 41t-185 131t-114 236.5t-37.5 353.5zM301 1577q0 74 20.5 128.5t55.5 85t75.5 44.5t86.5 14q80 0 184 -53q64 -31 84 -31q57 0 65 76h183 q-1 -74 -21.5 -129t-55.5 -85t-75 -44t-86 -14q-36 0 -70.5 8.5t-55 17t-58.5 27.5q-60 31 -82 31q-58 0 -66 -76h-184zM383 737q0 -194 25.5 -301t82.5 -152.5t160 -45.5q144 0 207.5 118.5t63.5 380.5q0 266 -60.5 383t-212.5 117q-145 0 -205.5 -126t-60.5 -374z" />
<glyph unicode="&#xd6;" horiz-adv-x="1300" d="M59 737q0 373 151 567.5t439 194.5q302 0 448 -183.5t146 -578.5q0 -373 -151 -567.5t-439 -194.5q-149 0 -257.5 41t-185 131t-114 236.5t-37.5 353.5zM342 1577v242h260v-242h-260zM383 737q0 -194 25.5 -301t82.5 -152.5t160 -45.5q144 0 207.5 118.5t63.5 380.5 q0 266 -60.5 383t-212.5 117q-145 0 -205.5 -126t-60.5 -374zM735 1577v242h266v-242h-266z" />
<glyph unicode="&#xd7;" horiz-adv-x="1060" d="M43 1001l190 175l302 -316l299 316l186 -170l-309 -322l307 -330l-195 -172l-297 318l-295 -314l-186 172l307 320z" />
<glyph unicode="&#xd8;" horiz-adv-x="1300" d="M59 737q0 373 151 567.5t439 194.5q153 0 260 -45l52 98h251l-120 -231q151 -186 151 -584q0 -373 -151 -567.5t-439 -194.5q-139 0 -254 39l-57 -108h-250l121 235q-154 183 -154 596zM383 737q0 -185 23 -288l387 749q-56 39 -144 39q-145 0 -205.5 -126t-60.5 -374z M514 266q52 -28 137 -28q144 0 207.5 118.5t63.5 380.5q0 169 -23 273z" />
<glyph unicode="&#xd9;" horiz-adv-x="1298" d="M109 547v928h317v-971q0 -135 52.5 -200.5t166.5 -65.5q117 0 172 66t55 200v971h318v-930q0 -280 -134 -425t-417 -145q-277 0 -403.5 141t-126.5 431zM350 1819h336l123 -242h-238z" />
<glyph unicode="&#xda;" horiz-adv-x="1298" d="M109 547v928h317v-971q0 -135 52.5 -200.5t166.5 -65.5q117 0 172 66t55 200v971h318v-930q0 -280 -134 -425t-417 -145q-277 0 -403.5 141t-126.5 431zM510 1577l127 242h336l-230 -242h-233z" />
<glyph unicode="&#xdb;" horiz-adv-x="1298" d="M109 547v928h317v-971q0 -135 52.5 -200.5t166.5 -65.5q117 0 172 66t55 200v971h318v-930q0 -280 -134 -425t-417 -145q-277 0 -403.5 141t-126.5 431zM285 1577l245 242h258l228 -242h-244l-121 94l-121 -94h-245z" />
<glyph unicode="&#xdc;" horiz-adv-x="1298" d="M109 547v928h317v-971q0 -135 52.5 -200.5t166.5 -65.5q117 0 172 66t55 200v971h318v-930q0 -280 -134 -425t-417 -145q-277 0 -403.5 141t-126.5 431zM324 1577v242h260v-242h-260zM717 1577v242h266v-242h-266z" />
<glyph unicode="&#xdd;" horiz-adv-x="1183" d="M-20 1475h354l166 -363q19 -38 56 -126.5t48 -119.5h8q49 119 111 246l170 363h326l-465 -877v-598h-318v598zM489 1577l127 242h336l-229 -242h-234z" />
<glyph unicode="&#xde;" horiz-adv-x="1198" d="M141 0v1475h308v-236h124q576 0 576 -467q0 -485 -592 -485h-108v-287h-308zM449 539h129q124 0 190 56.5t66 170.5q0 116 -62.5 165.5t-189.5 49.5h-133v-442z" />
<glyph unicode="&#xdf;" horiz-adv-x="1216" d="M133 0v1030q0 233 131.5 363.5t372.5 130.5q98 0 183 -24.5t151 -71t104.5 -121t38.5 -168.5q0 -103 -50.5 -192t-160.5 -126v-8q126 -43 191 -140.5t65 -232.5q0 -215 -136 -329.5t-368 -114.5q-47 0 -90 6v252h49q116 0 178 51t62 148q0 103 -66 151t-176 51l-47 2v240 l47 2q97 7 149 62t52 145q0 75 -48.5 117.5t-129.5 42.5q-89 0 -145 -54t-56 -165v-1047h-301z" />
<glyph unicode="&#xe0;" horiz-adv-x="1085" d="M59 289q0 165 110 256.5t337 91.5h164v84q0 75 -36.5 106t-111.5 31q-122 0 -141 -84h-270q10 160 125 243t290 83q210 0 322.5 -91.5t112.5 -279.5v-729h-263v94h-10q-100 -114 -297 -114q-155 0 -243.5 82t-88.5 227zM217 1475h338l145 -271h-237zM348 317 q0 -52 32.5 -80t96.5 -28q89 0 141 49.5t52 138.5v52h-129q-193 0 -193 -132z" />
<glyph unicode="&#xe1;" horiz-adv-x="1085" d="M59 289q0 165 110 256.5t337 91.5h164v84q0 75 -36.5 106t-111.5 31q-122 0 -141 -84h-270q10 160 125 243t290 83q210 0 322.5 -91.5t112.5 -279.5v-729h-263v94h-10q-100 -114 -297 -114q-155 0 -243.5 82t-88.5 227zM348 317q0 -52 32.5 -80t96.5 -28q89 0 141 49.5 t52 138.5v52h-129q-193 0 -193 -132zM387 1204l154 271h336l-256 -271h-234z" />
<glyph unicode="&#xe2;" horiz-adv-x="1085" d="M59 289q0 165 110 256.5t337 91.5h164v84q0 75 -36.5 106t-111.5 31q-122 0 -141 -84h-270q10 160 125 243t290 83q210 0 322.5 -91.5t112.5 -279.5v-729h-263v94h-10q-100 -114 -297 -114q-155 0 -243.5 82t-88.5 227zM176 1204l246 271h258l227 -271h-243l-121 117 l-121 -117h-246zM348 317q0 -52 32.5 -80t96.5 -28q89 0 141 49.5t52 138.5v52h-129q-193 0 -193 -132z" />
<glyph unicode="&#xe3;" horiz-adv-x="1085" d="M59 289q0 165 110 256.5t337 91.5h164v84q0 75 -36.5 106t-111.5 31q-122 0 -141 -84h-270q10 160 125 243t290 83q210 0 322.5 -91.5t112.5 -279.5v-729h-263v94h-10q-100 -114 -297 -114q-155 0 -243.5 82t-88.5 227zM166 1204q0 74 20.5 129t55.5 85t75 44.5t86 14.5 q79 0 185 -54q61 -30 84 -30q57 0 65 77h183q-1 -74 -21.5 -129.5t-55.5 -86t-75 -44.5t-86 -14q-36 0 -70.5 8.5t-55 17t-58.5 27.5q-60 31 -82 31q-58 0 -66 -76h-184zM348 317q0 -52 32.5 -80t96.5 -28q89 0 141 49.5t52 138.5v52h-129q-193 0 -193 -132z" />
<glyph unicode="&#xe4;" horiz-adv-x="1085" d="M59 289q0 165 110 256.5t337 91.5h164v84q0 75 -36.5 106t-111.5 31q-122 0 -141 -84h-270q10 160 125 243t290 83q210 0 322.5 -91.5t112.5 -279.5v-729h-263v94h-10q-100 -114 -297 -114q-155 0 -243.5 82t-88.5 227zM213 1212v263h260v-263h-260zM348 317 q0 -52 32.5 -80t96.5 -28q89 0 141 49.5t52 138.5v52h-129q-193 0 -193 -132zM606 1212v263h266v-263h-266z" />
<glyph unicode="&#xe5;" horiz-adv-x="1085" d="M59 289q0 165 110 256.5t337 91.5h164v84q0 75 -36.5 106t-111.5 31q-122 0 -141 -84h-270q10 160 125 243t290 83q210 0 322.5 -91.5t112.5 -279.5v-729h-263v94h-10q-100 -114 -297 -114q-155 0 -243.5 82t-88.5 227zM340 1382q0 87 60 143t151 56q94 0 152.5 -55 t58.5 -144q0 -88 -60.5 -145t-150.5 -57q-94 0 -152.5 56.5t-58.5 145.5zM348 317q0 -52 32.5 -80t96.5 -28q89 0 141 49.5t52 138.5v52h-129q-193 0 -193 -132zM451 1380q0 -43 28 -72.5t72 -29.5q43 0 71.5 29.5t28.5 72.5q0 44 -28.5 73.5t-71.5 29.5q-44 0 -72 -29 t-28 -74z" />
<glyph unicode="&#xe6;" horiz-adv-x="1683" d="M59 295q0 166 111 258t338 92h160v70q0 76 -36 109.5t-110 33.5q-59 0 -96.5 -21.5t-46.5 -62.5h-268q4 159 114.5 242.5t284.5 83.5q112 0 202.5 -39t125.5 -113h8q112 152 334 152q111 0 196 -39.5t137 -111.5t78.5 -168t26.5 -214q0 -40 -4 -106h-653v-2 q0 -120 53 -177t141 -57q131 0 168 90h279q-19 -155 -139.5 -247.5t-303.5 -92.5q-131 0 -223 42.5t-137 119.5h-11q-113 -162 -376 -162q-158 0 -255.5 87.5t-97.5 232.5zM348 328q0 -54 33 -86.5t96 -32.5q89 0 140 49t51 139v64h-136q-91 0 -137.5 -31t-46.5 -102z M963 645h362v10q0 205 -170 205q-83 0 -133.5 -57t-58.5 -158z" />
<glyph unicode="&#xe7;" horiz-adv-x="1048" d="M59 537q0 90 16.5 170.5t54 153t93 125t139 83.5t187.5 31q188 0 306.5 -95.5t125.5 -275.5h-289q-27 107 -139 107q-97 0 -140.5 -72t-43.5 -227q0 -161 40 -229t132 -68q128 0 159 104h281q-17 -163 -126.5 -261.5t-287.5 -105.5l-16 -61q211 -21 211 -172 q0 -201 -316 -201q-65 0 -145 13v125h72q88 0 123.5 11t35.5 48q0 28 -31.5 42.5t-113.5 14.5h-16v8l59 179q-371 60 -371 553z" />
<glyph unicode="&#xe8;" horiz-adv-x="1081" d="M59 537q0 114 28 211.5t85.5 178t156.5 127t230 46.5q95 0 171 -25.5t129 -72.5t88.5 -114t52 -148t16.5 -177q0 -61 -2 -94h-658v-2q0 -123 52.5 -182.5t142.5 -59.5q138 0 168 90h282q-22 -154 -150 -247t-312 -93q-128 0 -222 41t-149.5 117t-82 176t-26.5 228z M252 1475h338l145 -271h-237zM360 666h361v4q-2 94 -39.5 144t-128.5 50q-87 0 -136 -51t-57 -147z" />
<glyph unicode="&#xe9;" horiz-adv-x="1081" d="M59 537q0 114 28 211.5t85.5 178t156.5 127t230 46.5q95 0 171 -25.5t129 -72.5t88.5 -114t52 -148t16.5 -177q0 -61 -2 -94h-658v-2q0 -123 52.5 -182.5t142.5 -59.5q138 0 168 90h282q-22 -154 -150 -247t-312 -93q-128 0 -222 41t-149.5 117t-82 176t-26.5 228z M360 666h361v4q-2 94 -39.5 144t-128.5 50q-87 0 -136 -51t-57 -147zM406 1204l153 271h336l-256 -271h-233z" />
<glyph unicode="&#xea;" horiz-adv-x="1081" d="M59 537q0 114 28 211.5t85.5 178t156.5 127t230 46.5q95 0 171 -25.5t129 -72.5t88.5 -114t52 -148t16.5 -177q0 -61 -2 -94h-658v-2q0 -123 52.5 -182.5t142.5 -59.5q138 0 168 90h282q-22 -154 -150 -247t-312 -93q-128 0 -222 41t-149.5 117t-82 176t-26.5 228z M203 1204l246 271h258l227 -271h-244l-121 117l-120 -117h-246zM360 666h361v4q-2 94 -39.5 144t-128.5 50q-87 0 -136 -51t-57 -147z" />
<glyph unicode="&#xeb;" horiz-adv-x="1081" d="M59 537q0 114 28 211.5t85.5 178t156.5 127t230 46.5q95 0 171 -25.5t129 -72.5t88.5 -114t52 -148t16.5 -177q0 -61 -2 -94h-658v-2q0 -123 52.5 -182.5t142.5 -59.5q138 0 168 90h282q-22 -154 -150 -247t-312 -93q-128 0 -222 41t-149.5 117t-82 176t-26.5 228z M236 1212v263h260v-263h-260zM360 666h361v4q-2 94 -39.5 144t-128.5 50q-87 0 -136 -51t-57 -147zM629 1212v263h266v-263h-266z" />
<glyph unicode="&#xec;" horiz-adv-x="567" d="M-53 1475h338l145 -271h-237zM133 0v1075h301v-1075h-301z" />
<glyph unicode="&#xed;" horiz-adv-x="567" d="M133 0v1075h301v-1075h-301zM139 1204l154 271h336l-256 -271h-234z" />
<glyph unicode="&#xee;" horiz-adv-x="567" d="M-82 1204l246 271h258l227 -271h-243l-121 117l-121 -117h-246zM133 0v1075h301v-1075h-301z" />
<glyph unicode="&#xef;" horiz-adv-x="567" d="M-45 1212v263h260v-263h-260zM133 0v1075h301v-1075h-301zM348 1212v263h266v-263h-266z" />
<glyph unicode="&#xf0;" d="M59 528q0 113 25.5 209t75.5 171t133 118t190 43q97 0 162 -61h10q-53 104 -116 186l-195 -53l-84 139l168 47q-65 74 -135 129v19h305l84 -76l186 55l99 -141l-164 -45q96 -132 143 -250q92 -229 92 -430q0 -96 -15.5 -182t-52 -166t-92 -138t-142 -92.5t-195.5 -34.5 q-126 0 -219.5 39.5t-150.5 113.5t-84.5 174t-27.5 226zM365 530q0 -154 42 -225.5t140 -71.5q93 0 141.5 78t48.5 228q0 153 -37 217q-42 78 -147 78q-97 0 -142.5 -76t-45.5 -228z" />
<glyph unicode="&#xf1;" horiz-adv-x="1185" d="M133 0v1075h281v-133h8q83 158 297 158q346 0 346 -379v-721h-301v692q0 142 -143 142q-84 0 -135.5 -55t-51.5 -150v-629h-301zM242 1204q0 74 20.5 129t55.5 85t75 44.5t86 14.5q79 0 185 -54q62 -30 84 -30q57 0 65 77h182q-1 -74 -21.5 -129.5t-55 -86t-74.5 -44.5 t-86 -14q-36 0 -70.5 8t-55.5 17.5t-59 27.5q-60 31 -81 31q-58 0 -66 -76h-184z" />
<glyph unicode="&#xf2;" d="M59 537q0 90 16 170t53.5 153t93 125.5t141 83.5t192.5 31q130 0 226.5 -39t155.5 -114t87.5 -176.5t28.5 -233.5q0 -90 -17 -170.5t-55.5 -153t-95 -125t-141.5 -83t-189 -30.5q-130 0 -226.5 39.5t-155 114.5t-86.5 176.5t-28 231.5zM238 1475h337l146 -271h-238z M369 537q0 -166 42.5 -235t143.5 -69q99 0 143.5 73.5t44.5 230.5q0 165 -44 235t-144 70t-143 -73.5t-43 -231.5z" />
<glyph unicode="&#xf3;" d="M59 537q0 90 16 170t53.5 153t93 125.5t141 83.5t192.5 31q130 0 226.5 -39t155.5 -114t87.5 -176.5t28.5 -233.5q0 -90 -17 -170.5t-55.5 -153t-95 -125t-141.5 -83t-189 -30.5q-130 0 -226.5 39.5t-155 114.5t-86.5 176.5t-28 231.5zM369 537q0 -166 42.5 -235 t143.5 -69q99 0 143.5 73.5t44.5 230.5q0 165 -44 235t-144 70t-143 -73.5t-43 -231.5zM420 1204l153 271h336l-256 -271h-233z" />
<glyph unicode="&#xf4;" d="M59 537q0 90 16 170t53.5 153t93 125.5t141 83.5t192.5 31q130 0 226.5 -39t155.5 -114t87.5 -176.5t28.5 -233.5q0 -90 -17 -170.5t-55.5 -153t-95 -125t-141.5 -83t-189 -30.5q-130 0 -226.5 39.5t-155 114.5t-86.5 176.5t-28 231.5zM203 1204l246 271h258l227 -271 h-244l-121 117l-120 -117h-246zM369 537q0 -166 42.5 -235t143.5 -69q99 0 143.5 73.5t44.5 230.5q0 165 -44 235t-144 70t-143 -73.5t-43 -231.5z" />
<glyph unicode="&#xf5;" d="M59 537q0 90 16 170t53.5 153t93 125.5t141 83.5t192.5 31q130 0 226.5 -39t155.5 -114t87.5 -176.5t28.5 -233.5q0 -90 -17 -170.5t-55.5 -153t-95 -125t-141.5 -83t-189 -30.5q-130 0 -226.5 39.5t-155 114.5t-86.5 176.5t-28 231.5zM197 1204q0 74 20.5 129t55.5 85 t75 44.5t86 14.5q50 0 90.5 -13.5t93.5 -40.5q62 -30 84 -30q58 0 66 77h182q-1 -74 -21.5 -129.5t-55 -86t-74.5 -44.5t-86 -14q-36 0 -70.5 8t-55.5 17.5t-59 27.5q-60 31 -82 31q-57 0 -65 -76h-184zM369 537q0 -166 42.5 -235t143.5 -69q99 0 143.5 73.5t44.5 230.5 q0 165 -44 235t-144 70t-143 -73.5t-43 -231.5z" />
<glyph unicode="&#xf6;" d="M59 537q0 90 16 170t53.5 153t93 125.5t141 83.5t192.5 31q130 0 226.5 -39t155.5 -114t87.5 -176.5t28.5 -233.5q0 -90 -17 -170.5t-55.5 -153t-95 -125t-141.5 -83t-189 -30.5q-130 0 -226.5 39.5t-155 114.5t-86.5 176.5t-28 231.5zM244 1212v263h260v-263h-260z M369 537q0 -166 42.5 -235t143.5 -69q99 0 143.5 73.5t44.5 230.5q0 165 -44 235t-144 70t-143 -73.5t-43 -231.5zM637 1212v263h266v-263h-266z" />
<glyph unicode="&#xf7;" horiz-adv-x="1179" d="M88 543v262h1004v-262h-1004zM432 133v279h316v-279h-316zM432 936v278h316v-278h-316z" />
<glyph unicode="&#xf8;" d="M59 539q0 90 16 169.5t53.5 152.5t93 125t141 83t192.5 31q99 0 188 -27l50 82h233l-108 -186q135 -141 135 -430q0 -90 -17 -171t-55.5 -153.5t-95 -125.5t-141.5 -83.5t-189 -30.5t-190 25l-50 -88h-231l111 192q-136 142 -136 435zM369 539q0 -91 12 -152l246 442 q-33 13 -72 13q-100 0 -143 -73t-43 -230zM483 244q37 -11 72 -11q99 0 143.5 74t44.5 232q0 87 -12 149z" />
<glyph unicode="&#xf9;" horiz-adv-x="1173" d="M121 354v721h301v-694q0 -73 33 -107t102 -34q83 0 132.5 52t49.5 146v637h301v-1075h-280v131h-8q-75 -156 -285 -156q-346 0 -346 379zM252 1475h338l145 -271h-237z" />
<glyph unicode="&#xfa;" horiz-adv-x="1173" d="M121 354v721h301v-694q0 -73 33 -107t102 -34q83 0 132.5 52t49.5 146v637h301v-1075h-280v131h-8q-75 -156 -285 -156q-346 0 -346 379zM426 1204l154 271h335l-256 -271h-233z" />
<glyph unicode="&#xfb;" horiz-adv-x="1173" d="M121 354v721h301v-694q0 -73 33 -107t102 -34q83 0 132.5 52t49.5 146v637h301v-1075h-280v131h-8q-75 -156 -285 -156q-346 0 -346 379zM217 1204l246 271h258l227 -271h-243l-121 117l-121 -117h-246z" />
<glyph unicode="&#xfc;" horiz-adv-x="1173" d="M121 354v721h301v-694q0 -73 33 -107t102 -34q83 0 132.5 52t49.5 146v637h301v-1075h-280v131h-8q-75 -156 -285 -156q-346 0 -346 379zM256 1212v263h260v-263h-260zM649 1212v263h266v-263h-266z" />
<glyph unicode="&#xfd;" horiz-adv-x="1058" d="M-8 1075h330l153 -551q34 -134 45 -196h12q11 57 56 198l166 549h321l-407 -1065q-32 -83 -63.5 -144t-73.5 -113.5t-92 -85t-115 -50.5t-146 -18q-52 0 -104 8v239h49q88 0 141.5 34t85.5 114l10 29zM383 1204l154 271h335l-256 -271h-233z" />
<glyph unicode="&#xfe;" horiz-adv-x="1198" d="M133 -393v1868h301v-531h8q34 70 105.5 113t169.5 43q110 0 191.5 -43t130 -121t71.5 -177t23 -220q0 -159 -51 -285.5t-154 -202.5t-242 -76q-170 0 -244 121h-8v-489h-301zM434 483q0 -243 187 -243q202 0 202 297q0 159 -47.5 229t-144.5 70q-93 0 -145 -69t-52 -202 v-82z" />
<glyph unicode="&#xff;" horiz-adv-x="1058" d="M-8 1075h330l153 -551q34 -134 45 -196h12q11 57 56 198l166 549h321l-407 -1065q-32 -83 -63.5 -144t-73.5 -113.5t-92 -85t-115 -50.5t-146 -18q-52 0 -104 8v239h49q88 0 141.5 34t85.5 114l10 29zM211 1212v263h260v-263h-260zM604 1212v263h266v-263h-266z" />
<glyph unicode="&#x152;" horiz-adv-x="1925" d="M59 733q0 369 147.5 567.5t409.5 198.5q122 0 214 -37t137 -110h8q-4 66 -4 86v37h880v-263h-602v-331h434v-263h-434v-356h619v-262h-897v39q0 12 0.5 26t1.5 38.5t2 46.5h-8q-109 -175 -363 -175q-133 0 -231.5 40.5t-170 129t-107.5 235.5t-36 353zM381 737 q0 -191 28.5 -300t86.5 -154t157 -45q146 0 216.5 116.5t70.5 382.5q0 272 -60.5 386t-217.5 114q-147 0 -214 -125t-67 -375z" />
<glyph unicode="&#x153;" horiz-adv-x="1744" d="M55 539q0 113 27 210.5t82.5 177.5t152 126.5t224.5 46.5q232 0 331 -164h11q108 164 348 164q117 0 203.5 -39.5t138.5 -112t77 -167.5t25 -214q0 -63 -2 -98h-653v-2q0 -242 194 -242q134 0 164 90h281q-19 -156 -138.5 -248t-303.5 -92q-246 0 -343 160h-10 q-106 -160 -344 -160q-465 0 -465 564zM362 539q0 -163 43.5 -234.5t139.5 -71.5q95 0 139.5 75t44.5 231q0 161 -43 232t-139 71t-140.5 -74.5t-44.5 -228.5zM1022 653h360v4q0 205 -168 205q-86 0 -135 -54t-57 -155z" />
<glyph unicode="&#x178;" horiz-adv-x="1183" d="M-20 1475h354l166 -363q19 -38 56 -126.5t48 -119.5h8q49 119 111 246l170 363h326l-465 -877v-598h-318v598zM291 1577v242h260v-242h-260zM684 1577v242h266v-242h-266z" />
<glyph unicode="&#x2c6;" horiz-adv-x="802" d="M35 1204l246 271h258l227 -271h-244l-121 117l-120 -117h-246z" />
<glyph unicode="&#x2dc;" horiz-adv-x="802" d="M23 1204q0 74 20.5 129t55.5 85t75 44.5t86 14.5q50 0 90.5 -13.5t93.5 -40.5q61 -30 84 -30q58 0 66 77h182q-1 -74 -21.5 -129.5t-55 -86t-74.5 -44.5t-86 -14q-36 0 -70.5 8t-55.5 17.5t-59 27.5q-60 31 -82 31q-57 0 -65 -76h-184z" />
<glyph unicode="&#x2000;" horiz-adv-x="991" />
<glyph unicode="&#x2001;" horiz-adv-x="1982" />
<glyph unicode="&#x2002;" horiz-adv-x="991" />
<glyph unicode="&#x2003;" horiz-adv-x="1982" />
<glyph unicode="&#x2004;" horiz-adv-x="660" />
<glyph unicode="&#x2005;" horiz-adv-x="495" />
<glyph unicode="&#x2006;" horiz-adv-x="330" />
<glyph unicode="&#x2007;" horiz-adv-x="330" />
<glyph unicode="&#x2008;" horiz-adv-x="247" />
<glyph unicode="&#x2009;" horiz-adv-x="396" />
<glyph unicode="&#x200a;" horiz-adv-x="110" />
<glyph unicode="&#x2010;" horiz-adv-x="804" d="M72 401v271h661v-271h-661z" />
<glyph unicode="&#x2011;" horiz-adv-x="804" d="M72 401v271h661v-271h-661z" />
<glyph unicode="&#x2012;" horiz-adv-x="804" d="M72 401v271h661v-271h-661z" />
<glyph unicode="&#x2013;" horiz-adv-x="1050" d="M57 420v266h938v-266h-938z" />
<glyph unicode="&#x2014;" horiz-adv-x="1572" d="M57 420v266h1461v-266h-1461z" />
<glyph unicode="&#x2018;" horiz-adv-x="401" d="M25 1059l104 416h229l-39 -416h-294z" />
<glyph unicode="&#x2019;" horiz-adv-x="407" d="M41 1059l49 416h293l-111 -416h-231z" />
<glyph unicode="&#x201a;" horiz-adv-x="430" d="M43 -104l49 415h293l-111 -415h-231z" />
<glyph unicode="&#x201c;" horiz-adv-x="829" d="M25 1059l110 416h234l-50 -416h-294zM444 1059l111 416h233l-49 -416h-295z" />
<glyph unicode="&#x201d;" horiz-adv-x="827" d="M41 1059l49 416h293l-111 -416h-231zM461 1059l49 416h293l-111 -416h-231z" />
<glyph unicode="&#x201e;" horiz-adv-x="870" d="M43 -104l49 415h293l-111 -415h-231zM463 -104l49 415h293l-111 -415h-231z" />
<glyph unicode="&#x2022;" horiz-adv-x="716" d="M57 664q0 128 86 210t213 82q129 0 215 -82t86 -210t-86 -210.5t-215 -82.5q-127 0 -213 82.5t-86 210.5z" />
<glyph unicode="&#x2026;" horiz-adv-x="1564" d="M104 0v311h316v-311h-316zM625 0v311h315v-311h-315zM1145 0v311h315v-311h-315z" />
<glyph unicode="&#x202f;" horiz-adv-x="396" />
<glyph unicode="&#x2039;" horiz-adv-x="452" d="M8 539l193 325h243l-184 -317l178 -318h-252z" />
<glyph unicode="&#x203a;" horiz-adv-x="452" d="M8 229l187 318l-179 317h252l176 -309l-192 -326h-244z" />
<glyph unicode="&#x205f;" horiz-adv-x="495" />
<glyph unicode="&#x20ac;" horiz-adv-x="1312" d="M80 504v168h137v129h-137v168h153q41 259 180 394.5t365 135.5q211 0 340 -99.5t139 -281.5h-292q-11 60 -59 93.5t-124 33.5q-106 0 -169 -68.5t-76 -207.5h319v-168h-330q-1 -9 -1 -19t0.5 -23.5t0.5 -21.5v-65h287v-168h-278q13 -147 72 -211t159 -64q78 0 131.5 35 t67.5 105h292q-22 -175 -160 -284.5t-345 -109.5q-240 0 -365 130t-158 399h-149z" />
<glyph unicode="&#x2122;" horiz-adv-x="1355" d="M16 1323v152h543v-152h-182v-537h-176v537h-185zM666 786v689h200l45 -129q35 -113 68 -238h8l68 238l41 129h202v-689h-145v263q0 127 2 180h-12q-16 -74 -47 -180l-43 -148h-146l-41 148q-37 151 -43 180h-12q2 -55 2 -180v-263h-147z" />
<glyph unicode="&#x25fc;" horiz-adv-x="1075" d="M0 0v1075h1075v-1075h-1075z" />
</font>
</defs>
</svg>
