
<svg version="1.1" id="Layer_1" xmlns="http://www.w3.org/2000/svg" xmlns:xlink="http://www.w3.org/1999/xlink" x="0px" y="0px"
	 width="100%" height="100%" viewBox="0 0 48 48" enable-background="new 0 0 48 48" xml:space="preserve">
<circle fill="#2596B4" cx="23.6" cy="23.7" r="22.6"/>
<path opacity="0.5" fill="#1E697A" d="M28.7,19.7l-0.7-0.2h-3.4l-0.6,6.3l0,0.8v1.7h-2.4v3.3h-2.2l13,12.8c4.7-2,8.6-5.6,11.1-10.1
	L28.7,19.7z"/>
<g>
	<g>
		<g>
			<g>
				<g>
					<circle fill="#FFFFFF" cx="26.4" cy="17.3" r="1.5"/>
					<circle fill="#FFFFFF" cx="20.4" cy="17.5" r="1.3"/>
					<path fill="#FFFFFF" d="M29.4,25.4l-0.6,0.4l-0.6-0.4v-5.9c0,0,1.1,0.4,1.2,1.5L29.4,25.4z"/>
					<path fill="#FFFFFF" d="M23.4,21c0.1-1.1,1.2-1.5,1.2-1.5v5.9l-0.6,0.4l-0.6-0.4L23.4,21z"/>
					<path fill="#FFFFFF" d="M24.8,19.5v12.2h1.5v-5.6h0.2v5.6h1.4V19.5H24.8z"/>
					<path fill="#FFFFFF" d="M18.1,22.7v-1.7c0,0,0-1.1,0.8-1.5V23l-1.5,2.6l-0.5,0l-0.1-0.6L18.1,22.7z"/>
					<path fill="#FFFFFF" d="M24,24.9l-0.1,0.6l-0.5,0L22,23v-3.4c0.8,0.5,0.8,1.5,0.8,1.5v1.7L24,24.9z"/>
					<path fill="#FFFFFF" d="M19.2,19.5V23L17,26.7v1.7h2.4v3.3h1v-3.3h0.2v3.3h1v-3.3h2.4v-1.7L21.7,23v-3.6H19.2z"/>
				</g>
			</g>
		</g>
	</g>
</g>
<g>
	<path fill="#2596B4" d="M14.5,23.4"/>
</g>
<g>
	<g>
		<polygon fill="#FFFFFF" points="12.2,23.9 11.9,24.1 12.2,24.4 12.2,24.7 12.5,24.6 12.3,24.3 		"/>
		<path fill="#FFFFFF" d="M16,24.3l-0.8-0.8c-0.1-0.4-0.5-0.7-0.9-0.7c-0.5,0-0.8,0.3-0.9,0.7l-0.8,0.8l0.9-0.2
			c0.1,0.4,0.5,0.6,0.9,0.6c0.4,0,0.8-0.3,0.9-0.6L16,24.3z"/>
		<polygon fill="#FFFFFF" points="16.2,23.9 16.1,24.3 15.9,24.6 16.2,24.7 16.2,24.4 16.5,24.1 		"/>
	</g>
	<polyline fill="#FFFFFF" points="15.3,26.2 15.6,29.7 15.3,29.7 14.7,31.4 14.3,31.4 14.5,29.7 14.1,29.7 	"/>
	<path fill="#FFFFFF" d="M14.3,29.7h-0.4l0.2,1.7h-0.4L13,29.7h-0.3l0.4-3.5l-1,1.6l-0.4-0.2l1.1-2.3c0,0,0.2-0.4,0.8-0.4l0.6,0.3
		l0.6,0l0.8,0"/>
	<polyline fill="#FFFFFF" points="15.1,26.4 17.4,25.5 17.3,25 15.6,25.2 	"/>
	<polyline fill="#FFFFFF" points="15.3,29.7 14.7,31.4 14.3,31.4 14.5,29.7 	"/>
	<polyline fill="#FFFFFF" points="13.9,29.7 14.1,31.4 13.6,31.4 13,29.7 	"/>
</g>
</svg>
