
<svg version="1.1" id="Layer_1" xmlns="http://www.w3.org/2000/svg" xmlns:xlink="http://www.w3.org/1999/xlink" x="0px" y="0px"
	 viewBox="-227 104 48 48" enable-background="new -227 104 48 48" xml:space="preserve">
<circle fill="#2596B4" cx="-203.345" cy="127.921" r="22.446"/>
<path fill="#FFFFFF" d="M-203.166,121.366c-0.008,0.009-0.017,0.017-0.025,0.026c-0.578-0.682-1.441-1.116-2.403-1.116h-7.88v14.368
	h7.83l2.478-0.008V121.366z"/>
<path opacity="0.5" fill="#1E697A" enable-background="new    " d="M-181.336,132.339l-11.972-11.972v14.279h-7.328
	c0,0-5.121-0.561-5.007,0h-7.829l15.146,15.152C-189.763,147.84-183.063,140.99-181.336,132.339z"/>
<line fill="none" stroke="#2596B4" stroke-miterlimit="10" x1="-211.087" y1="123.524" x2="-205.757" y2="123.524"/>
<line fill="none" stroke="#2596B4" stroke-miterlimit="10" x1="-211.087" y1="125.816" x2="-205.757" y2="125.816"/>
<line fill="none" stroke="#2596B4" stroke-miterlimit="10" x1="-211.087" y1="128.107" x2="-205.757" y2="128.107"/>
<line fill="none" stroke="#2596B4" stroke-miterlimit="10" x1="-211.087" y1="130.398" x2="-205.757" y2="130.398"/>
<path fill="#FFFFFF" d="M-203.216,121.366c0.008,0.009,0.017,0.017,0.025,0.026c0.578-0.682,1.441-1.116,2.403-1.116h7.88v14.368
	h-7.83l-2.478-0.008V121.366z"/>
<line fill="none" stroke="#2596B4" stroke-miterlimit="10" x1="-195.295" y1="123.524" x2="-200.624" y2="123.524"/>
<line fill="none" stroke="#2596B4" stroke-miterlimit="10" x1="-195.295" y1="125.816" x2="-200.624" y2="125.816"/>
<line fill="none" stroke="#2596B4" stroke-miterlimit="10" x1="-195.295" y1="128.107" x2="-200.624" y2="128.107"/>
<line fill="none" stroke="#2596B4" stroke-miterlimit="10" x1="-195.295" y1="130.398" x2="-200.624" y2="130.398"/>
<line fill="none" stroke="#2596B4" stroke-miterlimit="10" x1="-203.191" y1="120" x2="-203.191" y2="134.637"/>
<polygon fill="#2490A9" points="-207.058,120.277 -207.058,125.443 -208.32,124.181 -209.582,125.443 -209.582,120.277 "/>
</svg>
